SplineFontDB: 3.0
FontName: Nunito-Bold
FullName: Nunito Bold
FamilyName: Nunito
Weight: Bold
Copyright: Copyright (c) 2011 by vernon adams. All rights reserved.
Version: 1.000
ItalicAngle: 0
UnderlinePosition: -103
UnderlineWidth: 102
Ascent: 1638
Descent: 410
sfntRevision: 0x00010000
LayerCount: 2
Layer: 0 1 "Back"  1
Layer: 1 1 "Fore"  0
XUID: [1021 759 1887733602 7153143]
FSType: 0
OS2Version: 2
OS2_WeightWidthSlopeOnly: 0
OS2_UseTypoMetrics: 1
CreationTime: 1305790440
ModificationTime: 1305892014
PfmFamily: 17
TTFWeight: 700
TTFWidth: 5
LineGap: 0
VLineGap: 0
Panose: 2 0 5 3 3 0 0 2 0 3
OS2TypoAscent: 433
OS2TypoAOffset: 1
OS2TypoDescent: -313
OS2TypoDOffset: 1
OS2TypoLinegap: 0
OS2WinAscent: 0
OS2WinAOffset: 1
OS2WinDescent: 0
OS2WinDOffset: 1
HheadAscent: 0
HheadAOffset: 1
HheadDescent: 0
HheadDOffset: 1
OS2SubXSize: 5583
OS2SubYSize: 5155
OS2SubXOff: 0
OS2SubYOff: 645
OS2SupXSize: 5583
OS2SupYSize: 5155
OS2SupXOff: 0
OS2SupYOff: 3006
OS2StrikeYSize: 102
OS2StrikeYPos: 512
OS2Vendor: 'newt'
OS2CodePages: 20000001.00000000
OS2UnicodeRanges: 800000ef.5000204b.00000000.00000000
Lookup: 258 0 0 "'kern' Horizontal Kerning in Latin lookup 0"  {"'kern' Horizontal Kerning in Latin lookup 0 subtable"  } ['kern' ('DFLT' <'dflt' > 'latn' <'dflt' > ) ]
MarkAttachClasses: 1
DEI: 91125
TtTable: prep
PUSHW_1
 0
CALL
SVTCA[y-axis]
PUSHW_3
 1
 4
 2
CALL
SVTCA[x-axis]
PUSHW_3
 5
 7
 2
CALL
SVTCA[x-axis]
PUSHW_8
 5
 48
 40
 31
 22
 14
 0
 8
CALL
PUSHW_8
 6
 42
 35
 27
 20
 12
 0
 8
CALL
PUSHW_8
 7
 36
 29
 23
 16
 10
 0
 8
CALL
PUSHW_8
 8
 57
 47
 36
 26
 16
 0
 8
CALL
PUSHW_8
 9
 31
 25
 20
 14
 9
 0
 8
CALL
PUSHW_8
 10
 36
 29
 23
 17
 10
 0
 8
CALL
PUSHW_8
 11
 31
 25
 20
 14
 9
 0
 8
CALL
SVTCA[y-axis]
PUSHW_8
 1
 44
 36
 28
 20
 12
 0
 8
CALL
PUSHW_8
 2
 56
 46
 36
 26
 16
 0
 8
CALL
PUSHW_8
 3
 51
 41
 32
 23
 14
 0
 8
CALL
PUSHW_8
 4
 35
 29
 22
 16
 10
 0
 8
CALL
SVTCA[y-axis]
PUSHW_3
 12
 9
 7
CALL
PUSHW_1
 0
DUP
RCVT
RDTG
ROUND[Black]
RTG
WCVTP
EndTTInstrs

StartChar: exclam
Encoding: 33 33 2
Width: 776
Flags: W
LayerCount: 2
Fore
SplineSet
386 255 m 0,0,1
 424 255 424 255 456 245 c 128,-1,2
 488 235 488 235 511 217.5 c 128,-1,3
 534 200 534 200 547 177 c 128,-1,4
 560 154 560 154 560 128 c 0,5,6
 560 100 560 100 547 76.5 c 128,-1,7
 534 53 534 53 510.5 36 c 128,-1,8
 487 19 487 19 455 9.5 c 128,-1,9
 423 0 423 0 386 0 c 0,10,11
 346 0 346 0 314 10 c 128,-1,12
 282 20 282 20 259 37 c 128,-1,13
 236 54 236 54 223.5 77.5 c 128,-1,14
 211 101 211 101 211 128 c 0,15,16
 211 153 211 153 223 176 c 128,-1,17
 235 199 235 199 257.5 216.5 c 128,-1,18
 280 234 280 234 312.5 244.5 c 128,-1,19
 345 255 345 255 386 255 c 0,0,1
386 394 m 256,20,21
 348 394 348 394 321 411 c 128,-1,22
 294 428 294 428 276 458 c 128,-1,23
 258 488 258 488 249 529 c 128,-1,24
 240 570 240 570 238 618 c 2,25,-1
 205 1323 l 2,26,27
 204 1328 204 1328 204 1340 c 0,28,29
 204 1373 204 1373 219 1398.5 c 128,-1,30
 234 1424 234 1424 259 1442 c 128,-1,31
 284 1460 284 1460 317 1469.5 c 128,-1,32
 350 1479 350 1479 385 1479 c 256,33,34
 420 1479 420 1479 453 1469.5 c 128,-1,35
 486 1460 486 1460 511 1442 c 128,-1,36
 536 1424 536 1424 551 1398.5 c 128,-1,37
 566 1373 566 1373 566 1340 c 0,38,39
 566 1328 566 1328 565 1323 c 2,40,-1
 532 618 l 2,41,42
 530 570 530 570 521 529 c 128,-1,43
 512 488 512 488 495 458 c 128,-1,44
 478 428 478 428 451 411 c 128,-1,45
 424 394 424 394 386 394 c 256,20,21
EndSplineSet
EndChar

StartChar: quotedbl
Encoding: 34 34 3
Width: 908
Flags: W
LayerCount: 2
Fore
SplineSet
517 1363 m 2,0,1
 516 1367 516 1367 516 1376 c 0,2,3
 516 1399 516 1399 526 1417.5 c 128,-1,4
 536 1436 536 1436 552.5 1449 c 128,-1,5
 569 1462 569 1462 591.5 1469 c 128,-1,6
 614 1476 614 1476 639 1476 c 0,7,8
 662 1476 662 1476 683.5 1469.5 c 128,-1,9
 705 1463 705 1463 722 1450 c 128,-1,10
 739 1437 739 1437 749.5 1417 c 128,-1,11
 760 1397 760 1397 760 1370 c 1,12,-1
 758 1348 l 2,13,14
 758 1343 758 1343 757.5 1336.5 c 128,-1,15
 757 1330 757 1330 757 1325 c 2,16,-1
 728 1041 l 1,17,18
 713 925 713 925 637 925 c 0,19,20
 607 925 607 925 581 949 c 128,-1,21
 555 973 555 973 550 1022 c 2,22,-1
 517 1363 l 2,0,1
143 1363 m 2,23,24
 142 1367 142 1367 142 1376 c 0,25,26
 142 1399 142 1399 152 1417.5 c 128,-1,27
 162 1436 162 1436 178.5 1449 c 128,-1,28
 195 1462 195 1462 217.5 1469 c 128,-1,29
 240 1476 240 1476 265 1476 c 0,30,31
 288 1476 288 1476 310 1470 c 128,-1,32
 332 1464 332 1464 349 1451 c 128,-1,33
 366 1438 366 1438 376.5 1418 c 128,-1,34
 387 1398 387 1398 387 1370 c 1,35,-1
 385 1348 l 2,36,37
 384 1343 384 1343 383.5 1336.5 c 128,-1,38
 383 1330 383 1330 383 1325 c 2,39,-1
 354 1041 l 2,40,41
 348 984 348 984 324.5 954.5 c 128,-1,42
 301 925 301 925 264 925 c 0,43,44
 234 925 234 925 207.5 949 c 128,-1,45
 181 973 181 973 176 1022 c 2,46,-1
 143 1363 l 2,23,24
EndSplineSet
EndChar

StartChar: numbersign
Encoding: 35 35 4
Width: 1299
Flags: W
LayerCount: 2
Fore
SplineSet
715 429 m 1,0,-1
 509 429 l 1,1,-1
 461 90 l 2,2,3
 457 65 457 65 450.5 43 c 128,-1,4
 444 21 444 21 432 5 c 128,-1,5
 420 -11 420 -11 401 -20 c 128,-1,6
 382 -29 382 -29 354 -29 c 1,7,8
 316 -27 316 -27 291 0.5 c 128,-1,9
 266 28 266 28 266 73 c 1,10,-1
 270 100 l 2,11,12
 271 107 271 107 271.5 114 c 128,-1,13
 272 121 272 121 274 129 c 2,14,-1
 317 429 l 1,15,-1
 251 429 l 2,16,17
 227 429 227 429 206.5 433.5 c 128,-1,18
 186 438 186 438 170.5 449.5 c 128,-1,19
 155 461 155 461 146.5 480 c 128,-1,20
 138 499 138 499 138 529 c 1,21,22
 140 567 140 567 165.5 589.5 c 128,-1,23
 191 612 191 612 239 612 c 2,24,-1
 342 612 l 1,25,-1
 376 852 l 1,26,-1
 309 852 l 2,27,28
 288 852 288 852 267.5 856 c 128,-1,29
 247 860 247 860 231 870.5 c 128,-1,30
 215 881 215 881 205 898.5 c 128,-1,31
 195 916 195 916 195 944 c 0,32,33
 195 988 195 988 223.5 1011.5 c 128,-1,34
 252 1035 252 1035 309 1035 c 2,35,-1
 402 1035 l 1,36,-1
 448 1359 l 2,37,38
 455 1408 455 1408 478.5 1438 c 128,-1,39
 502 1468 502 1468 555 1468 c 1,40,41
 590 1465 590 1465 615.5 1441 c 128,-1,42
 641 1417 641 1417 641 1372 c 2,43,-1
 641 1366 l 1,44,-1
 638 1337 l 2,45,46
 637 1329 637 1329 635.5 1322 c 128,-1,47
 634 1315 634 1315 633 1308 c 0,48,49
 623 1239 623 1239 614 1171.5 c 128,-1,50
 605 1104 605 1104 594 1035 c 1,51,-1
 799 1035 l 1,52,-1
 846 1359 l 2,53,54
 854 1418 854 1418 879.5 1443 c 128,-1,55
 905 1468 905 1468 953 1468 c 1,56,57
 988 1465 988 1465 1014 1441 c 128,-1,58
 1040 1417 1040 1417 1040 1376 c 0,59,60
 1040 1365 1040 1365 1038.5 1354 c 128,-1,61
 1037 1343 1037 1343 1036 1333 c 2,62,-1
 992 1035 l 1,63,-1
 1046 1035 l 2,64,65
 1068 1035 1068 1035 1088.5 1030.5 c 128,-1,66
 1109 1026 1109 1026 1125.5 1015.5 c 128,-1,67
 1142 1005 1142 1005 1152 987.5 c 128,-1,68
 1162 970 1162 970 1162 943 c 0,69,70
 1162 895 1162 895 1132 873.5 c 128,-1,71
 1102 852 1102 852 1046 852 c 2,72,-1
 967 852 l 1,73,-1
 933 612 l 1,74,-1
 988 612 l 2,75,76
 1009 612 1009 612 1030 608 c 128,-1,77
 1051 604 1051 604 1067.5 593.5 c 128,-1,78
 1084 583 1084 583 1094 565 c 128,-1,79
 1104 547 1104 547 1104 520 c 0,80,81
 1104 472 1104 472 1074 450.5 c 128,-1,82
 1044 429 1044 429 988 429 c 2,83,-1
 908 429 l 1,84,-1
 857 77 l 2,85,86
 854 56 854 56 848 37 c 128,-1,87
 842 18 842 18 830.5 3 c 128,-1,88
 819 -12 819 -12 802.5 -20.5 c 128,-1,89
 786 -29 786 -29 762 -29 c 0,90,91
 721 -29 721 -29 693 -2.5 c 128,-1,92
 665 24 665 24 665 72 c 1,93,-1
 669 100 l 2,94,95
 670 107 670 107 670.5 114 c 128,-1,96
 671 121 671 121 673 129 c 2,97,-1
 715 429 l 1,0,-1
535 612 m 1,98,-1
 740 612 l 1,99,-1
 774 852 l 1,100,-1
 568 852 l 1,101,-1
 535 612 l 1,98,-1
EndSplineSet
EndChar

StartChar: dollar
Encoding: 36 36 5
Width: 1371
Flags: W
LayerCount: 2
Fore
SplineSet
597 -39 m 1,0,1
 517 -36 517 -36 436.5 -22.5 c 128,-1,2
 356 -9 356 -9 288.5 12 c 128,-1,3
 221 33 221 33 174 59 c 128,-1,4
 127 85 127 85 113 113 c 0,5,6
 97 143 97 143 97 172 c 0,7,8
 97 196 97 196 105.5 218.5 c 128,-1,9
 114 241 114 241 129 258.5 c 128,-1,10
 144 276 144 276 166 287 c 128,-1,11
 188 298 188 298 215 298 c 0,12,13
 245 298 245 298 276 286.5 c 128,-1,14
 307 275 307 275 345 264 c 0,15,16
 408 245 408 245 487 232 c 128,-1,17
 566 219 566 219 656 219 c 0,18,19
 700 219 700 219 745 228 c 128,-1,20
 790 237 790 237 826 256.5 c 128,-1,21
 862 276 862 276 884.5 307 c 128,-1,22
 907 338 907 338 907 382 c 0,23,24
 907 421 907 421 890 449.5 c 128,-1,25
 873 478 873 478 844.5 499 c 128,-1,26
 816 520 816 520 777 536 c 128,-1,27
 738 552 738 552 695 566 c 1,28,-1
 636 583 l 2,29,30
 616 589 616 589 595 595 c 128,-1,31
 574 601 574 601 552 608 c 2,32,-1
 467 633 l 2,33,34
 432 644 432 644 401 655 c 128,-1,35
 370 666 370 666 351 673 c 0,36,37
 217 721 217 721 149 810 c 128,-1,38
 81 899 81 899 81 1037 c 0,39,40
 81 1122 81 1122 115.5 1195.5 c 128,-1,41
 150 1269 150 1269 216 1325 c 128,-1,42
 282 1381 282 1381 378 1416 c 128,-1,43
 474 1451 474 1451 597 1460 c 1,44,-1
 597 1536 l 2,45,46
 597 1575 597 1575 616 1594.5 c 128,-1,47
 635 1614 635 1614 664 1614 c 0,48,49
 690 1614 690 1614 710.5 1596.5 c 128,-1,50
 731 1579 731 1579 731 1547 c 2,51,-1
 731 1461 l 1,52,53
 809 1457 809 1457 890 1447.5 c 128,-1,54
 971 1438 971 1438 1037.5 1416 c 128,-1,55
 1104 1394 1104 1394 1146 1358 c 128,-1,56
 1188 1322 1188 1322 1188 1265 c 0,57,58
 1188 1219 1188 1219 1155.5 1187.5 c 128,-1,59
 1123 1156 1123 1156 1070 1156 c 0,60,61
 1065 1156 1065 1156 1059.5 1156 c 128,-1,62
 1054 1156 1054 1156 1049 1157 c 0,63,64
 1021 1162 1021 1162 995 1167.5 c 128,-1,65
 969 1173 969 1173 938 1179 c 128,-1,66
 907 1185 907 1185 866.5 1191 c 128,-1,67
 826 1197 826 1197 769 1203 c 0,68,69
 745 1205 745 1205 721.5 1207 c 128,-1,70
 698 1209 698 1209 675 1209 c 0,71,72
 631 1209 631 1209 587 1200.5 c 128,-1,73
 543 1192 543 1192 508.5 1175 c 128,-1,74
 474 1158 474 1158 452.5 1131.5 c 128,-1,75
 431 1105 431 1105 431 1068 c 0,76,77
 431 1024 431 1024 453.5 993 c 128,-1,78
 476 962 476 962 513 939.5 c 128,-1,79
 550 917 550 917 596.5 901.5 c 128,-1,80
 643 886 643 886 690 873 c 2,81,-1
 791 845 l 1,82,83
 894 813 894 813 980.5 779.5 c 128,-1,84
 1067 746 1067 746 1130 698.5 c 128,-1,85
 1193 651 1193 651 1228 583.5 c 128,-1,86
 1263 516 1263 516 1263 418 c 0,87,88
 1263 318 1263 318 1225.5 237.5 c 128,-1,89
 1188 157 1188 157 1118.5 98.5 c 128,-1,90
 1049 40 1049 40 950.5 5 c 128,-1,91
 852 -30 852 -30 731 -38 c 1,92,-1
 731 -122 l 2,93,94
 731 -138 731 -138 728 -154 c 128,-1,95
 725 -170 725 -170 717.5 -182.5 c 128,-1,96
 710 -195 710 -195 697 -203 c 128,-1,97
 684 -211 684 -211 663 -211 c 0,98,99
 637 -211 637 -211 617 -194.5 c 128,-1,100
 597 -178 597 -178 597 -144 c 2,101,-1
 597 -39 l 1,0,1
EndSplineSet
EndChar

StartChar: percent
Encoding: 37 37 6
Width: 2109
Flags: W
LayerCount: 2
Fore
SplineSet
516 1288 m 0,0,1
 443 1288 443 1288 410 1223.5 c 128,-1,2
 377 1159 377 1159 377 1025 c 256,3,4
 377 891 377 891 408.5 826 c 128,-1,5
 440 761 440 761 516 761 c 0,6,7
 591 761 591 761 623.5 825.5 c 128,-1,8
 656 890 656 890 656 1025 c 0,9,10
 656 1159 656 1159 623.5 1223.5 c 128,-1,11
 591 1288 591 1288 516 1288 c 0,0,1
1348 1436 m 2,12,13
 1362 1461 1362 1461 1379.5 1471.5 c 128,-1,14
 1397 1482 1397 1482 1417 1482 c 0,15,16
 1431 1482 1431 1482 1444.5 1476 c 128,-1,17
 1458 1470 1458 1470 1468 1460 c 128,-1,18
 1478 1450 1478 1450 1484 1437 c 128,-1,19
 1490 1424 1490 1424 1490 1409 c 0,20,21
 1490 1388 1490 1388 1477.5 1362.5 c 128,-1,22
 1465 1337 1465 1337 1453 1313 c 2,23,-1
 752 30 l 2,24,25
 743 14 743 14 733.5 -2.5 c 128,-1,26
 724 -19 724 -19 712.5 -32 c 128,-1,27
 701 -45 701 -45 688.5 -53.5 c 128,-1,28
 676 -62 676 -62 661 -62 c 0,29,30
 645 -62 645 -62 630.5 -56 c 128,-1,31
 616 -50 616 -50 605.5 -39.5 c 128,-1,32
 595 -29 595 -29 588.5 -15.5 c 128,-1,33
 582 -2 582 -2 582 13 c 0,34,35
 582 21 582 21 585.5 31.5 c 128,-1,36
 589 42 589 42 594.5 54 c 128,-1,37
 600 66 600 66 606.5 78 c 128,-1,38
 613 90 613 90 619 100 c 2,39,-1
 1348 1436 l 2,12,13
516 1457 m 0,40,41
 591 1457 591 1457 648.5 1438 c 128,-1,42
 706 1419 706 1419 747.5 1386.5 c 128,-1,43
 789 1354 789 1354 817 1311 c 128,-1,44
 845 1268 845 1268 862 1220 c 128,-1,45
 879 1172 879 1172 886 1122 c 128,-1,46
 893 1072 893 1072 893 1025 c 0,47,48
 893 927 893 927 865.5 847 c 128,-1,49
 838 767 838 767 788.5 710.5 c 128,-1,50
 739 654 739 654 669.5 623 c 128,-1,51
 600 592 600 592 516 592 c 0,52,53
 429 592 429 592 359 619.5 c 128,-1,54
 289 647 289 647 240.5 702 c 128,-1,55
 192 757 192 757 166 837.5 c 128,-1,56
 140 918 140 918 140 1025 c 0,57,58
 140 1120 140 1120 166.5 1199.5 c 128,-1,59
 193 1279 193 1279 241.5 1336 c 128,-1,60
 290 1393 290 1393 359.5 1425 c 128,-1,61
 429 1457 429 1457 516 1457 c 0,40,41
1592 831 m 0,62,63
 1668 831 1668 831 1725 811.5 c 128,-1,64
 1782 792 1782 792 1824 759.5 c 128,-1,65
 1866 727 1866 727 1893.5 683.5 c 128,-1,66
 1921 640 1921 640 1937.5 592 c 128,-1,67
 1954 544 1954 544 1961 494 c 128,-1,68
 1968 444 1968 444 1968 398 c 0,69,70
 1968 303 1968 303 1942 223.5 c 128,-1,71
 1916 144 1916 144 1867 86.5 c 128,-1,72
 1818 29 1818 29 1748.5 -3 c 128,-1,73
 1679 -35 1679 -35 1592 -35 c 0,74,75
 1504 -35 1504 -35 1434.5 -7 c 128,-1,76
 1365 21 1365 21 1316.5 75.5 c 128,-1,77
 1268 130 1268 130 1242 211 c 128,-1,78
 1216 292 1216 292 1216 398 c 0,79,80
 1216 494 1216 494 1242.5 573.5 c 128,-1,81
 1269 653 1269 653 1317.5 710 c 128,-1,82
 1366 767 1366 767 1435.5 799 c 128,-1,83
 1505 831 1505 831 1592 831 c 0,62,63
1592 662 m 0,84,85
 1517 662 1517 662 1485 597 c 128,-1,86
 1453 532 1453 532 1453 398 c 0,87,88
 1453 265 1453 265 1484 200 c 128,-1,89
 1515 135 1515 135 1592 135 c 0,90,91
 1661 135 1661 135 1696 196 c 128,-1,92
 1731 257 1731 257 1731 398 c 0,93,94
 1731 527 1731 527 1700 594.5 c 128,-1,95
 1669 662 1669 662 1592 662 c 0,84,85
EndSplineSet
EndChar

StartChar: ampersand
Encoding: 38 38 7
Width: 1659
Flags: W
LayerCount: 2
Fore
SplineSet
1232 581 m 1,0,1
 1244 603 1244 603 1255 632 c 128,-1,2
 1266 661 1266 661 1277 692 c 128,-1,3
 1288 723 1288 723 1298.5 753.5 c 128,-1,4
 1309 784 1309 784 1319 809.5 c 128,-1,5
 1329 835 1329 835 1339.5 852 c 128,-1,6
 1350 869 1350 869 1361 873 c 0,7,8
 1369 876 1369 876 1378 877 c 128,-1,9
 1387 878 1387 878 1396 878 c 0,10,11
 1422 878 1422 878 1445.5 870.5 c 128,-1,12
 1469 863 1469 863 1487 848 c 128,-1,13
 1505 833 1505 833 1515.5 810.5 c 128,-1,14
 1526 788 1526 788 1526 757 c 0,15,16
 1526 715 1526 715 1513.5 657.5 c 128,-1,17
 1501 600 1501 600 1479.5 539 c 128,-1,18
 1458 478 1458 478 1428.5 418 c 128,-1,19
 1399 358 1399 358 1365 312 c 1,20,-1
 1409 266 l 2,21,22
 1427 248 1427 248 1443.5 227.5 c 128,-1,23
 1460 207 1460 207 1472.5 185.5 c 128,-1,24
 1485 164 1485 164 1493 143 c 128,-1,25
 1501 122 1501 122 1501 102 c 0,26,27
 1501 76 1501 76 1490 52.5 c 128,-1,28
 1479 29 1479 29 1461 11 c 128,-1,29
 1443 -7 1443 -7 1419 -17.5 c 128,-1,30
 1395 -28 1395 -28 1369 -28 c 0,31,32
 1336 -28 1336 -28 1294.5 -2 c 128,-1,33
 1253 24 1253 24 1216 62 c 2,34,-1
 1142 139 l 1,35,36
 1060 64 1060 64 940.5 21.5 c 128,-1,37
 821 -21 821 -21 676 -21 c 0,38,39
 601 -21 601 -21 527 -10 c 128,-1,40
 453 1 453 1 386 23.5 c 128,-1,41
 319 46 319 46 261.5 80.5 c 128,-1,42
 204 115 204 115 162 163 c 128,-1,43
 120 211 120 211 96 272 c 128,-1,44
 72 333 72 333 72 408 c 0,45,46
 72 480 72 480 99 541.5 c 128,-1,47
 126 603 126 603 175 655 c 128,-1,48
 224 707 224 707 293 751 c 128,-1,49
 362 795 362 795 446 833 c 1,50,51
 402 869 402 869 362.5 909.5 c 128,-1,52
 323 950 323 950 293.5 994.5 c 128,-1,53
 264 1039 264 1039 246.5 1086 c 128,-1,54
 229 1133 229 1133 229 1182 c 0,55,56
 229 1264 229 1264 267 1325.5 c 128,-1,57
 305 1387 305 1387 368.5 1428 c 128,-1,58
 432 1469 432 1469 515.5 1490 c 128,-1,59
 599 1511 599 1511 691 1511 c 0,60,61
 773 1511 773 1511 856 1492.5 c 128,-1,62
 939 1474 939 1474 1005 1435 c 128,-1,63
 1071 1396 1071 1396 1112.5 1335.5 c 128,-1,64
 1154 1275 1154 1275 1154 1191 c 0,65,66
 1154 1138 1154 1138 1133 1086.5 c 128,-1,67
 1112 1035 1112 1035 1074.5 987 c 128,-1,68
 1037 939 1037 939 986 894 c 128,-1,69
 935 849 935 849 874 808 c 1,70,71
 938 742 938 742 1001 677 c 128,-1,72
 1064 612 1064 612 1127 546 c 1,73,74
 1158 553 1158 553 1183.5 563 c 128,-1,75
 1209 573 1209 573 1232 581 c 1,0,1
629 664 m 1,76,77
 590 646 590 646 549.5 617.5 c 128,-1,78
 509 589 509 589 476 555.5 c 128,-1,79
 443 522 443 522 422 486 c 128,-1,80
 401 450 401 450 401 416 c 0,81,82
 401 360 401 360 423 317 c 128,-1,83
 445 274 445 274 483.5 244.5 c 128,-1,84
 522 215 522 215 573 200 c 128,-1,85
 624 185 624 185 681 185 c 0,86,87
 766 185 766 185 837.5 215.5 c 128,-1,88
 909 246 909 246 977 300 c 1,89,-1
 629 664 l 1,76,77
537 1193 m 0,90,91
 537 1163 537 1163 550 1132 c 128,-1,92
 563 1101 563 1101 584 1071 c 128,-1,93
 605 1041 605 1041 631.5 1014 c 128,-1,94
 658 987 658 987 684 965 c 1,95,96
 716 991 716 991 746.5 1018 c 128,-1,97
 777 1045 777 1045 800.5 1073.5 c 128,-1,98
 824 1102 824 1102 838.5 1131.5 c 128,-1,99
 853 1161 853 1161 853 1193 c 0,100,101
 853 1224 853 1224 839.5 1247 c 128,-1,102
 826 1270 826 1270 804.5 1285 c 128,-1,103
 783 1300 783 1300 755 1307.5 c 128,-1,104
 727 1315 727 1315 697 1315 c 0,105,106
 668 1315 668 1315 639 1308.5 c 128,-1,107
 610 1302 610 1302 587.5 1287 c 128,-1,108
 565 1272 565 1272 551 1249 c 128,-1,109
 537 1226 537 1226 537 1193 c 0,90,91
EndSplineSet
EndChar

StartChar: quoteright
Encoding: 8217 8217 8
Width: 649
Flags: W
LayerCount: 2
Fore
SplineSet
379 930 m 1,0,-1
 106 930 l 1,1,-1
 223 1451 l 1,2,-1
 552 1451 l 1,3,-1
 379 930 l 1,0,-1
EndSplineSet
EndChar

StartChar: parenleft
Encoding: 40 40 9
Width: 689
Flags: W
LayerCount: 2
Fore
SplineSet
336 -172 m 0,0,1
 251 27 251 27 200 217.5 c 128,-1,2
 149 408 149 408 149 601 c 0,3,4
 149 691 149 691 160.5 780.5 c 128,-1,5
 172 870 172 870 193 959.5 c 128,-1,6
 214 1049 214 1049 242.5 1139.5 c 128,-1,7
 271 1230 271 1230 306 1322 c 0,8,9
 319 1358 319 1358 336 1388.5 c 128,-1,10
 353 1419 353 1419 373 1441.5 c 128,-1,11
 393 1464 393 1464 416 1477 c 128,-1,12
 439 1490 439 1490 466 1490 c 0,13,14
 491 1490 491 1490 513 1481.5 c 128,-1,15
 535 1473 535 1473 551.5 1456.5 c 128,-1,16
 568 1440 568 1440 577.5 1417 c 128,-1,17
 587 1394 587 1394 587 1365 c 0,18,19
 587 1345 587 1345 581 1321 c 128,-1,20
 575 1297 575 1297 567 1274 c 0,21,22
 512 1106 512 1106 482 939.5 c 128,-1,23
 452 773 452 773 452 604 c 0,24,25
 452 443 452 443 480 283 c 128,-1,26
 508 123 508 123 562 -42 c 0,27,28
 570 -66 570 -66 576.5 -89.5 c 128,-1,29
 583 -113 583 -113 583 -134 c 0,30,31
 583 -162 583 -162 574 -185 c 128,-1,32
 565 -208 565 -208 549 -224.5 c 128,-1,33
 533 -241 533 -241 511 -250 c 128,-1,34
 489 -259 489 -259 464 -259 c 0,35,36
 447 -259 447 -259 428.5 -254.5 c 128,-1,37
 410 -250 410 -250 393 -240 c 128,-1,38
 376 -230 376 -230 361 -213.5 c 128,-1,39
 346 -197 346 -197 336 -172 c 0,0,1
EndSplineSet
EndChar

StartChar: parenright
Encoding: 41 41 10
Width: 689
Flags: W
LayerCount: 2
Fore
SplineSet
360 -172 m 0,0,1
 350 -197 350 -197 334.5 -214 c 128,-1,2
 319 -231 319 -231 301 -241 c 128,-1,3
 283 -251 283 -251 264 -255.5 c 128,-1,4
 245 -260 245 -260 228 -260 c 0,5,6
 203 -260 203 -260 182 -251 c 128,-1,7
 161 -242 161 -242 145.5 -225.5 c 128,-1,8
 130 -209 130 -209 121.5 -186 c 128,-1,9
 113 -163 113 -163 113 -136 c 0,10,11
 113 -114 113 -114 120 -90.5 c 128,-1,12
 127 -67 127 -67 135 -43 c 0,13,14
 189 117 189 117 217 279.5 c 128,-1,15
 245 442 245 442 245 606 c 0,16,17
 245 772 245 772 215 938.5 c 128,-1,18
 185 1105 185 1105 130 1274 c 0,19,20
 122 1297 122 1297 116 1320 c 128,-1,21
 110 1343 110 1343 110 1366 c 0,22,23
 110 1392 110 1392 119.5 1415 c 128,-1,24
 129 1438 129 1438 145.5 1454.5 c 128,-1,25
 162 1471 162 1471 184 1480.5 c 128,-1,26
 206 1490 206 1490 232 1490 c 256,27,28
 258 1490 258 1490 281 1477 c 128,-1,29
 304 1464 304 1464 323.5 1441.5 c 128,-1,30
 343 1419 343 1419 359.5 1388.5 c 128,-1,31
 376 1358 376 1358 390 1322 c 0,32,33
 459 1137 459 1137 503.5 957.5 c 128,-1,34
 548 778 548 778 548 600 c 0,35,36
 548 503 548 503 534.5 407 c 128,-1,37
 521 311 521 311 496 215 c 128,-1,38
 471 119 471 119 436.5 22.5 c 128,-1,39
 402 -74 402 -74 360 -172 c 0,0,1
EndSplineSet
EndChar

StartChar: asterisk
Encoding: 42 42 11
Width: 958
Flags: W
LayerCount: 2
Fore
SplineSet
600 1183 m 1,0,1
 645 1184 645 1184 688 1186 c 128,-1,2
 731 1188 731 1188 776 1188 c 0,3,4
 805 1188 805 1188 826.5 1167.5 c 128,-1,5
 848 1147 848 1147 848 1116 c 0,6,7
 848 1086 848 1086 827 1065.5 c 128,-1,8
 806 1045 806 1045 776 1045 c 0,9,10
 731 1045 731 1045 687.5 1047 c 128,-1,11
 644 1049 644 1049 599 1049 c 1,12,-1
 666 940 l 2,13,14
 678 920 678 920 688 899 c 128,-1,15
 698 878 698 878 698 862 c 0,16,17
 698 834 698 834 677 813 c 128,-1,18
 656 792 656 792 626 792 c 0,19,20
 599 792 599 792 582.5 808.5 c 128,-1,21
 566 825 566 825 553 848 c 2,22,-1
 477 985 l 1,23,-1
 403 848 l 2,24,25
 391 825 391 825 373.5 808.5 c 128,-1,26
 356 792 356 792 328 792 c 0,27,28
 299 792 299 792 278 813 c 128,-1,29
 257 834 257 834 257 863 c 1,30,31
 256 877 256 877 262.5 891.5 c 128,-1,32
 269 906 269 906 278 920 c 2,33,-1
 357 1049 l 1,34,35
 312 1048 312 1048 269 1046.5 c 128,-1,36
 226 1045 226 1045 182 1045 c 0,37,38
 153 1045 153 1045 131 1066 c 128,-1,39
 109 1087 109 1087 109 1116 c 0,40,41
 109 1147 109 1147 130 1167.5 c 128,-1,42
 151 1188 151 1188 182 1188 c 0,43,44
 225 1188 225 1188 268 1185.5 c 128,-1,45
 311 1183 311 1183 355 1183 c 1,46,-1
 282 1303 l 2,47,48
 272 1318 272 1318 263 1334 c 128,-1,49
 254 1350 254 1350 254 1368 c 0,50,51
 254 1396 254 1396 274 1418.5 c 128,-1,52
 294 1441 294 1441 327 1441 c 0,53,54
 349 1441 349 1441 366.5 1428.5 c 128,-1,55
 384 1416 384 1416 396 1394 c 2,56,-1
 477 1243 l 1,57,-1
 554 1384 l 1,58,59
 565 1407 565 1407 583 1423.5 c 128,-1,60
 601 1440 601 1440 630 1440 c 256,61,62
 659 1440 659 1440 679 1419 c 128,-1,63
 699 1398 699 1398 699 1369 c 0,64,65
 699 1355 699 1355 693 1340 c 128,-1,66
 687 1325 687 1325 679 1313 c 2,67,-1
 600 1183 l 1,0,1
EndSplineSet
EndChar

StartChar: plus
Encoding: 43 43 12
Width: 1287
Flags: W
LayerCount: 2
Fore
SplineSet
746 608 m 1,0,-1
 1026 608 l 2,1,2
 1047 608 1047 608 1070.5 603.5 c 128,-1,3
 1094 599 1094 599 1113.5 588 c 128,-1,4
 1133 577 1133 577 1146 557 c 128,-1,5
 1159 537 1159 537 1159 507 c 0,6,7
 1159 480 1159 480 1148 460.5 c 128,-1,8
 1137 441 1137 441 1118.5 428.5 c 128,-1,9
 1100 416 1100 416 1076 410.5 c 128,-1,10
 1052 405 1052 405 1026 405 c 2,11,-1
 746 405 l 1,12,-1
 746 134 l 2,13,14
 746 113 746 113 741.5 89.5 c 128,-1,15
 737 66 737 66 726 46.5 c 128,-1,16
 715 27 715 27 694.5 14.5 c 128,-1,17
 674 2 674 2 643 2 c 0,18,19
 589 2 589 2 564.5 39 c 128,-1,20
 540 76 540 76 540 134 c 2,21,-1
 540 405 l 1,22,-1
 261 405 l 2,23,24
 239 405 239 405 215.5 409.5 c 128,-1,25
 192 414 192 414 172.5 425 c 128,-1,26
 153 436 153 436 140.5 456 c 128,-1,27
 128 476 128 476 128 507 c 0,28,29
 128 533 128 533 138.5 552 c 128,-1,30
 149 571 149 571 167 583.5 c 128,-1,31
 185 596 185 596 209 602 c 128,-1,32
 233 608 233 608 261 608 c 2,33,-1
 540 608 l 1,34,-1
 540 880 l 2,35,36
 540 901 540 901 544 924.5 c 128,-1,37
 548 948 548 948 559 967.5 c 128,-1,38
 570 987 570 987 590.5 1000 c 128,-1,39
 611 1013 611 1013 643 1013 c 0,40,41
 671 1013 671 1013 690.5 1002 c 128,-1,42
 710 991 710 991 722.5 972 c 128,-1,43
 735 953 735 953 740.5 929 c 128,-1,44
 746 905 746 905 746 880 c 2,45,-1
 746 608 l 1,0,-1
EndSplineSet
EndChar

StartChar: comma
Encoding: 44 44 13
Width: 649
Flags: W
LayerCount: 2
Fore
SplineSet
341 -223 m 1,0,-1
 68 -223 l 1,1,-1
 184 298 l 1,2,-1
 514 298 l 1,3,-1
 341 -223 l 1,0,-1
EndSplineSet
EndChar

StartChar: hyphen
Encoding: 45 45 14
Width: 709
Flags: W
LayerCount: 2
Fore
SplineSet
166 417 m 2,0,1
 142 417 142 417 119.5 426 c 128,-1,2
 97 435 97 435 80.5 451 c 128,-1,3
 64 467 64 467 54 488.5 c 128,-1,4
 44 510 44 510 44 536 c 0,5,6
 44 594 44 594 84.5 625 c 128,-1,7
 125 656 125 656 189 656 c 2,8,-1
 520 656 l 2,9,10
 542 656 542 656 567.5 650.5 c 128,-1,11
 593 645 593 645 614.5 631.5 c 128,-1,12
 636 618 636 618 650.5 595 c 128,-1,13
 665 572 665 572 665 536 c 0,14,15
 665 504 665 504 652.5 481.5 c 128,-1,16
 640 459 640 459 620 445 c 128,-1,17
 600 431 600 431 574 424 c 128,-1,18
 548 417 548 417 520 417 c 2,19,-1
 166 417 l 2,0,1
EndSplineSet
EndChar

StartChar: period
Encoding: 46 46 15
Width: 649
Flags: W
LayerCount: 2
Fore
SplineSet
155 158 m 0,0,1
 155 191 155 191 167.5 220.5 c 128,-1,2
 180 250 180 250 202.5 272.5 c 128,-1,3
 225 295 225 295 256 308.5 c 128,-1,4
 287 322 287 322 324 322 c 0,5,6
 357 322 357 322 387.5 310 c 128,-1,7
 418 298 418 298 441.5 276.5 c 128,-1,8
 465 255 465 255 479 225 c 128,-1,9
 493 195 493 195 493 158 c 0,10,11
 493 125 493 125 480 95 c 128,-1,12
 467 65 467 65 444.5 42.5 c 128,-1,13
 422 20 422 20 391 7 c 128,-1,14
 360 -6 360 -6 324 -6 c 0,15,16
 289 -6 289 -6 258.5 6.5 c 128,-1,17
 228 19 228 19 205 41 c 128,-1,18
 182 63 182 63 168.5 93 c 128,-1,19
 155 123 155 123 155 158 c 0,0,1
EndSplineSet
EndChar

StartChar: slash
Encoding: 47 47 16
Width: 669
Flags: W
LayerCount: 2
Fore
SplineSet
199 -40 m 0,0,1
 186 -78 186 -78 159.5 -93 c 128,-1,2
 133 -108 133 -108 105 -108 c 0,3,4
 87 -108 87 -108 68.5 -102 c 128,-1,5
 50 -96 50 -96 34.5 -84 c 128,-1,6
 19 -72 19 -72 9.5 -55 c 128,-1,7
 0 -38 0 -38 0 -15 c 0,8,9
 0 5 0 5 8.5 30.5 c 128,-1,10
 17 56 17 56 25 81 c 0,11,12
 131 399 131 399 237 712.5 c 128,-1,13
 343 1026 343 1026 449 1344 c 0,14,15
 457 1369 457 1369 467.5 1391.5 c 128,-1,16
 478 1414 478 1414 492 1431.5 c 128,-1,17
 506 1449 506 1449 523.5 1459 c 128,-1,18
 541 1469 541 1469 564 1469 c 0,19,20
 584 1469 584 1469 602.5 1463 c 128,-1,21
 621 1457 621 1457 635.5 1444.5 c 128,-1,22
 650 1432 650 1432 658.5 1413.5 c 128,-1,23
 667 1395 667 1395 667 1370 c 0,24,25
 667 1350 667 1350 659.5 1325.5 c 128,-1,26
 652 1301 652 1301 644 1279 c 0,27,28
 532 947 532 947 421.5 619.5 c 128,-1,29
 311 292 311 292 199 -40 c 0,0,1
EndSplineSet
EndChar

StartChar: zero
Encoding: 48 48 17
Width: 1299
Flags: W
LayerCount: 2
Fore
SplineSet
649 1212 m 256,0,1
 580 1212 580 1212 537 1175.5 c 128,-1,2
 494 1139 494 1139 470.5 1072.5 c 128,-1,3
 447 1006 447 1006 438.5 914 c 128,-1,4
 430 822 430 822 430 711 c 256,5,6
 430 600 430 600 438.5 508 c 128,-1,7
 447 416 447 416 470.5 350 c 128,-1,8
 494 284 494 284 537 248 c 128,-1,9
 580 212 580 212 649 212 c 0,10,11
 717 212 717 212 760 248 c 128,-1,12
 803 284 803 284 827 349 c 128,-1,13
 851 414 851 414 860 506 c 128,-1,14
 869 598 869 598 869 711 c 0,15,16
 869 821 869 821 860.5 913 c 128,-1,17
 852 1005 852 1005 828 1071.5 c 128,-1,18
 804 1138 804 1138 761 1175 c 128,-1,19
 718 1212 718 1212 649 1212 c 256,0,1
649 1457 m 0,20,21
 807 1457 807 1457 917 1398.5 c 128,-1,22
 1027 1340 1027 1340 1095.5 1239 c 128,-1,23
 1164 1138 1164 1138 1195 1002 c 128,-1,24
 1226 866 1226 866 1226 711 c 0,25,26
 1226 609 1226 609 1213 514.5 c 128,-1,27
 1200 420 1200 420 1171.5 337 c 128,-1,28
 1143 254 1143 254 1098 185.5 c 128,-1,29
 1053 117 1053 117 989 68 c 128,-1,30
 925 19 925 19 840.5 -8 c 128,-1,31
 756 -35 756 -35 649 -35 c 0,32,33
 489 -35 489 -35 379 23.5 c 128,-1,34
 269 82 269 82 200.5 183.5 c 128,-1,35
 132 285 132 285 102 420.5 c 128,-1,36
 72 556 72 556 72 711 c 0,37,38
 72 811 72 811 84.5 905 c 128,-1,39
 97 999 97 999 125 1082 c 128,-1,40
 153 1165 153 1165 197.5 1234 c 128,-1,41
 242 1303 242 1303 306 1352.5 c 128,-1,42
 370 1402 370 1402 455 1429.5 c 128,-1,43
 540 1457 540 1457 649 1457 c 0,20,21
EndSplineSet
EndChar

StartChar: one
Encoding: 49 49 18
Width: 1299
Flags: W
LayerCount: 2
Fore
SplineSet
353 969 m 1,0,1
 321 952 321 952 291 952 c 0,2,3
 265 952 265 952 243 962.5 c 128,-1,4
 221 973 221 973 205 990 c 128,-1,5
 189 1007 189 1007 180 1029.5 c 128,-1,6
 171 1052 171 1052 171 1076 c 0,7,8
 171 1112 171 1112 190.5 1138 c 128,-1,9
 210 1164 210 1164 252 1190 c 1,10,-1
 584 1379 l 2,11,12
 613 1396 613 1396 645 1410 c 128,-1,13
 677 1424 677 1424 712 1424 c 0,14,15
 801 1424 801 1424 842.5 1360.5 c 128,-1,16
 884 1297 884 1297 884 1178 c 2,17,-1
 884 241 l 2,18,19
 884 192 884 192 876 148.5 c 128,-1,20
 868 105 868 105 847.5 72 c 128,-1,21
 827 39 827 39 792 20 c 128,-1,22
 757 1 757 1 703 1 c 0,23,24
 609 1 609 1 567 67 c 128,-1,25
 525 133 525 133 525 264 c 2,26,-1
 525 1074 l 1,27,-1
 353 969 l 1,0,1
EndSplineSet
EndChar

StartChar: two
Encoding: 50 50 19
Width: 1299
Flags: W
LayerCount: 2
Fore
SplineSet
601 1196 m 0,0,1
 564 1196 564 1196 526 1189.5 c 128,-1,2
 488 1183 488 1183 451.5 1173 c 128,-1,3
 415 1163 415 1163 380 1150 c 128,-1,4
 345 1137 345 1137 314 1125 c 0,5,6
 288 1115 288 1115 265 1115 c 0,7,8
 239 1115 239 1115 217.5 1125 c 128,-1,9
 196 1135 196 1135 180.5 1152.5 c 128,-1,10
 165 1170 165 1170 156 1193 c 128,-1,11
 147 1216 147 1216 147 1242 c 0,12,13
 147 1278 147 1278 168 1312 c 128,-1,14
 189 1346 189 1346 238 1367 c 0,15,16
 288 1388 288 1388 341.5 1405.5 c 128,-1,17
 395 1423 395 1423 449 1435.5 c 128,-1,18
 503 1448 503 1448 555.5 1455 c 128,-1,19
 608 1462 608 1462 656 1462 c 0,20,21
 764 1462 764 1462 855 1436.5 c 128,-1,22
 946 1411 946 1411 1012 1362.5 c 128,-1,23
 1078 1314 1078 1314 1115.5 1242.5 c 128,-1,24
 1153 1171 1153 1171 1153 1078 c 0,25,26
 1153 973 1153 973 1101 864 c 128,-1,27
 1049 755 1049 755 962.5 649.5 c 128,-1,28
 876 544 876 544 764 445 c 128,-1,29
 652 346 652 346 532 259 c 1,30,-1
 967 259 l 2,31,32
 1006 259 1006 259 1041.5 252.5 c 128,-1,33
 1077 246 1077 246 1104 231 c 128,-1,34
 1131 216 1131 216 1147.5 191.5 c 128,-1,35
 1164 167 1164 167 1164 131 c 0,36,37
 1164 66 1164 66 1127 33 c 128,-1,38
 1090 0 1090 0 1021 0 c 2,39,-1
 277 0 l 2,40,41
 241 0 241 0 209 7 c 128,-1,42
 177 14 177 14 153.5 30.5 c 128,-1,43
 130 47 130 47 116.5 74.5 c 128,-1,44
 103 102 103 102 103 142 c 0,45,46
 103 243 103 243 194 320 c 2,47,-1
 340 444 l 2,48,49
 370 470 370 470 399 494.5 c 128,-1,50
 428 519 428 519 449 539 c 2,51,-1
 489 577 l 1,52,53
 561 643 561 643 620 707.5 c 128,-1,54
 679 772 679 772 721 832 c 128,-1,55
 763 892 763 892 786 945 c 128,-1,56
 809 998 809 998 809 1042 c 0,57,58
 809 1081 809 1081 792 1109.5 c 128,-1,59
 775 1138 775 1138 746.5 1157.5 c 128,-1,60
 718 1177 718 1177 680 1186.5 c 128,-1,61
 642 1196 642 1196 601 1196 c 0,0,1
EndSplineSet
EndChar

StartChar: three
Encoding: 51 51 20
Width: 1299
Flags: W
LayerCount: 2
Fore
SplineSet
566 857 m 2,0,1
 617 857 617 857 661 868 c 128,-1,2
 705 879 705 879 737.5 902.5 c 128,-1,3
 770 926 770 926 789 961.5 c 128,-1,4
 808 997 808 997 808 1045 c 0,5,6
 808 1088 808 1088 790 1120.5 c 128,-1,7
 772 1153 772 1153 741 1175 c 128,-1,8
 710 1197 710 1197 668.5 1207.5 c 128,-1,9
 627 1218 627 1218 581 1218 c 0,10,11
 542 1218 542 1218 499 1212.5 c 128,-1,12
 456 1207 456 1207 416 1199 c 2,13,-1
 358 1188 l 2,14,15
 335 1183 335 1183 322.5 1180.5 c 128,-1,16
 310 1178 310 1178 297 1178 c 0,17,18
 241 1178 241 1178 205.5 1211 c 128,-1,19
 170 1244 170 1244 170 1295 c 0,20,21
 170 1380 170 1380 279 1431.5 c 128,-1,22
 388 1483 388 1483 614 1483 c 0,23,24
 744 1483 744 1483 845 1454.5 c 128,-1,25
 946 1426 946 1426 1015.5 1374 c 128,-1,26
 1085 1322 1085 1322 1121 1249 c 128,-1,27
 1157 1176 1157 1176 1157 1088 c 0,28,29
 1157 1026 1157 1026 1136.5 971.5 c 128,-1,30
 1116 917 1116 917 1081.5 874 c 128,-1,31
 1047 831 1047 831 1000.5 802 c 128,-1,32
 954 773 954 773 902 763 c 1,33,-1
 902 759 l 1,34,35
 971 748 971 748 1024.5 717.5 c 128,-1,36
 1078 687 1078 687 1114.5 641.5 c 128,-1,37
 1151 596 1151 596 1169.5 536 c 128,-1,38
 1188 476 1188 476 1188 407 c 0,39,40
 1188 298 1188 298 1144 219 c 128,-1,41
 1100 140 1100 140 1024 89 c 128,-1,42
 948 38 948 38 845.5 14 c 128,-1,43
 743 -10 743 -10 625 -10 c 0,44,45
 587 -10 587 -10 545 -5.5 c 128,-1,46
 503 -1 503 -1 458.5 7 c 128,-1,47
 414 15 414 15 370 27.5 c 128,-1,48
 326 40 326 40 286 55 c 0,49,50
 231 75 231 75 199 108 c 128,-1,51
 167 141 167 141 167 189 c 0,52,53
 167 213 167 213 176.5 235 c 128,-1,54
 186 257 186 257 203 273 c 128,-1,55
 220 289 220 289 245 298.5 c 128,-1,56
 270 308 270 308 300 308 c 2,57,-1
 309 308 l 1,58,59
 331 302 331 302 361.5 293 c 128,-1,60
 392 284 392 284 428.5 275 c 128,-1,61
 465 266 465 266 505.5 259.5 c 128,-1,62
 546 253 546 253 587 253 c 0,63,64
 638 253 638 253 681.5 262.5 c 128,-1,65
 725 272 725 272 757.5 293 c 128,-1,66
 790 314 790 314 808.5 348 c 128,-1,67
 827 382 827 382 827 431 c 0,68,69
 827 528 827 528 758 581 c 128,-1,70
 689 634 689 634 563 634 c 2,71,-1
 492 634 l 2,72,73
 440 634 440 634 412 666.5 c 128,-1,74
 384 699 384 699 384 744 c 0,75,76
 384 765 384 765 391 785.5 c 128,-1,77
 398 806 398 806 411.5 821.5 c 128,-1,78
 425 837 425 837 445 847 c 128,-1,79
 465 857 465 857 492 857 c 2,80,-1
 566 857 l 2,0,1
EndSplineSet
EndChar

StartChar: four
Encoding: 52 52 21
Width: 1299
Flags: W
LayerCount: 2
Fore
SplineSet
505 1249 m 1,0,1
 533 1303 533 1303 565.5 1339 c 128,-1,2
 598 1375 598 1375 636 1396.5 c 128,-1,3
 674 1418 674 1418 717 1426.5 c 128,-1,4
 760 1435 760 1435 809 1435 c 0,5,6
 873 1435 873 1435 919 1417 c 128,-1,7
 965 1399 965 1399 995 1360.5 c 128,-1,8
 1025 1322 1025 1322 1039 1261 c 128,-1,9
 1053 1200 1053 1200 1053 1114 c 2,10,-1
 1053 521 l 1,11,-1
 1099 521 l 2,12,13
 1130 521 1130 521 1158 515 c 128,-1,14
 1186 509 1186 509 1208 494.5 c 128,-1,15
 1230 480 1230 480 1243 456.5 c 128,-1,16
 1256 433 1256 433 1256 398 c 0,17,18
 1256 337 1256 337 1216 306 c 128,-1,19
 1176 275 1176 275 1099 275 c 2,20,-1
 1052 275 l 1,21,-1
 1052 185 l 1,22,23
 1051 149 1051 149 1042.5 114 c 128,-1,24
 1034 79 1034 79 1015 52 c 128,-1,25
 996 25 996 25 964 8.5 c 128,-1,26
 932 -8 932 -8 884 -8 c 0,27,28
 796 -8 796 -8 755.5 50.5 c 128,-1,29
 715 109 715 109 713 221 c 1,30,-1
 713 275 l 1,31,-1
 209 275 l 2,32,33
 169 275 169 275 136 282.5 c 128,-1,34
 103 290 103 290 79.5 305.5 c 128,-1,35
 56 321 56 321 43 346 c 128,-1,36
 30 371 30 371 30 406 c 0,37,38
 30 426 30 426 35.5 448.5 c 128,-1,39
 41 471 41 471 55 494 c 2,40,-1
 505 1249 l 1,0,1
338 521 m 1,41,-1
 713 521 l 1,42,-1
 713 1166 l 1,43,-1
 338 521 l 1,41,-1
EndSplineSet
EndChar

StartChar: five
Encoding: 53 53 22
Width: 1299
Flags: W
LayerCount: 2
Fore
SplineSet
160 1258 m 2,0,1
 160 1310 160 1310 173 1342 c 128,-1,2
 186 1374 186 1374 213 1392 c 128,-1,3
 240 1410 240 1410 282 1416.5 c 128,-1,4
 324 1423 324 1423 382 1423 c 2,5,-1
 1025 1423 l 2,6,7
 1051 1423 1051 1423 1074 1416 c 128,-1,8
 1097 1409 1097 1409 1114.5 1394.5 c 128,-1,9
 1132 1380 1132 1380 1142 1357.5 c 128,-1,10
 1152 1335 1152 1335 1152 1303 c 0,11,12
 1152 1241 1152 1241 1114 1212 c 128,-1,13
 1076 1183 1076 1183 1006 1183 c 2,14,-1
 458 1183 l 1,15,-1
 448 824 l 1,16,17
 578 947 578 947 772 947 c 0,18,19
 867 947 867 947 947.5 913 c 128,-1,20
 1028 879 1028 879 1086.5 815.5 c 128,-1,21
 1145 752 1145 752 1178 661.5 c 128,-1,22
 1211 571 1211 571 1211 457 c 256,23,24
 1211 343 1211 343 1165.5 253.5 c 128,-1,25
 1120 164 1120 164 1041.5 102 c 128,-1,26
 963 40 963 40 857 7 c 128,-1,27
 751 -26 751 -26 631 -26 c 0,28,29
 559 -26 559 -26 483.5 -13 c 128,-1,30
 408 0 408 0 343.5 26.5 c 128,-1,31
 279 53 279 53 232 93 c 128,-1,32
 185 133 185 133 171 188 c 1,33,34
 159 213 159 213 159 237 c 0,35,36
 159 256 159 256 166 275 c 128,-1,37
 173 294 173 294 185.5 308 c 128,-1,38
 198 322 198 322 215.5 331 c 128,-1,39
 233 340 233 340 254 340 c 0,40,41
 273 340 273 340 294.5 328 c 128,-1,42
 316 316 316 316 341.5 299.5 c 128,-1,43
 367 283 367 283 395.5 265 c 128,-1,44
 424 247 424 247 456 236 c 0,45,46
 491 223 491 223 529 217 c 128,-1,47
 567 211 567 211 606 211 c 0,48,49
 659 211 659 211 704.5 226.5 c 128,-1,50
 750 242 750 242 783 274.5 c 128,-1,51
 816 307 816 307 835 356 c 128,-1,52
 854 405 854 405 854 472 c 0,53,54
 854 535 854 535 839.5 584 c 128,-1,55
 825 633 825 633 798 667 c 128,-1,56
 771 701 771 701 734 718.5 c 128,-1,57
 697 736 697 736 652 736 c 0,58,59
 601 736 601 736 566.5 722 c 128,-1,60
 532 708 532 708 507 687 c 128,-1,61
 482 666 482 666 462 641 c 128,-1,62
 442 616 442 616 419.5 595 c 128,-1,63
 397 574 397 574 368.5 560 c 128,-1,64
 340 546 340 546 297 546 c 0,65,66
 234 546 234 546 197 586.5 c 128,-1,67
 160 627 160 627 160 712 c 2,68,-1
 160 1258 l 2,0,1
EndSplineSet
EndChar

StartChar: six
Encoding: 54 54 23
Width: 1299
Flags: W
LayerCount: 2
Fore
SplineSet
1069 1389 m 0,0,1
 1104 1373 1104 1373 1120.5 1344.5 c 128,-1,2
 1137 1316 1137 1316 1137 1284 c 0,3,4
 1137 1260 1137 1260 1128.5 1236.5 c 128,-1,5
 1120 1213 1120 1213 1104.5 1194.5 c 128,-1,6
 1089 1176 1089 1176 1067.5 1165 c 128,-1,7
 1046 1154 1046 1154 1021 1154 c 0,8,9
 1012 1154 1012 1154 1007 1155 c 0,10,11
 975 1162 975 1162 943.5 1171 c 128,-1,12
 912 1180 912 1180 880.5 1187.5 c 128,-1,13
 849 1195 849 1195 818.5 1200 c 128,-1,14
 788 1205 788 1205 760 1205 c 0,15,16
 665 1205 665 1205 599.5 1172 c 128,-1,17
 534 1139 534 1139 494 1080 c 128,-1,18
 454 1021 454 1021 436.5 939.5 c 128,-1,19
 419 858 419 858 419 760 c 1,20,-1
 421 758 l 1,21,22
 448 803 448 803 485.5 834 c 128,-1,23
 523 865 523 865 567.5 884.5 c 128,-1,24
 612 904 612 904 662 912.5 c 128,-1,25
 712 921 712 921 765 921 c 0,26,27
 861 921 861 921 945 890.5 c 128,-1,28
 1029 860 1029 860 1091 802 c 128,-1,29
 1153 744 1153 744 1189 659.5 c 128,-1,30
 1225 575 1225 575 1225 466 c 0,31,32
 1225 355 1225 355 1186 262.5 c 128,-1,33
 1147 170 1147 170 1075 104 c 128,-1,34
 1003 38 1003 38 900.5 1.5 c 128,-1,35
 798 -35 798 -35 670 -35 c 0,36,37
 513 -35 513 -35 400.5 15.5 c 128,-1,38
 288 66 288 66 215.5 157.5 c 128,-1,39
 143 249 143 249 108.5 376 c 128,-1,40
 74 503 74 503 74 656 c 0,41,42
 74 767 74 767 88.5 869.5 c 128,-1,43
 103 972 103 972 134.5 1061 c 128,-1,44
 166 1150 166 1150 217.5 1223 c 128,-1,45
 269 1296 269 1296 343 1348 c 128,-1,46
 417 1400 417 1400 515.5 1428.5 c 128,-1,47
 614 1457 614 1457 741 1457 c 0,48,49
 818 1457 818 1457 904.5 1440.5 c 128,-1,50
 991 1424 991 1424 1069 1389 c 0,0,1
670 199 m 0,51,52
 779 199 779 199 837.5 265 c 128,-1,53
 896 331 896 331 896 456 c 0,54,55
 896 514 896 514 883 562.5 c 128,-1,56
 870 611 870 611 843.5 646 c 128,-1,57
 817 681 817 681 777 700 c 128,-1,58
 737 719 737 719 682 719 c 0,59,60
 566 719 566 719 505.5 647.5 c 128,-1,61
 445 576 445 576 445 452 c 0,62,63
 445 393 445 393 461 346 c 128,-1,64
 477 299 477 299 506.5 266.5 c 128,-1,65
 536 234 536 234 577.5 216.5 c 128,-1,66
 619 199 619 199 670 199 c 0,51,52
EndSplineSet
EndChar

StartChar: seven
Encoding: 55 55 24
Width: 1299
Flags: W
LayerCount: 2
Fore
SplineSet
677 102 m 1,0,1
 651 50 651 50 609.5 25 c 128,-1,2
 568 0 568 0 521 0 c 0,3,4
 487 0 487 0 456 11.5 c 128,-1,5
 425 23 425 23 401 44 c 128,-1,6
 377 65 377 65 362.5 94 c 128,-1,7
 348 123 348 123 348 157 c 0,8,9
 348 194 348 194 364 236.5 c 128,-1,10
 380 279 380 279 400 321 c 2,11,-1
 803 1164 l 1,12,-1
 275 1164 l 2,13,14
 236 1164 236 1164 203.5 1171 c 128,-1,15
 171 1178 171 1178 147 1193.5 c 128,-1,16
 123 1209 123 1209 110 1233.5 c 128,-1,17
 97 1258 97 1258 97 1293 c 0,18,19
 97 1423 97 1423 276 1423 c 2,20,-1
 949 1423 l 2,21,22
 1000 1423 1000 1423 1042 1417.5 c 128,-1,23
 1084 1412 1084 1412 1114 1396.5 c 128,-1,24
 1144 1381 1144 1381 1160.5 1353.5 c 128,-1,25
 1177 1326 1177 1326 1177 1282 c 0,26,27
 1177 1229 1177 1229 1153.5 1162 c 128,-1,28
 1130 1095 1130 1095 1099 1027 c 2,29,-1
 677 102 l 1,0,1
EndSplineSet
EndChar

StartChar: eight
Encoding: 56 56 25
Width: 1299
Flags: W
LayerCount: 2
Fore
SplineSet
372 733 m 1,0,1
 311 742 311 742 261 768 c 128,-1,2
 211 794 211 794 175 834.5 c 128,-1,3
 139 875 139 875 119.5 929.5 c 128,-1,4
 100 984 100 984 100 1050 c 0,5,6
 100 1144 100 1144 138.5 1219.5 c 128,-1,7
 177 1295 177 1295 248.5 1348 c 128,-1,8
 320 1401 320 1401 421.5 1429 c 128,-1,9
 523 1457 523 1457 648 1457 c 0,10,11
 770 1457 770 1457 872 1430.5 c 128,-1,12
 974 1404 974 1404 1047 1352 c 128,-1,13
 1120 1300 1120 1300 1160.5 1224.5 c 128,-1,14
 1201 1149 1201 1149 1201 1050 c 0,15,16
 1201 984 1201 984 1181 931 c 128,-1,17
 1161 878 1161 878 1125 838 c 128,-1,18
 1089 798 1089 798 1038 772 c 128,-1,19
 987 746 987 746 926 733 c 1,20,-1
 926 731 l 1,21,22
 1070 696 1070 696 1148.5 608.5 c 128,-1,23
 1227 521 1227 521 1227 378 c 0,24,25
 1227 287 1227 287 1189.5 211 c 128,-1,26
 1152 135 1152 135 1079 80.5 c 128,-1,27
 1006 26 1006 26 897.5 -4.5 c 128,-1,28
 789 -35 789 -35 648 -35 c 0,29,30
 504 -35 504 -35 396 -4 c 128,-1,31
 288 27 288 27 216 82 c 128,-1,32
 144 137 144 137 108 212.5 c 128,-1,33
 72 288 72 288 72 378 c 0,34,35
 72 442 72 442 90.5 499 c 128,-1,36
 109 556 109 556 146.5 602 c 128,-1,37
 184 648 184 648 240.5 681 c 128,-1,38
 297 714 297 714 372 729 c 1,39,-1
 372 733 l 1,0,1
439 1036 m 0,40,41
 439 986 439 986 454.5 949.5 c 128,-1,42
 470 913 470 913 498 889.5 c 128,-1,43
 526 866 526 866 564.5 855 c 128,-1,44
 603 844 603 844 650 844 c 256,45,46
 697 844 697 844 736 855 c 128,-1,47
 775 866 775 866 802.5 889.5 c 128,-1,48
 830 913 830 913 845.5 949 c 128,-1,49
 861 985 861 985 861 1036 c 0,50,51
 861 1088 861 1088 843.5 1124.5 c 128,-1,52
 826 1161 826 1161 797 1184 c 128,-1,53
 768 1207 768 1207 730 1218 c 128,-1,54
 692 1229 692 1229 650 1229 c 256,55,56
 608 1229 608 1229 570 1218 c 128,-1,57
 532 1207 532 1207 502.5 1184 c 128,-1,58
 473 1161 473 1161 456 1124 c 128,-1,59
 439 1087 439 1087 439 1036 c 0,40,41
423 410 m 256,60,61
 423 354 423 354 440.5 314.5 c 128,-1,62
 458 275 458 275 489 249 c 128,-1,63
 520 223 520 223 561 211 c 128,-1,64
 602 199 602 199 650 199 c 0,65,66
 692 199 692 199 732.5 210 c 128,-1,67
 773 221 773 221 805 246 c 128,-1,68
 837 271 837 271 856.5 311 c 128,-1,69
 876 351 876 351 876 410 c 0,70,71
 876 463 876 463 858.5 503 c 128,-1,72
 841 543 841 543 811 569.5 c 128,-1,73
 781 596 781 596 739.5 609 c 128,-1,74
 698 622 698 622 650 622 c 0,75,76
 604 622 604 622 563 610 c 128,-1,77
 522 598 522 598 491 572.5 c 128,-1,78
 460 547 460 547 441.5 506.5 c 128,-1,79
 423 466 423 466 423 410 c 256,60,61
EndSplineSet
EndChar

StartChar: nine
Encoding: 57 57 26
Width: 1299
Flags: W
LayerCount: 2
Fore
SplineSet
229 33 m 1,0,1
 194 47 194 47 177.5 75 c 128,-1,2
 161 103 161 103 161 138 c 0,3,4
 161 190 161 190 195 224.5 c 128,-1,5
 229 259 229 259 286 259 c 0,6,7
 316 259 316 259 348.5 253 c 128,-1,8
 381 247 381 247 414.5 239.5 c 128,-1,9
 448 232 448 232 482 226 c 128,-1,10
 516 220 516 220 548 220 c 0,11,12
 638 220 638 220 701.5 252.5 c 128,-1,13
 765 285 765 285 804.5 345.5 c 128,-1,14
 844 406 844 406 862 493 c 128,-1,15
 880 580 880 580 880 690 c 0,16,17
 880 691 880 691 879 691 c 128,-1,18
 878 691 878 691 878 692 c 1,19,20
 848 644 848 644 807.5 612 c 128,-1,21
 767 580 767 580 719.5 561.5 c 128,-1,22
 672 543 672 543 620 535.5 c 128,-1,23
 568 528 568 528 514 528 c 1,24,25
 422 532 422 532 341.5 563 c 128,-1,26
 261 594 261 594 201.5 651 c 128,-1,27
 142 708 142 708 108 791.5 c 128,-1,28
 74 875 74 875 74 984 c 0,29,30
 74 1092 74 1092 111.5 1184 c 128,-1,31
 149 1276 149 1276 220 1343 c 128,-1,32
 291 1410 291 1410 394 1447.5 c 128,-1,33
 497 1485 497 1485 628 1485 c 0,34,35
 785 1485 785 1485 898 1433.5 c 128,-1,36
 1011 1382 1011 1382 1084 1290.5 c 128,-1,37
 1157 1199 1157 1199 1191 1072 c 128,-1,38
 1225 945 1225 945 1225 794 c 0,39,40
 1225 679 1225 679 1210.5 572.5 c 128,-1,41
 1196 466 1196 466 1163.5 374 c 128,-1,42
 1131 282 1131 282 1079 206.5 c 128,-1,43
 1027 131 1027 131 953 77 c 128,-1,44
 879 23 879 23 781 -6.5 c 128,-1,45
 683 -36 683 -36 558 -36 c 0,46,47
 478 -36 478 -36 390.5 -19 c 128,-1,48
 303 -2 303 -2 229 33 c 1,0,1
629 1252 m 0,49,50
 520 1252 520 1252 461.5 1185.5 c 128,-1,51
 403 1119 403 1119 403 994 c 0,52,53
 403 935 403 935 416 886.5 c 128,-1,54
 429 838 429 838 455 803.5 c 128,-1,55
 481 769 481 769 521.5 750 c 128,-1,56
 562 731 562 731 616 731 c 0,57,58
 731 731 731 731 792.5 801 c 128,-1,59
 854 871 854 871 854 998 c 0,60,61
 854 1056 854 1056 837.5 1103 c 128,-1,62
 821 1150 821 1150 791 1183 c 128,-1,63
 761 1216 761 1216 719.5 1234 c 128,-1,64
 678 1252 678 1252 629 1252 c 0,49,50
EndSplineSet
EndChar

StartChar: colon
Encoding: 58 58 27
Width: 649
Flags: W
LayerCount: 2
Fore
SplineSet
155 889 m 0,0,1
 155 922 155 922 167.5 951.5 c 128,-1,2
 180 981 180 981 202.5 1003.5 c 128,-1,3
 225 1026 225 1026 256 1039.5 c 128,-1,4
 287 1053 287 1053 324 1053 c 0,5,6
 357 1053 357 1053 388 1041 c 128,-1,7
 419 1029 419 1029 442 1007 c 128,-1,8
 465 985 465 985 479 955 c 128,-1,9
 493 925 493 925 493 889 c 0,10,11
 493 856 493 856 480.5 826.5 c 128,-1,12
 468 797 468 797 445.5 774.5 c 128,-1,13
 423 752 423 752 392 739 c 128,-1,14
 361 726 361 726 324 726 c 0,15,16
 290 726 290 726 259.5 737.5 c 128,-1,17
 229 749 229 749 205.5 770.5 c 128,-1,18
 182 792 182 792 168.5 822 c 128,-1,19
 155 852 155 852 155 889 c 0,0,1
155 158 m 0,20,21
 155 191 155 191 167.5 220.5 c 128,-1,22
 180 250 180 250 202.5 272.5 c 128,-1,23
 225 295 225 295 256 308.5 c 128,-1,24
 287 322 287 322 324 322 c 0,25,26
 357 322 357 322 387.5 310 c 128,-1,27
 418 298 418 298 441.5 276.5 c 128,-1,28
 465 255 465 255 479 225 c 128,-1,29
 493 195 493 195 493 158 c 0,30,31
 493 125 493 125 480 95 c 128,-1,32
 467 65 467 65 444.5 42.5 c 128,-1,33
 422 20 422 20 391 7 c 128,-1,34
 360 -6 360 -6 324 -6 c 0,35,36
 289 -6 289 -6 258.5 6.5 c 128,-1,37
 228 19 228 19 205 41 c 128,-1,38
 182 63 182 63 168.5 93 c 128,-1,39
 155 123 155 123 155 158 c 0,20,21
EndSplineSet
EndChar

StartChar: semicolon
Encoding: 59 59 28
Width: 649
Flags: W
LayerCount: 2
Fore
SplineSet
191 901 m 0,0,1
 191 933 191 933 203.5 962.5 c 128,-1,2
 216 992 216 992 238.5 1014.5 c 128,-1,3
 261 1037 261 1037 292.5 1050.5 c 128,-1,4
 324 1064 324 1064 361 1064 c 0,5,6
 394 1064 394 1064 425 1052 c 128,-1,7
 456 1040 456 1040 479 1018 c 128,-1,8
 502 996 502 996 516 966.5 c 128,-1,9
 530 937 530 937 530 901 c 0,10,11
 530 867 530 867 517.5 837 c 128,-1,12
 505 807 505 807 482.5 784.5 c 128,-1,13
 460 762 460 762 429 749 c 128,-1,14
 398 736 398 736 361 736 c 0,15,16
 327 736 327 736 296.5 748 c 128,-1,17
 266 760 266 760 242.5 781.5 c 128,-1,18
 219 803 219 803 205 833.5 c 128,-1,19
 191 864 191 864 191 901 c 0,0,1
359 -223 m 1,20,-1
 86 -223 l 1,21,-1
 202 298 l 1,22,-1
 532 298 l 1,23,-1
 359 -223 l 1,20,-1
EndSplineSet
EndChar

StartChar: less
Encoding: 60 60 29
Width: 1287
Flags: W
LayerCount: 2
Fore
SplineSet
186 391 m 2,0,1
 144 408 144 408 122 439.5 c 128,-1,2
 100 471 100 471 100 506 c 0,3,4
 100 549 100 549 127.5 578.5 c 128,-1,5
 155 608 155 608 212 633 c 1,6,-1
 978 948 l 2,7,8
 998 956 998 956 1021 964.5 c 128,-1,9
 1044 973 1044 973 1061 973 c 0,10,11
 1082 973 1082 973 1100 965 c 128,-1,12
 1118 957 1118 957 1130.5 944 c 128,-1,13
 1143 931 1143 931 1150.5 913.5 c 128,-1,14
 1158 896 1158 896 1158 878 c 0,15,16
 1158 858 1158 858 1149.5 843 c 128,-1,17
 1141 828 1141 828 1126 816 c 128,-1,18
 1111 804 1111 804 1091.5 794.5 c 128,-1,19
 1072 785 1072 785 1050 776 c 2,20,-1
 383 506 l 1,21,22
 551 436 551 436 717.5 366 c 128,-1,23
 884 296 884 296 1052 226 c 0,24,25
 1074 217 1074 217 1093.5 206.5 c 128,-1,26
 1113 196 1113 196 1127 184 c 128,-1,27
 1141 172 1141 172 1149.5 157 c 128,-1,28
 1158 142 1158 142 1158 123 c 256,29,30
 1158 104 1158 104 1151 87 c 128,-1,31
 1144 70 1144 70 1132 57 c 128,-1,32
 1120 44 1120 44 1103 36.5 c 128,-1,33
 1086 29 1086 29 1066 29 c 0,34,35
 1048 29 1048 29 1024.5 37 c 128,-1,36
 1001 45 1001 45 981 55 c 1,37,-1
 186 391 l 2,0,1
EndSplineSet
EndChar

StartChar: equal
Encoding: 61 61 30
Width: 1287
Flags: W
LayerCount: 2
Fore
SplineSet
231 184 m 2,0,1
 211 184 211 184 192.5 191 c 128,-1,2
 174 198 174 198 159.5 211.5 c 128,-1,3
 145 225 145 225 136.5 243 c 128,-1,4
 128 261 128 261 128 284 c 0,5,6
 128 313 128 313 140 333 c 128,-1,7
 152 353 152 353 171.5 365 c 128,-1,8
 191 377 191 377 216.5 382 c 128,-1,9
 242 387 242 387 269 387 c 2,10,-1
 1036 387 l 2,11,12
 1055 387 1055 387 1076.5 382.5 c 128,-1,13
 1098 378 1098 378 1116 366 c 128,-1,14
 1134 354 1134 354 1146 334 c 128,-1,15
 1158 314 1158 314 1158 284 c 256,16,17
 1158 254 1158 254 1146 235 c 128,-1,18
 1134 216 1134 216 1114 204.5 c 128,-1,19
 1094 193 1094 193 1068.5 188.5 c 128,-1,20
 1043 184 1043 184 1017 184 c 2,21,-1
 231 184 l 2,0,1
231 627 m 2,22,23
 210 627 210 627 191.5 634.5 c 128,-1,24
 173 642 173 642 159 655.5 c 128,-1,25
 145 669 145 669 136.5 687.5 c 128,-1,26
 128 706 128 706 128 728 c 0,27,28
 128 757 128 757 140 777 c 128,-1,29
 152 797 152 797 172 809 c 128,-1,30
 192 821 192 821 217.5 826 c 128,-1,31
 243 831 243 831 271 831 c 2,32,-1
 1016 831 l 2,33,34
 1040 831 1040 831 1065 827 c 128,-1,35
 1090 823 1090 823 1111 811.5 c 128,-1,36
 1132 800 1132 800 1145 780 c 128,-1,37
 1158 760 1158 760 1158 728 c 0,38,39
 1158 699 1158 699 1146 679.5 c 128,-1,40
 1134 660 1134 660 1114 648.5 c 128,-1,41
 1094 637 1094 637 1068.5 632 c 128,-1,42
 1043 627 1043 627 1016 627 c 2,43,-1
 231 627 l 2,22,23
EndSplineSet
EndChar

StartChar: greater
Encoding: 62 62 31
Width: 1287
Flags: W
LayerCount: 2
Fore
SplineSet
1093 621 m 2,0,1
 1135 603 1135 603 1156.5 571.5 c 128,-1,2
 1178 540 1178 540 1178 506 c 0,3,4
 1178 461 1178 461 1150.5 431 c 128,-1,5
 1123 401 1123 401 1066 378 c 0,6,7
 867 296 867 296 670 215.5 c 128,-1,8
 473 135 473 135 275 53 c 0,9,10
 259 46 259 46 243 41.5 c 128,-1,11
 227 37 227 37 212 37 c 0,12,13
 192 37 192 37 175.5 45 c 128,-1,14
 159 53 159 53 147 66.5 c 128,-1,15
 135 80 135 80 128.5 97 c 128,-1,16
 122 114 122 114 122 132 c 0,17,18
 122 158 122 158 135 180 c 128,-1,19
 148 202 148 202 180 215 c 2,20,-1
 895 506 l 1,21,22
 715 581 715 581 536 654.5 c 128,-1,23
 357 728 357 728 178 806 c 0,24,25
 148 819 148 819 134.5 840.5 c 128,-1,26
 121 862 121 862 121 887 c 0,27,28
 121 904 121 904 127 921 c 128,-1,29
 133 938 133 938 144.5 951.5 c 128,-1,30
 156 965 156 965 173 973.5 c 128,-1,31
 190 982 190 982 211 982 c 0,32,33
 231 982 231 982 254.5 973 c 128,-1,34
 278 964 278 964 299 955 c 2,35,-1
 1093 621 l 2,0,1
EndSplineSet
EndChar

StartChar: question
Encoding: 63 63 32
Width: 1064
Flags: W
LayerCount: 2
Fore
SplineSet
325 1234 m 1,0,1
 307 1233 307 1233 274 1230.5 c 128,-1,2
 241 1228 241 1228 206 1223 c 0,3,4
 201 1222 201 1222 196 1222 c 128,-1,5
 191 1222 191 1222 186 1222 c 0,6,7
 135 1222 135 1222 102 1257 c 128,-1,8
 69 1292 69 1292 69 1350 c 0,9,10
 69 1387 69 1387 93.5 1421.5 c 128,-1,11
 118 1456 118 1456 171 1472 c 0,12,13
 249 1495 249 1495 331.5 1504.5 c 128,-1,14
 414 1514 414 1514 490 1514 c 0,15,16
 587 1514 587 1514 674.5 1491 c 128,-1,17
 762 1468 762 1468 827 1419 c 128,-1,18
 892 1370 892 1370 930.5 1294 c 128,-1,19
 969 1218 969 1218 969 1112 c 1,20,21
 967 1042 967 1042 942.5 986 c 128,-1,22
 918 930 918 930 881.5 883 c 128,-1,23
 845 836 845 836 800 796 c 128,-1,24
 755 756 755 756 711 718 c 0,25,26
 680 691 680 691 655 670 c 128,-1,27
 630 649 630 649 613 629.5 c 128,-1,28
 596 610 596 610 586 590 c 128,-1,29
 576 570 576 570 575 545 c 1,30,31
 575 518 575 518 567.5 489 c 128,-1,32
 560 460 560 460 541.5 435 c 128,-1,33
 523 410 523 410 492 394 c 128,-1,34
 461 378 461 378 415 378 c 1,35,36
 352 383 352 383 317 419 c 128,-1,37
 282 455 282 455 282 537 c 2,38,-1
 282 586 l 1,39,40
 285 647 285 647 313.5 695.5 c 128,-1,41
 342 744 342 744 380.5 784.5 c 128,-1,42
 419 825 419 825 460.5 859.5 c 128,-1,43
 502 894 502 894 530 929 c 256,44,45
 558 964 558 964 577 1003 c 128,-1,46
 596 1042 596 1042 596 1084 c 0,47,48
 596 1127 596 1127 580.5 1157 c 128,-1,49
 565 1187 565 1187 539.5 1206 c 128,-1,50
 514 1225 514 1225 481 1233 c 128,-1,51
 448 1241 448 1241 412 1241 c 0,52,53
 392 1241 392 1241 370 1239 c 128,-1,54
 348 1237 348 1237 325 1234 c 1,0,1
260 107 m 0,55,56
 260 139 260 139 272 168.5 c 128,-1,57
 284 198 284 198 306.5 220.5 c 128,-1,58
 329 243 329 243 360 256.5 c 128,-1,59
 391 270 391 270 429 270 c 0,60,61
 462 270 462 270 492.5 258 c 128,-1,62
 523 246 523 246 546.5 224.5 c 128,-1,63
 570 203 570 203 584 173 c 128,-1,64
 598 143 598 143 598 107 c 0,65,66
 598 73 598 73 585 43 c 128,-1,67
 572 13 572 13 549.5 -9.5 c 128,-1,68
 527 -32 527 -32 496 -45 c 128,-1,69
 465 -58 465 -58 429 -58 c 256,70,71
 393 -58 393 -58 362 -45 c 128,-1,72
 331 -32 331 -32 308.5 -9.5 c 128,-1,73
 286 13 286 13 273 43 c 128,-1,74
 260 73 260 73 260 107 c 0,55,56
EndSplineSet
EndChar

StartChar: at
Encoding: 64 64 33
Width: 1638
Flags: W
LayerCount: 2
Fore
SplineSet
590 645 m 0,0,1
 590 609 590 609 600.5 577 c 128,-1,2
 611 545 611 545 631 521 c 128,-1,3
 651 497 651 497 679.5 483.5 c 128,-1,4
 708 470 708 470 743 470 c 0,5,6
 781 470 781 470 816.5 480 c 128,-1,7
 852 490 852 490 882 508 c 128,-1,8
 912 526 912 526 933.5 550.5 c 128,-1,9
 955 575 955 575 964 604 c 1,10,-1
 1023 820 l 2,11,12
 1025 828 1025 828 1026 835 c 128,-1,13
 1027 842 1027 842 1027 849 c 0,14,15
 1027 875 1027 875 1013.5 898.5 c 128,-1,16
 1000 922 1000 922 977.5 940 c 128,-1,17
 955 958 955 958 925.5 969 c 128,-1,18
 896 980 896 980 864 980 c 0,19,20
 805 980 805 980 754.5 949 c 128,-1,21
 704 918 704 918 667.5 869 c 128,-1,22
 631 820 631 820 610.5 761 c 128,-1,23
 590 702 590 702 590 645 c 0,0,1
918 132 m 1,24,25
 1003 134 1003 134 1084 157 c 0,26,27
 1088 158 1088 158 1096 158 c 0,28,29
 1134 158 1134 158 1155 135.5 c 128,-1,30
 1176 113 1176 113 1176 84 c 0,31,32
 1176 52 1176 52 1157 35.5 c 128,-1,33
 1138 19 1138 19 1100 9 c 0,34,35
 1025 -10 1025 -10 953.5 -20 c 128,-1,36
 882 -30 882 -30 811 -30 c 0,37,38
 650 -30 650 -30 509.5 19.5 c 128,-1,39
 369 69 369 69 264.5 165 c 128,-1,40
 160 261 160 261 100 401 c 128,-1,41
 40 541 40 541 40 721 c 0,42,43
 40 843 40 843 72.5 949 c 128,-1,44
 105 1055 105 1055 163.5 1142.5 c 128,-1,45
 222 1230 222 1230 302 1298.5 c 128,-1,46
 382 1367 382 1367 477 1413.5 c 128,-1,47
 572 1460 572 1460 678.5 1484.5 c 128,-1,48
 785 1509 785 1509 895 1509 c 0,49,50
 1021 1509 1021 1509 1142.5 1472.5 c 128,-1,51
 1264 1436 1264 1436 1359.5 1359.5 c 128,-1,52
 1455 1283 1455 1283 1513.5 1164.5 c 128,-1,53
 1572 1046 1572 1046 1572 883 c 0,54,55
 1572 798 1572 798 1551.5 722.5 c 128,-1,56
 1531 647 1531 647 1496.5 583.5 c 128,-1,57
 1462 520 1462 520 1416.5 470 c 128,-1,58
 1371 420 1371 420 1321 384.5 c 128,-1,59
 1271 349 1271 349 1219 330.5 c 128,-1,60
 1167 312 1167 312 1120 312 c 0,61,62
 1069 312 1069 312 1024 335 c 128,-1,63
 979 358 979 358 960 409 c 1,64,65
 910 354 910 354 841 326 c 128,-1,66
 772 298 772 298 694 298 c 0,67,68
 620 298 620 298 561.5 325 c 128,-1,69
 503 352 503 352 461.5 399 c 128,-1,70
 420 446 420 446 398 509.5 c 128,-1,71
 376 573 376 573 376 646 c 0,72,73
 376 710 376 710 391.5 774 c 128,-1,74
 407 838 407 838 435.5 896.5 c 128,-1,75
 464 955 464 955 505.5 1005.5 c 128,-1,76
 547 1056 547 1056 598.5 1093 c 128,-1,77
 650 1130 650 1130 711 1151.5 c 128,-1,78
 772 1173 772 1173 841 1173 c 0,79,80
 916 1173 916 1173 979 1142.5 c 128,-1,81
 1042 1112 1042 1112 1081 1046 c 1,82,-1
 1089 1072 l 2,83,84
 1099 1104 1099 1104 1122 1119.5 c 128,-1,85
 1145 1135 1145 1135 1174 1135 c 256,86,87
 1203 1135 1203 1135 1227 1116.5 c 128,-1,88
 1251 1098 1251 1098 1251 1062 c 0,89,90
 1251 1046 1251 1046 1245.5 1029.5 c 128,-1,91
 1240 1013 1240 1013 1236 999 c 2,92,-1
 1153 677 l 1,93,94
 1137 622 1137 622 1125.5 573.5 c 128,-1,95
 1114 525 1114 525 1114 498 c 0,96,97
 1114 473 1114 473 1122.5 459 c 128,-1,98
 1131 445 1131 445 1155 445 c 0,99,100
 1200 445 1200 445 1244 478 c 128,-1,101
 1288 511 1288 511 1322.5 567 c 128,-1,102
 1357 623 1357 623 1378 697 c 128,-1,103
 1399 771 1399 771 1399 853 c 0,104,105
 1399 981 1399 981 1358.5 1076.5 c 128,-1,106
 1318 1172 1318 1172 1249 1235.5 c 128,-1,107
 1180 1299 1180 1299 1088.5 1330.5 c 128,-1,108
 997 1362 997 1362 895 1362 c 0,109,110
 810 1362 810 1362 727.5 1341.5 c 128,-1,111
 645 1321 645 1321 570 1282.5 c 128,-1,112
 495 1244 495 1244 431 1187.5 c 128,-1,113
 367 1131 367 1131 320 1058.5 c 128,-1,114
 273 986 273 986 246.5 899.5 c 128,-1,115
 220 813 220 813 220 713 c 0,116,117
 220 571 220 571 264.5 463.5 c 128,-1,118
 309 356 309 356 385.5 282.5 c 128,-1,119
 462 209 462 209 564 168.5 c 128,-1,120
 666 128 666 128 782 121 c 1,121,-1
 796 121 l 2,122,123
 854 121 854 121 918 132 c 1,24,25
EndSplineSet
EndChar

StartChar: A
Encoding: 65 65 34
Width: 1505
Flags: W
LayerCount: 2
Fore
SplineSet
741 1179 m 1,0,-1
 521 536 l 1,1,-1
 965 536 l 1,2,-1
 746 1179 l 1,3,-1
 741 1179 l 1,0,-1
1393 303 m 2,4,5
 1400 285 1400 285 1408 265.5 c 128,-1,6
 1416 246 1416 246 1423 226 c 128,-1,7
 1430 206 1430 206 1434.5 187.5 c 128,-1,8
 1439 169 1439 169 1439 154 c 0,9,10
 1439 117 1439 117 1425.5 88.5 c 128,-1,11
 1412 60 1412 60 1389 40.5 c 128,-1,12
 1366 21 1366 21 1335.5 10.5 c 128,-1,13
 1305 0 1305 0 1271 0 c 0,14,15
 1232 0 1232 0 1204 11 c 128,-1,16
 1176 22 1176 22 1154 46 c 128,-1,17
 1132 70 1132 70 1113.5 108.5 c 128,-1,18
 1095 147 1095 147 1074 203 c 2,19,-1
 1026 330 l 1,20,-1
 460 330 l 1,21,-1
 419 203 l 2,22,23
 401 146 401 146 382.5 107 c 128,-1,24
 364 68 364 68 341.5 44.5 c 128,-1,25
 319 21 319 21 290 10.5 c 128,-1,26
 261 0 261 0 222 0 c 0,27,28
 188 0 188 0 157.5 10.5 c 128,-1,29
 127 21 127 21 104 40.5 c 128,-1,30
 81 60 81 60 67.5 88.5 c 128,-1,31
 54 117 54 117 54 154 c 0,32,33
 54 169 54 169 58.5 187.5 c 128,-1,34
 63 206 63 206 70 226 c 128,-1,35
 77 246 77 246 85 265.5 c 128,-1,36
 93 285 93 285 100 303 c 2,37,-1
 369 1030 l 2,38,39
 407 1132 407 1132 441.5 1210.5 c 128,-1,40
 476 1289 476 1289 517.5 1343 c 128,-1,41
 559 1397 559 1397 613 1424.5 c 128,-1,42
 667 1452 667 1452 744 1452 c 0,43,44
 816 1452 816 1452 867 1430.5 c 128,-1,45
 918 1409 918 1409 959 1359.5 c 128,-1,46
 1000 1310 1000 1310 1037 1229 c 128,-1,47
 1074 1148 1074 1148 1119 1030 c 2,48,-1
 1393 303 l 2,4,5
EndSplineSet
EndChar

StartChar: B
Encoding: 66 66 35
Width: 1464
Flags: W
LayerCount: 2
Fore
SplineSet
152 1276 m 2,0,1
 152 1323 152 1323 171 1356.5 c 128,-1,2
 190 1390 190 1390 221.5 1411 c 128,-1,3
 253 1432 253 1432 295 1442 c 128,-1,4
 337 1452 337 1452 384 1452 c 2,5,-1
 694 1452 l 2,6,7
 762 1452 762 1452 834 1449.5 c 128,-1,8
 906 1447 906 1447 975 1435.5 c 128,-1,9
 1044 1424 1044 1424 1105 1401.5 c 128,-1,10
 1166 1379 1166 1379 1212 1338.5 c 128,-1,11
 1258 1298 1258 1298 1285 1236.5 c 128,-1,12
 1312 1175 1312 1175 1312 1087 c 0,13,14
 1312 1028 1312 1028 1292 973.5 c 128,-1,15
 1272 919 1272 919 1235 875 c 128,-1,16
 1198 831 1198 831 1147 800.5 c 128,-1,17
 1096 770 1096 770 1034 759 c 1,18,-1
 1034 755 l 1,19,20
 1109 744 1109 744 1169.5 713.5 c 128,-1,21
 1230 683 1230 683 1272 637 c 128,-1,22
 1314 591 1314 591 1337 531 c 128,-1,23
 1360 471 1360 471 1360 402 c 0,24,25
 1360 326 1360 326 1330 253.5 c 128,-1,26
 1300 181 1300 181 1238 125 c 128,-1,27
 1176 69 1176 69 1080.5 34.5 c 128,-1,28
 985 0 985 0 854 0 c 2,29,-1
 384 0 l 2,30,31
 327 0 327 0 284 9 c 128,-1,32
 241 18 241 18 211.5 45.5 c 128,-1,33
 182 73 182 73 167 123.5 c 128,-1,34
 152 174 152 174 152 257 c 2,35,-1
 152 1276 l 2,0,1
505 224 m 1,36,-1
 671 224 l 2,37,38
 751 224 751 224 812 232 c 128,-1,39
 873 240 873 240 914 264 c 128,-1,40
 955 288 955 288 976 330.5 c 128,-1,41
 997 373 997 373 997 441 c 0,42,43
 997 504 997 504 973 544 c 128,-1,44
 949 584 949 584 905 607.5 c 128,-1,45
 861 631 861 631 799 640 c 128,-1,46
 737 649 737 649 661 649 c 2,47,-1
 505 649 l 1,48,-1
 505 224 l 1,36,-1
505 1228 m 1,49,-1
 505 831 l 1,50,-1
 648 831 l 2,51,52
 714 831 714 831 770.5 840 c 128,-1,53
 827 849 827 849 867.5 872 c 128,-1,54
 908 895 908 895 931 934.5 c 128,-1,55
 954 974 954 974 954 1035 c 256,56,57
 954 1096 954 1096 931.5 1133.5 c 128,-1,58
 909 1171 909 1171 870 1192 c 128,-1,59
 831 1213 831 1213 779 1220.5 c 128,-1,60
 727 1228 727 1228 669 1228 c 2,61,-1
 505 1228 l 1,49,-1
EndSplineSet
EndChar

StartChar: C
Encoding: 67 67 36
Width: 1464
Flags: W
LayerCount: 2
Fore
SplineSet
86 714 m 0,0,1
 86 896 86 896 139.5 1039.5 c 128,-1,2
 193 1183 193 1183 289 1282 c 128,-1,3
 385 1381 385 1381 517.5 1433.5 c 128,-1,4
 650 1486 650 1486 808 1486 c 0,5,6
 933 1486 933 1486 1025.5 1470.5 c 128,-1,7
 1118 1455 1118 1455 1179 1428 c 128,-1,8
 1240 1401 1240 1401 1270 1364 c 128,-1,9
 1300 1327 1300 1327 1300 1284 c 0,10,11
 1300 1255 1300 1255 1288 1233.5 c 128,-1,12
 1276 1212 1276 1212 1256.5 1198 c 128,-1,13
 1237 1184 1237 1184 1213 1177.5 c 128,-1,14
 1189 1171 1189 1171 1165 1171 c 0,15,16
 1151 1171 1151 1171 1137 1171.5 c 128,-1,17
 1123 1172 1123 1172 1110 1176 c 0,18,19
 1072 1186 1072 1186 1037.5 1195.5 c 128,-1,20
 1003 1205 1003 1205 969.5 1212 c 128,-1,21
 936 1219 936 1219 902.5 1223.5 c 128,-1,22
 869 1228 869 1228 833 1228 c 0,23,24
 758 1228 758 1228 691.5 1205.5 c 128,-1,25
 625 1183 625 1183 576 1126 c 128,-1,26
 527 1069 527 1069 498.5 971.5 c 128,-1,27
 470 874 470 874 470 723 c 0,28,29
 470 607 470 607 493 514.5 c 128,-1,30
 516 422 516 422 561.5 357.5 c 128,-1,31
 607 293 607 293 675.5 258.5 c 128,-1,32
 744 224 744 224 835 224 c 0,33,34
 872 224 872 224 912 232 c 128,-1,35
 952 240 952 240 994 252.5 c 128,-1,36
 1036 265 1036 265 1079.5 281 c 128,-1,37
 1123 297 1123 297 1166 313 c 0,38,39
 1179 317 1179 317 1198 317 c 0,40,41
 1223 317 1223 317 1243.5 307.5 c 128,-1,42
 1264 298 1264 298 1279 282 c 128,-1,43
 1294 266 1294 266 1302 244.5 c 128,-1,44
 1310 223 1310 223 1310 199 c 0,45,46
 1310 160 1310 160 1284.5 127.5 c 128,-1,47
 1259 95 1259 95 1217 69 c 128,-1,48
 1175 43 1175 43 1120.5 23.5 c 128,-1,49
 1066 4 1066 4 1008 -9 c 128,-1,50
 950 -22 950 -22 892.5 -28.5 c 128,-1,51
 835 -35 835 -35 786 -35 c 0,52,53
 638 -35 638 -35 510 14.5 c 128,-1,54
 382 64 382 64 288 159.5 c 128,-1,55
 194 255 194 255 140 394.5 c 128,-1,56
 86 534 86 534 86 714 c 0,0,1
EndSplineSet
EndChar

StartChar: D
Encoding: 68 68 37
Width: 1558
Flags: W
LayerCount: 2
Fore
SplineSet
326 0 m 2,0,1
 272 0 272 0 236.5 22 c 128,-1,2
 201 44 201 44 180 80 c 128,-1,3
 159 116 159 116 151 161.5 c 128,-1,4
 143 207 143 207 143 255 c 2,5,-1
 143 1195 l 2,6,7
 143 1262 143 1262 156 1311 c 128,-1,8
 169 1360 169 1360 199 1391 c 128,-1,9
 229 1422 229 1422 277.5 1437 c 128,-1,10
 326 1452 326 1452 397 1452 c 2,11,-1
 645 1452 l 2,12,13
 1054 1452 1054 1452 1262 1271.5 c 128,-1,14
 1470 1091 1470 1091 1470 716 c 0,15,16
 1470 533 1470 533 1413 398 c 128,-1,17
 1356 263 1356 263 1251.5 174.5 c 128,-1,18
 1147 86 1147 86 1000 43 c 128,-1,19
 853 0 853 0 674 0 c 2,20,-1
 326 0 l 2,0,1
509 224 m 1,21,-1
 646 224 l 2,22,23
 760 224 760 224 842 250 c 128,-1,24
 924 276 924 276 977.5 339 c 128,-1,25
 1031 402 1031 402 1056.5 495.5 c 128,-1,26
 1082 589 1082 589 1082 725 c 0,27,28
 1082 978 1082 978 977 1102 c 128,-1,29
 872 1226 872 1226 655 1226 c 2,30,-1
 509 1226 l 1,31,-1
 509 224 l 1,21,-1
EndSplineSet
EndChar

StartChar: E
Encoding: 69 69 38
Width: 1272
Flags: W
LayerCount: 2
Fore
SplineSet
334 0 m 2,0,1
 283 0 283 0 248.5 21 c 128,-1,2
 214 42 214 42 193 75.5 c 128,-1,3
 172 109 172 109 163 151 c 128,-1,4
 154 193 154 193 154 235 c 2,5,-1
 154 1188 l 2,6,7
 154 1245 154 1245 161 1293.5 c 128,-1,8
 168 1342 168 1342 192 1377 c 128,-1,9
 216 1412 216 1412 262 1432 c 128,-1,10
 308 1452 308 1452 386 1452 c 2,11,-1
 1028 1452 l 2,12,13
 1057 1452 1057 1452 1082.5 1441.5 c 128,-1,14
 1108 1431 1108 1431 1127 1413.5 c 128,-1,15
 1146 1396 1146 1396 1157 1372 c 128,-1,16
 1168 1348 1168 1348 1168 1321 c 256,17,18
 1168 1294 1168 1294 1157 1270.5 c 128,-1,19
 1146 1247 1146 1247 1127 1229.5 c 128,-1,20
 1108 1212 1108 1212 1082.5 1202 c 128,-1,21
 1057 1192 1057 1192 1028 1192 c 2,22,-1
 513 1192 l 1,23,-1
 513 868 l 1,24,-1
 983 868 l 2,25,26
 1012 868 1012 868 1037.5 858 c 128,-1,27
 1063 848 1063 848 1082 830 c 128,-1,28
 1101 812 1101 812 1112 788.5 c 128,-1,29
 1123 765 1123 765 1123 738 c 256,30,31
 1123 711 1123 711 1112 687.5 c 128,-1,32
 1101 664 1101 664 1082 646.5 c 128,-1,33
 1063 629 1063 629 1037.5 619 c 128,-1,34
 1012 609 1012 609 983 609 c 2,35,-1
 513 609 l 1,36,-1
 513 259 l 1,37,-1
 1053 259 l 2,38,39
 1080 259 1080 259 1103.5 249 c 128,-1,40
 1127 239 1127 239 1145 221 c 128,-1,41
 1163 203 1163 203 1173 179.5 c 128,-1,42
 1183 156 1183 156 1183 129 c 256,43,44
 1183 102 1183 102 1173 78.5 c 128,-1,45
 1163 55 1163 55 1145 37.5 c 128,-1,46
 1127 20 1127 20 1103.5 10 c 128,-1,47
 1080 0 1080 0 1053 0 c 2,48,-1
 334 0 l 2,0,1
EndSplineSet
EndChar

StartChar: F
Encoding: 70 70 39
Width: 1197
Flags: W
LayerCount: 2
Fore
SplineSet
971 872 m 2,0,1
 998 872 998 872 1021.5 862 c 128,-1,2
 1045 852 1045 852 1063 834 c 128,-1,3
 1081 816 1081 816 1091 792.5 c 128,-1,4
 1101 769 1101 769 1101 742 c 256,5,6
 1101 715 1101 715 1091 691.5 c 128,-1,7
 1081 668 1081 668 1063 650.5 c 128,-1,8
 1045 633 1045 633 1021.5 623 c 128,-1,9
 998 613 998 613 971 613 c 2,10,-1
 519 613 l 1,11,-1
 518 195 l 2,12,13
 518 154 518 154 503.5 118.5 c 128,-1,14
 489 83 489 83 463.5 56.5 c 128,-1,15
 438 30 438 30 404.5 15 c 128,-1,16
 371 0 371 0 332 0 c 256,17,18
 293 0 293 0 259.5 15 c 128,-1,19
 226 30 226 30 201 56.5 c 128,-1,20
 176 83 176 83 161.5 118.5 c 128,-1,21
 147 154 147 154 147 195 c 2,22,-1
 147 1267 l 2,23,24
 147 1315 147 1315 166 1350 c 128,-1,25
 185 1385 185 1385 217 1407.5 c 128,-1,26
 249 1430 249 1430 292 1441 c 128,-1,27
 335 1452 335 1452 382 1452 c 2,28,-1
 1002 1452 l 2,29,30
 1029 1452 1029 1452 1052.5 1441.5 c 128,-1,31
 1076 1431 1076 1431 1094 1413.5 c 128,-1,32
 1112 1396 1112 1396 1122 1372 c 128,-1,33
 1132 1348 1132 1348 1132 1321 c 256,34,35
 1132 1294 1132 1294 1122 1270.5 c 128,-1,36
 1112 1247 1112 1247 1094 1229.5 c 128,-1,37
 1076 1212 1076 1212 1052.5 1202 c 128,-1,38
 1029 1192 1029 1192 1002 1192 c 2,39,-1
 519 1192 l 1,40,-1
 519 872 l 1,41,-1
 971 872 l 2,0,1
EndSplineSet
EndChar

StartChar: G
Encoding: 71 71 40
Width: 1578
Flags: W
LayerCount: 2
Fore
SplineSet
1322 782 m 0,0,1
 1361 782 1361 782 1385.5 771.5 c 128,-1,2
 1410 761 1410 761 1423 739.5 c 128,-1,3
 1436 718 1436 718 1440.5 686 c 128,-1,4
 1445 654 1445 654 1445 612 c 2,5,-1
 1445 314 l 2,6,7
 1445 236 1445 236 1434.5 182.5 c 128,-1,8
 1424 129 1424 129 1395 93 c 128,-1,9
 1366 57 1366 57 1313.5 35.5 c 128,-1,10
 1261 14 1261 14 1177 1 c 0,11,12
 1141 -5 1141 -5 1100 -11.5 c 128,-1,13
 1059 -18 1059 -18 1016.5 -23 c 128,-1,14
 974 -28 974 -28 932.5 -31.5 c 128,-1,15
 891 -35 891 -35 855 -35 c 0,16,17
 679 -35 679 -35 537.5 10.5 c 128,-1,18
 396 56 396 56 296 149.5 c 128,-1,19
 196 243 196 243 142.5 386.5 c 128,-1,20
 89 530 89 530 89 725 c 0,21,22
 89 882 89 882 134.5 1020.5 c 128,-1,23
 180 1159 180 1159 273.5 1262.5 c 128,-1,24
 367 1366 367 1366 511 1426 c 128,-1,25
 655 1486 655 1486 852 1486 c 0,26,27
 916 1486 916 1486 979 1479.5 c 128,-1,28
 1042 1473 1042 1473 1100.5 1462 c 128,-1,29
 1159 1451 1159 1451 1212.5 1435 c 128,-1,30
 1266 1419 1266 1419 1311 1400 c 256,31,32
 1356 1381 1356 1381 1378 1348.5 c 128,-1,33
 1400 1316 1400 1316 1400 1278 c 0,34,35
 1400 1216 1400 1216 1362 1184 c 128,-1,36
 1324 1152 1324 1152 1268 1152 c 0,37,38
 1240 1152 1240 1152 1194 1163.5 c 128,-1,39
 1148 1175 1148 1175 1095.5 1189.5 c 128,-1,40
 1043 1204 1043 1204 988.5 1215.5 c 128,-1,41
 934 1227 934 1227 889 1227 c 0,42,43
 779 1227 779 1227 700.5 1191.5 c 128,-1,44
 622 1156 622 1156 572 1089 c 128,-1,45
 522 1022 522 1022 499 926 c 128,-1,46
 476 830 476 830 476 710 c 0,47,48
 476 577 476 577 496.5 484.5 c 128,-1,49
 517 392 517 392 562 334 c 128,-1,50
 607 276 607 276 677.5 250 c 128,-1,51
 748 224 748 224 847 224 c 0,52,53
 907 224 907 224 967.5 227.5 c 128,-1,54
 1028 231 1028 231 1085 245 c 1,55,-1
 1085 572 l 1,56,-1
 951 572 l 2,57,58
 920 572 920 572 894 577.5 c 128,-1,59
 868 583 868 583 848.5 595.5 c 128,-1,60
 829 608 829 608 818 628.5 c 128,-1,61
 807 649 807 649 807 679 c 0,62,63
 807 725 807 725 837.5 754 c 128,-1,64
 868 783 868 783 931 783 c 0,65,66
 1030 783 1030 783 1126 782.5 c 128,-1,67
 1222 782 1222 782 1322 782 c 0,0,1
EndSplineSet
EndChar

StartChar: H
Encoding: 72 72 41
Width: 1558
Flags: W
LayerCount: 2
Fore
SplineSet
1037 1258 m 2,0,1
 1037 1299 1037 1299 1052 1334.5 c 128,-1,2
 1067 1370 1067 1370 1092 1396.5 c 128,-1,3
 1117 1423 1117 1423 1150.5 1438 c 128,-1,4
 1184 1453 1184 1453 1223 1453 c 256,5,6
 1262 1453 1262 1453 1295.5 1438 c 128,-1,7
 1329 1423 1329 1423 1354.5 1396.5 c 128,-1,8
 1380 1370 1380 1370 1394.5 1334.5 c 128,-1,9
 1409 1299 1409 1299 1409 1258 c 2,10,-1
 1409 195 l 2,11,12
 1409 154 1409 154 1394.5 118.5 c 128,-1,13
 1380 83 1380 83 1354.5 56.5 c 128,-1,14
 1329 30 1329 30 1295.5 15 c 128,-1,15
 1262 0 1262 0 1223 0 c 256,16,17
 1184 0 1184 0 1150.5 15 c 128,-1,18
 1117 30 1117 30 1092 56.5 c 128,-1,19
 1067 83 1067 83 1052.5 118.5 c 128,-1,20
 1038 154 1038 154 1038 195 c 2,21,-1
 1037 608 l 1,22,-1
 522 608 l 1,23,-1
 522 195 l 2,24,25
 522 154 522 154 507.5 118.5 c 128,-1,26
 493 83 493 83 467.5 56.5 c 128,-1,27
 442 30 442 30 408.5 15 c 128,-1,28
 375 0 375 0 336 0 c 256,29,30
 297 0 297 0 263.5 15 c 128,-1,31
 230 30 230 30 205 56.5 c 128,-1,32
 180 83 180 83 165.5 118.5 c 128,-1,33
 151 154 151 154 151 195 c 2,34,-1
 151 1258 l 2,35,36
 151 1299 151 1299 165.5 1334.5 c 128,-1,37
 180 1370 180 1370 205 1396.5 c 128,-1,38
 230 1423 230 1423 263.5 1438 c 128,-1,39
 297 1453 297 1453 336 1453 c 256,40,41
 375 1453 375 1453 408.5 1438 c 128,-1,42
 442 1423 442 1423 467.5 1396.5 c 128,-1,43
 493 1370 493 1370 507.5 1334.5 c 128,-1,44
 522 1299 522 1299 522 1258 c 2,45,-1
 522 893 l 1,46,-1
 1037 893 l 1,47,-1
 1037 1258 l 2,0,1
EndSplineSet
EndChar

StartChar: I
Encoding: 73 73 42
Width: 689
Flags: W
LayerCount: 2
Fore
SplineSet
530 195 m 2,0,1
 530 154 530 154 515.5 118.5 c 128,-1,2
 501 83 501 83 475.5 56.5 c 128,-1,3
 450 30 450 30 416.5 15 c 128,-1,4
 383 0 383 0 344 0 c 256,5,6
 305 0 305 0 271.5 15 c 128,-1,7
 238 30 238 30 213 56.5 c 128,-1,8
 188 83 188 83 173.5 118.5 c 128,-1,9
 159 154 159 154 159 195 c 2,10,-1
 159 1258 l 2,11,12
 159 1299 159 1299 173.5 1334.5 c 128,-1,13
 188 1370 188 1370 213 1396.5 c 128,-1,14
 238 1423 238 1423 271.5 1438 c 128,-1,15
 305 1453 305 1453 344 1453 c 256,16,17
 383 1453 383 1453 416.5 1438 c 128,-1,18
 450 1423 450 1423 475.5 1396.5 c 128,-1,19
 501 1370 501 1370 515.5 1334.5 c 128,-1,20
 530 1299 530 1299 530 1258 c 2,21,-1
 530 195 l 2,0,1
EndSplineSet
EndChar

StartChar: J
Encoding: 74 74 43
Width: 1204
Flags: W
LayerCount: 2
Fore
SplineSet
699 1258 m 2,0,1
 699 1299 699 1299 713.5 1334.5 c 128,-1,2
 728 1370 728 1370 753 1396.5 c 128,-1,3
 778 1423 778 1423 811.5 1438 c 128,-1,4
 845 1453 845 1453 884 1453 c 256,5,6
 923 1453 923 1453 956.5 1438 c 128,-1,7
 990 1423 990 1423 1015.5 1396.5 c 128,-1,8
 1041 1370 1041 1370 1055.5 1334.5 c 128,-1,9
 1070 1299 1070 1299 1070 1258 c 2,10,-1
 1069 474 l 2,11,12
 1069 348 1069 348 1033.5 253 c 128,-1,13
 998 158 998 158 931 94.5 c 128,-1,14
 864 31 864 31 766.5 -1.5 c 128,-1,15
 669 -34 669 -34 544 -34 c 0,16,17
 433 -34 433 -34 332.5 -0.5 c 128,-1,18
 232 33 232 33 157 107 c 0,19,20
 121 142 121 142 97.5 184.5 c 128,-1,21
 74 227 74 227 74 263 c 0,22,23
 74 287 74 287 85 310 c 128,-1,24
 96 333 96 333 114 350.5 c 128,-1,25
 132 368 132 368 155.5 378.5 c 128,-1,26
 179 389 179 389 203 389 c 0,27,28
 224 389 224 389 242 378 c 128,-1,29
 260 367 260 367 277.5 351.5 c 128,-1,30
 295 336 295 336 311.5 318 c 128,-1,31
 328 300 328 300 346 286 c 0,32,33
 382 257 382 257 422 240.5 c 128,-1,34
 462 224 462 224 510 224 c 0,35,36
 608 224 608 224 653.5 284 c 128,-1,37
 699 344 699 344 699 472 c 2,38,-1
 699 1258 l 2,0,1
EndSplineSet
EndChar

StartChar: K
Encoding: 75 75 44
Width: 1451
Flags: W
LayerCount: 2
Fore
SplineSet
526 815 m 1,0,-1
 913 1322 l 2,1,2
 957 1380 957 1380 999 1416 c 128,-1,3
 1041 1452 1041 1452 1096 1452 c 0,4,5
 1127 1452 1127 1452 1157 1440.5 c 128,-1,6
 1187 1429 1187 1429 1211 1408 c 128,-1,7
 1235 1387 1235 1387 1250 1359 c 128,-1,8
 1265 1331 1265 1331 1265 1298 c 0,9,10
 1265 1278 1265 1278 1256 1256.5 c 128,-1,11
 1247 1235 1247 1235 1233.5 1213.5 c 128,-1,12
 1220 1192 1220 1192 1202.5 1170.5 c 128,-1,13
 1185 1149 1185 1149 1169 1130 c 2,14,-1
 870 781 l 1,15,-1
 1218 344 l 2,16,17
 1235 323 1235 323 1252 299.5 c 128,-1,18
 1269 276 1269 276 1283 252.5 c 128,-1,19
 1297 229 1297 229 1306 206.5 c 128,-1,20
 1315 184 1315 184 1315 163 c 0,21,22
 1315 130 1315 130 1299.5 100.5 c 128,-1,23
 1284 71 1284 71 1259 48.5 c 128,-1,24
 1234 26 1234 26 1202.5 13 c 128,-1,25
 1171 0 1171 0 1140 0 c 0,26,27
 1104 0 1104 0 1073 16 c 128,-1,28
 1042 32 1042 32 1014.5 57 c 128,-1,29
 987 82 987 82 963.5 112 c 128,-1,30
 940 142 940 142 919 171 c 2,31,-1
 526 704 l 1,32,-1
 528 195 l 2,33,34
 528 154 528 154 513.5 118.5 c 128,-1,35
 499 83 499 83 473.5 56.5 c 128,-1,36
 448 30 448 30 414.5 15 c 128,-1,37
 381 0 381 0 342 0 c 256,38,39
 303 0 303 0 269.5 15 c 128,-1,40
 236 30 236 30 211 56.5 c 128,-1,41
 186 83 186 83 171.5 118.5 c 128,-1,42
 157 154 157 154 157 195 c 2,43,-1
 157 1258 l 2,44,45
 157 1299 157 1299 171.5 1334.5 c 128,-1,46
 186 1370 186 1370 211 1396.5 c 128,-1,47
 236 1423 236 1423 269.5 1438 c 128,-1,48
 303 1453 303 1453 342 1453 c 0,49,50
 379 1453 379 1453 413 1438 c 128,-1,51
 447 1423 447 1423 472.5 1396.5 c 128,-1,52
 498 1370 498 1370 513 1334.5 c 128,-1,53
 528 1299 528 1299 528 1258 c 2,54,-1
 526 815 l 1,0,-1
EndSplineSet
EndChar

StartChar: L
Encoding: 76 76 45
Width: 1197
Flags: W
LayerCount: 2
Fore
SplineSet
1023 266 m 2,0,1
 1050 266 1050 266 1074.5 255.5 c 128,-1,2
 1099 245 1099 245 1117 227 c 128,-1,3
 1135 209 1135 209 1145.5 184.5 c 128,-1,4
 1156 160 1156 160 1156 133 c 256,5,6
 1156 106 1156 106 1145.5 81.5 c 128,-1,7
 1135 57 1135 57 1117 39 c 128,-1,8
 1099 21 1099 21 1074.5 10.5 c 128,-1,9
 1050 0 1050 0 1023 0 c 2,10,-1
 338 0 l 2,11,12
 284 0 284 0 248 23.5 c 128,-1,13
 212 47 212 47 190.5 85.5 c 128,-1,14
 169 124 169 124 160.5 173 c 128,-1,15
 152 222 152 222 152 273 c 2,16,-1
 152 1258 l 2,17,18
 152 1299 152 1299 166.5 1334.5 c 128,-1,19
 181 1370 181 1370 206 1396.5 c 128,-1,20
 231 1423 231 1423 264.5 1438 c 128,-1,21
 298 1453 298 1453 337 1453 c 256,22,23
 376 1453 376 1453 409.5 1438 c 128,-1,24
 443 1423 443 1423 468.5 1396.5 c 128,-1,25
 494 1370 494 1370 508.5 1334.5 c 128,-1,26
 523 1299 523 1299 523 1258 c 2,27,-1
 524 266 l 1,28,-1
 1023 266 l 2,0,1
EndSplineSet
EndChar

StartChar: M
Encoding: 77 77 46
Width: 2054
Flags: W
LayerCount: 2
Fore
SplineSet
1592 1103 m 1,0,1
 1503 883 1503 883 1433 711 c 0,2,3
 1403 637 1403 637 1375 567 c 128,-1,4
 1347 497 1347 497 1324.5 442 c 128,-1,5
 1302 387 1302 387 1288 353 c 2,6,-1
 1275 320 l 2,7,8
 1254 269 1254 269 1230.5 223 c 128,-1,9
 1207 177 1207 177 1177 142.5 c 128,-1,10
 1147 108 1147 108 1109.5 87.5 c 128,-1,11
 1072 67 1072 67 1023 67 c 0,12,13
 978 67 978 67 944 82.5 c 128,-1,14
 910 98 910 98 881.5 129.5 c 128,-1,15
 853 161 853 161 828 208.5 c 128,-1,16
 803 256 803 256 778 319 c 2,17,-1
 463 1099 l 1,18,-1
 463 145 l 2,19,20
 463 115 463 115 451.5 88 c 128,-1,21
 440 61 440 61 420 41.5 c 128,-1,22
 400 22 400 22 373 10.5 c 128,-1,23
 346 -1 346 -1 316 -1 c 256,24,25
 286 -1 286 -1 259 10.5 c 128,-1,26
 232 22 232 22 212.5 41.5 c 128,-1,27
 193 61 193 61 181.5 88 c 128,-1,28
 170 115 170 115 170 145 c 2,29,-1
 170 1068 l 2,30,31
 170 1155 170 1155 179 1226.5 c 128,-1,32
 188 1298 188 1298 215.5 1348 c 128,-1,33
 243 1398 243 1398 292.5 1425.5 c 128,-1,34
 342 1453 342 1453 423 1453 c 0,35,36
 481 1453 481 1453 524.5 1433 c 128,-1,37
 568 1413 568 1413 605.5 1368.5 c 128,-1,38
 643 1324 643 1324 678.5 1253 c 128,-1,39
 714 1182 714 1182 756 1081 c 2,40,-1
 1023 436 l 1,41,-1
 1031 436 l 1,42,-1
 1301 1081 l 2,43,44
 1337 1167 1337 1167 1371.5 1236 c 128,-1,45
 1406 1305 1406 1305 1445 1353 c 128,-1,46
 1484 1401 1484 1401 1530 1427 c 128,-1,47
 1576 1453 1576 1453 1635 1453 c 0,48,49
 1699 1453 1699 1453 1746.5 1434 c 128,-1,50
 1794 1415 1794 1415 1824.5 1373 c 128,-1,51
 1855 1331 1855 1331 1870 1264.5 c 128,-1,52
 1885 1198 1885 1198 1885 1104 c 2,53,-1
 1885 145 l 2,54,55
 1885 115 1885 115 1873.5 88 c 128,-1,56
 1862 61 1862 61 1842 41.5 c 128,-1,57
 1822 22 1822 22 1795 10.5 c 128,-1,58
 1768 -1 1768 -1 1738 -1 c 256,59,60
 1708 -1 1708 -1 1681 10.5 c 128,-1,61
 1654 22 1654 22 1634.5 41.5 c 128,-1,62
 1615 61 1615 61 1603.5 88 c 128,-1,63
 1592 115 1592 115 1592 145 c 2,64,-1
 1592 1103 l 1,0,1
EndSplineSet
EndChar

StartChar: N
Encoding: 78 78 47
Width: 1598
Flags: W
LayerCount: 2
Fore
SplineSet
458 157 m 2,0,1
 458 124 458 124 445.5 95.5 c 128,-1,2
 433 67 433 67 411.5 46 c 128,-1,3
 390 25 390 25 361.5 12.5 c 128,-1,4
 333 0 333 0 300 0 c 256,5,6
 267 0 267 0 238.5 12.5 c 128,-1,7
 210 25 210 25 189 46 c 128,-1,8
 168 67 168 67 156 95.5 c 128,-1,9
 144 124 144 124 144 157 c 2,10,-1
 144 1249 l 2,11,12
 144 1298 144 1298 158.5 1336 c 128,-1,13
 173 1374 173 1374 197.5 1400 c 128,-1,14
 222 1426 222 1426 255 1439.5 c 128,-1,15
 288 1453 288 1453 326 1453 c 0,16,17
 358 1453 358 1453 388.5 1440.5 c 128,-1,18
 419 1428 419 1428 447 1407 c 128,-1,19
 475 1386 475 1386 501 1357.5 c 128,-1,20
 527 1329 527 1329 551 1297 c 2,21,-1
 1141 497 l 1,22,-1
 1141 1296 l 2,23,24
 1141 1329 1141 1329 1153 1357.5 c 128,-1,25
 1165 1386 1165 1386 1186 1407 c 128,-1,26
 1207 1428 1207 1428 1235.5 1440.5 c 128,-1,27
 1264 1453 1264 1453 1297 1453 c 256,28,29
 1330 1453 1330 1453 1358.5 1440.5 c 128,-1,30
 1387 1428 1387 1428 1408 1407 c 128,-1,31
 1429 1386 1429 1386 1441.5 1357.5 c 128,-1,32
 1454 1329 1454 1329 1454 1296 c 2,33,-1
 1454 278 l 2,34,35
 1454 223 1454 223 1448 172.5 c 128,-1,36
 1442 122 1442 122 1423 84 c 128,-1,37
 1404 46 1404 46 1369 23 c 128,-1,38
 1334 0 1334 0 1276 0 c 0,39,40
 1245 0 1245 0 1215.5 12 c 128,-1,41
 1186 24 1186 24 1158.5 45 c 128,-1,42
 1131 66 1131 66 1105 94.5 c 128,-1,43
 1079 123 1079 123 1054 156 c 2,44,-1
 458 966 l 1,45,-1
 458 157 l 2,0,1
EndSplineSet
EndChar

StartChar: O
Encoding: 79 79 48
Width: 1612
Flags: W
LayerCount: 2
Fore
SplineSet
480 725 m 0,0,1
 480 477 480 477 559 350.5 c 128,-1,2
 638 224 638 224 806 224 c 0,3,4
 971 224 971 224 1052 350 c 128,-1,5
 1133 476 1133 476 1133 725 c 0,6,7
 1133 845 1133 845 1113.5 938.5 c 128,-1,8
 1094 1032 1094 1032 1054 1096 c 128,-1,9
 1014 1160 1014 1160 952.5 1193.5 c 128,-1,10
 891 1227 891 1227 806 1227 c 0,11,12
 722 1227 722 1227 660.5 1193.5 c 128,-1,13
 599 1160 599 1160 559 1096 c 128,-1,14
 519 1032 519 1032 499.5 938.5 c 128,-1,15
 480 845 480 845 480 725 c 0,0,1
91 725 m 0,16,17
 91 890 91 890 135.5 1030 c 128,-1,18
 180 1170 180 1170 269 1271 c 128,-1,19
 358 1372 358 1372 492 1429 c 128,-1,20
 626 1486 626 1486 806 1486 c 0,21,22
 981 1486 981 1486 1115 1431 c 128,-1,23
 1249 1376 1249 1376 1339 1275.5 c 128,-1,24
 1429 1175 1429 1175 1475 1035 c 128,-1,25
 1521 895 1521 895 1521 725 c 0,26,27
 1521 558 1521 558 1476 418 c 128,-1,28
 1431 278 1431 278 1341 177.5 c 128,-1,29
 1251 77 1251 77 1117 21 c 128,-1,30
 983 -35 983 -35 806 -35 c 0,31,32
 633 -35 633 -35 499.5 19 c 128,-1,33
 366 73 366 73 275 172.5 c 128,-1,34
 184 272 184 272 137.5 412 c 128,-1,35
 91 552 91 552 91 725 c 0,16,17
EndSplineSet
EndChar

StartChar: P
Encoding: 80 80 49
Width: 1391
Flags: W
LayerCount: 2
Fore
SplineSet
524 195 m 2,0,1
 524 154 524 154 509 118.5 c 128,-1,2
 494 83 494 83 468.5 56.5 c 128,-1,3
 443 30 443 30 409.5 15 c 128,-1,4
 376 0 376 0 337 0 c 256,5,6
 298 0 298 0 264.5 15 c 128,-1,7
 231 30 231 30 206 56.5 c 128,-1,8
 181 83 181 83 166.5 118.5 c 128,-1,9
 152 154 152 154 152 195 c 2,10,-1
 152 1178 l 2,11,12
 152 1235 152 1235 159.5 1285.5 c 128,-1,13
 167 1336 167 1336 191.5 1373 c 128,-1,14
 216 1410 216 1410 263.5 1431.5 c 128,-1,15
 311 1453 311 1453 392 1453 c 2,16,-1
 753 1453 l 2,17,18
 868 1453 868 1453 974.5 1433 c 128,-1,19
 1081 1413 1081 1413 1163 1362.5 c 128,-1,20
 1245 1312 1245 1312 1294 1225 c 128,-1,21
 1343 1138 1343 1138 1343 1005 c 0,22,23
 1343 890 1343 890 1300.5 805.5 c 128,-1,24
 1258 721 1258 721 1180.5 665 c 128,-1,25
 1103 609 1103 609 994 581.5 c 128,-1,26
 885 554 885 554 753 554 c 2,27,-1
 524 554 l 1,28,-1
 524 195 l 2,0,1
692 777 m 2,29,30
 756 777 756 777 809 788 c 128,-1,31
 862 799 862 799 899.5 824.5 c 128,-1,32
 937 850 937 850 958 892 c 128,-1,33
 979 934 979 934 979 1005 c 0,34,35
 979 1075 979 1075 959 1115.5 c 128,-1,36
 939 1156 939 1156 903.5 1181 c 128,-1,37
 868 1206 868 1206 818.5 1217 c 128,-1,38
 769 1228 769 1228 709 1228 c 2,39,-1
 524 1228 l 1,40,-1
 524 777 l 1,41,-1
 692 777 l 2,29,30
EndSplineSet
EndChar

StartChar: Q
Encoding: 81 81 50
Width: 1612
Flags: W
LayerCount: 2
Fore
SplineSet
91 725 m 0,0,1
 91 891 91 891 135.5 1030.5 c 128,-1,2
 180 1170 180 1170 269.5 1271 c 128,-1,3
 359 1372 359 1372 493 1429 c 128,-1,4
 627 1486 627 1486 806 1486 c 0,5,6
 979 1486 979 1486 1111.5 1433.5 c 128,-1,7
 1244 1381 1244 1381 1333.5 1283.5 c 128,-1,8
 1423 1186 1423 1186 1469 1047 c 128,-1,9
 1515 908 1515 908 1515 735 c 0,10,11
 1515 661 1515 661 1500.5 592.5 c 128,-1,12
 1486 524 1486 524 1459.5 462.5 c 128,-1,13
 1433 401 1433 401 1396 346.5 c 128,-1,14
 1359 292 1359 292 1314 246 c 1,15,-1
 1392 246 l 2,16,17
 1425 246 1425 246 1457 241 c 128,-1,18
 1489 236 1489 236 1514 222.5 c 128,-1,19
 1539 209 1539 209 1554.5 185.5 c 128,-1,20
 1570 162 1570 162 1570 125 c 0,21,22
 1570 63 1570 63 1528 32.5 c 128,-1,23
 1486 2 1486 2 1401 -1 c 2,24,-1
 1042 -15 l 2,25,26
 1015 -17 1015 -17 994.5 -17 c 128,-1,27
 974 -17 974 -17 966 -17 c 1,28,-1
 920 -24 l 2,29,30
 882 -30 882 -30 857 -32.5 c 128,-1,31
 832 -35 832 -35 811 -35 c 0,32,33
 636 -35 636 -35 501.5 19 c 128,-1,34
 367 73 367 73 276 172.5 c 128,-1,35
 185 272 185 272 138 412.5 c 128,-1,36
 91 553 91 553 91 725 c 0,0,1
480 725 m 0,37,38
 480 477 480 477 559 350.5 c 128,-1,39
 638 224 638 224 806 224 c 0,40,41
 971 224 971 224 1052 350 c 128,-1,42
 1133 476 1133 476 1133 725 c 0,43,44
 1133 845 1133 845 1113.5 938.5 c 128,-1,45
 1094 1032 1094 1032 1054 1096 c 128,-1,46
 1014 1160 1014 1160 952.5 1193.5 c 128,-1,47
 891 1227 891 1227 806 1227 c 0,48,49
 722 1227 722 1227 660.5 1193.5 c 128,-1,50
 599 1160 599 1160 559 1096 c 128,-1,51
 519 1032 519 1032 499.5 938.5 c 128,-1,52
 480 845 480 845 480 725 c 0,37,38
EndSplineSet
EndChar

StartChar: R
Encoding: 82 82 51
Width: 1464
Flags: W
LayerCount: 2
Fore
SplineSet
526 195 m 2,0,1
 526 154 526 154 511.5 118.5 c 128,-1,2
 497 83 497 83 471.5 56.5 c 128,-1,3
 446 30 446 30 412.5 15 c 128,-1,4
 379 0 379 0 340 0 c 256,5,6
 301 0 301 0 267.5 15 c 128,-1,7
 234 30 234 30 209 56.5 c 128,-1,8
 184 83 184 83 169.5 118.5 c 128,-1,9
 155 154 155 154 155 195 c 2,10,-1
 155 1269 l 2,11,12
 155 1315 155 1315 173.5 1349.5 c 128,-1,13
 192 1384 192 1384 223 1407 c 128,-1,14
 254 1430 254 1430 295.5 1441.5 c 128,-1,15
 337 1453 337 1453 383 1453 c 2,16,-1
 784 1453 l 2,17,18
 895 1453 895 1453 997 1438.5 c 128,-1,19
 1099 1424 1099 1424 1176.5 1384 c 128,-1,20
 1254 1344 1254 1344 1300.5 1273 c 128,-1,21
 1347 1202 1347 1202 1347 1088 c 0,22,23
 1347 1026 1347 1026 1330 970.5 c 128,-1,24
 1313 915 1313 915 1275 870.5 c 128,-1,25
 1237 826 1237 826 1175.5 794.5 c 128,-1,26
 1114 763 1114 763 1025 748 c 1,27,-1
 1025 744 l 1,28,29
 1089 736 1089 736 1134.5 720.5 c 128,-1,30
 1180 705 1180 705 1212 679.5 c 128,-1,31
 1244 654 1244 654 1264 618 c 128,-1,32
 1284 582 1284 582 1297 533 c 128,-1,33
 1310 484 1310 484 1318 421.5 c 128,-1,34
 1326 359 1326 359 1333 280 c 0,35,36
 1335 258 1335 258 1336 237.5 c 128,-1,37
 1337 217 1337 217 1337 197 c 0,38,39
 1337 154 1337 154 1329 118 c 128,-1,40
 1321 82 1321 82 1301 56 c 128,-1,41
 1281 30 1281 30 1246 15.5 c 128,-1,42
 1211 1 1211 1 1156 1 c 0,43,44
 1106 1 1106 1 1072.5 24 c 128,-1,45
 1039 47 1039 47 1017 87 c 128,-1,46
 995 127 995 127 983.5 179.5 c 128,-1,47
 972 232 972 232 965 292 c 0,48,49
 955 379 955 379 944.5 437.5 c 128,-1,50
 934 496 934 496 911 532 c 128,-1,51
 888 568 888 568 845.5 583 c 128,-1,52
 803 598 803 598 729 598 c 2,53,-1
 526 598 l 1,54,-1
 526 195 l 2,0,1
680 830 m 2,55,56
 734 830 734 830 788 836.5 c 128,-1,57
 842 843 842 843 885.5 863.5 c 128,-1,58
 929 884 929 884 956 923.5 c 128,-1,59
 983 963 983 963 983 1029 c 0,60,61
 983 1105 983 1105 957 1143 c 128,-1,62
 931 1181 931 1181 888 1200 c 128,-1,63
 845 1219 845 1219 788.5 1223.5 c 128,-1,64
 732 1228 732 1228 671 1228 c 2,65,-1
 520 1228 l 1,66,-1
 520 830 l 1,67,-1
 680 830 l 2,55,56
EndSplineSet
EndChar

StartChar: S
Encoding: 83 83 52
Width: 1371
Flags: W
LayerCount: 2
Fore
SplineSet
461 1073 m 0,0,1
 461 1025 461 1025 493 992 c 128,-1,2
 525 959 525 959 576.5 935 c 128,-1,3
 628 911 628 911 693 893 c 128,-1,4
 758 875 758 875 824 856 c 0,5,6
 930 824 930 824 1016.5 788 c 128,-1,7
 1103 752 1103 752 1164.5 702 c 128,-1,8
 1226 652 1226 652 1259.5 583.5 c 128,-1,9
 1293 515 1293 515 1293 419 c 0,10,11
 1293 314 1293 314 1251.5 230 c 128,-1,12
 1210 146 1210 146 1132 87 c 128,-1,13
 1054 28 1054 28 943.5 -3.5 c 128,-1,14
 833 -35 833 -35 695 -35 c 0,15,16
 624 -35 624 -35 552 -26.5 c 128,-1,17
 480 -18 480 -18 413 -2 c 128,-1,18
 346 14 346 14 287 37 c 128,-1,19
 228 60 228 60 184 89 c 128,-1,20
 140 118 140 118 115 152.5 c 128,-1,21
 90 187 90 187 90 226 c 0,22,23
 90 251 90 251 100.5 275 c 128,-1,24
 111 299 111 299 127.5 318.5 c 128,-1,25
 144 338 144 338 164.5 350 c 128,-1,26
 185 362 185 362 205 362 c 0,27,28
 223 362 223 362 240 356 c 128,-1,29
 257 350 257 350 274.5 341.5 c 128,-1,30
 292 333 292 333 310.5 323 c 128,-1,31
 329 313 329 313 350 305 c 1,32,33
 419 274 419 274 505 249 c 128,-1,34
 591 224 591 224 685 224 c 0,35,36
 736 224 736 224 781.5 233.5 c 128,-1,37
 827 243 827 243 861.5 262.5 c 128,-1,38
 896 282 896 282 916 313 c 128,-1,39
 936 344 936 344 936 388 c 0,40,41
 936 421 936 421 924 447 c 128,-1,42
 912 473 912 473 891 492.5 c 128,-1,43
 870 512 870 512 842 526.5 c 128,-1,44
 814 541 814 541 783 552 c 2,45,-1
 738 568 l 2,46,47
 725 572 725 572 713 576.5 c 128,-1,48
 701 581 701 581 687 585 c 2,49,-1
 635 600 l 2,50,51
 618 604 618 604 606 607.5 c 128,-1,52
 594 611 594 611 584.5 614.5 c 128,-1,53
 575 618 575 618 566 621.5 c 128,-1,54
 557 625 557 625 545 629 c 2,55,-1
 451 662 l 2,56,57
 360 695 360 695 295 731 c 128,-1,58
 230 767 230 767 189 812 c 128,-1,59
 148 857 148 857 128.5 914.5 c 128,-1,60
 109 972 109 972 109 1048 c 0,61,62
 109 1148 109 1148 150.5 1229 c 128,-1,63
 192 1310 192 1310 269.5 1367 c 128,-1,64
 347 1424 347 1424 457.5 1455 c 128,-1,65
 568 1486 568 1486 706 1486 c 0,66,67
 756 1486 756 1486 815 1479.5 c 128,-1,68
 874 1473 874 1473 933 1460 c 128,-1,69
 992 1447 992 1447 1046.5 1426.5 c 128,-1,70
 1101 1406 1101 1406 1143 1378.5 c 128,-1,71
 1185 1351 1185 1351 1210.5 1316 c 128,-1,72
 1236 1281 1236 1281 1236 1238 c 0,73,74
 1236 1213 1236 1213 1226.5 1192 c 128,-1,75
 1217 1171 1217 1171 1201 1156 c 128,-1,76
 1185 1141 1185 1141 1163.5 1132.5 c 128,-1,77
 1142 1124 1142 1124 1119 1124 c 0,78,79
 1089 1124 1089 1124 1064 1137 c 0,80,81
 1017 1161 1017 1161 976.5 1178 c 128,-1,82
 936 1195 936 1195 896 1206 c 128,-1,83
 856 1217 856 1217 813.5 1222 c 128,-1,84
 771 1227 771 1227 720 1227 c 0,85,86
 672 1227 672 1227 625.5 1218.5 c 128,-1,87
 579 1210 579 1210 542.5 1191.5 c 128,-1,88
 506 1173 506 1173 483.5 1144 c 128,-1,89
 461 1115 461 1115 461 1073 c 0,0,1
EndSplineSet
EndChar

StartChar: T
Encoding: 84 84 53
Width: 1238
Flags: W
LayerCount: 2
Fore
SplineSet
161 1188 m 2,0,1
 132 1188 132 1188 106 1198.5 c 128,-1,2
 80 1209 80 1209 60.5 1227 c 128,-1,3
 41 1245 41 1245 29.5 1269 c 128,-1,4
 18 1293 18 1293 18 1320 c 256,5,6
 18 1347 18 1347 29.5 1371.5 c 128,-1,7
 41 1396 41 1396 60.5 1414 c 128,-1,8
 80 1432 80 1432 106 1442.5 c 128,-1,9
 132 1453 132 1453 161 1453 c 2,10,-1
 1074 1453 l 2,11,12
 1103 1453 1103 1453 1129 1442.5 c 128,-1,13
 1155 1432 1155 1432 1174.5 1414 c 128,-1,14
 1194 1396 1194 1396 1205.5 1371.5 c 128,-1,15
 1217 1347 1217 1347 1217 1320 c 256,16,17
 1217 1293 1217 1293 1205.5 1269 c 128,-1,18
 1194 1245 1194 1245 1174.5 1227 c 128,-1,19
 1155 1209 1155 1209 1129 1198.5 c 128,-1,20
 1103 1188 1103 1188 1074 1188 c 2,21,-1
 806 1188 l 1,22,-1
 806 195 l 2,23,24
 806 154 806 154 791.5 118.5 c 128,-1,25
 777 83 777 83 751.5 56.5 c 128,-1,26
 726 30 726 30 692.5 15 c 128,-1,27
 659 0 659 0 620 0 c 256,28,29
 581 0 581 0 547.5 15 c 128,-1,30
 514 30 514 30 489 56.5 c 128,-1,31
 464 83 464 83 449.5 118.5 c 128,-1,32
 435 154 435 154 435 195 c 2,33,-1
 435 1188 l 1,34,-1
 161 1188 l 2,0,1
EndSplineSet
EndChar

StartChar: U
Encoding: 85 85 54
Width: 1539
Flags: W
LayerCount: 2
Fore
SplineSet
1025 1258 m 2,0,1
 1025 1299 1025 1299 1039.5 1334.5 c 128,-1,2
 1054 1370 1054 1370 1079 1396.5 c 128,-1,3
 1104 1423 1104 1423 1137.5 1438 c 128,-1,4
 1171 1453 1171 1453 1210 1453 c 256,5,6
 1249 1453 1249 1453 1282.5 1438 c 128,-1,7
 1316 1423 1316 1423 1341.5 1396.5 c 128,-1,8
 1367 1370 1367 1370 1381.5 1334.5 c 128,-1,9
 1396 1299 1396 1299 1396 1258 c 2,10,-1
 1396 492 l 2,11,12
 1396 360 1396 360 1349.5 261.5 c 128,-1,13
 1303 163 1303 163 1219.5 97 c 128,-1,14
 1136 31 1136 31 1021 -2 c 128,-1,15
 906 -35 906 -35 769 -35 c 0,16,17
 634 -35 634 -35 519.5 -2.5 c 128,-1,18
 405 30 405 30 321.5 95 c 128,-1,19
 238 160 238 160 191 259 c 128,-1,20
 144 358 144 358 144 492 c 2,21,-1
 144 1258 l 2,22,23
 144 1299 144 1299 158.5 1334.5 c 128,-1,24
 173 1370 173 1370 198 1396.5 c 128,-1,25
 223 1423 223 1423 256.5 1438 c 128,-1,26
 290 1453 290 1453 329 1453 c 256,27,28
 368 1453 368 1453 401.5 1438 c 128,-1,29
 435 1423 435 1423 460.5 1396.5 c 128,-1,30
 486 1370 486 1370 500.5 1334.5 c 128,-1,31
 515 1299 515 1299 515 1258 c 2,32,-1
 516 498 l 2,33,34
 516 426 516 426 538 374 c 128,-1,35
 560 322 560 322 595.5 289 c 128,-1,36
 631 256 631 256 676.5 240 c 128,-1,37
 722 224 722 224 769 224 c 0,38,39
 817 224 817 224 862.5 240 c 128,-1,40
 908 256 908 256 944 289 c 128,-1,41
 980 322 980 322 1002.5 374 c 128,-1,42
 1025 426 1025 426 1025 498 c 2,43,-1
 1025 1258 l 2,0,1
EndSplineSet
EndChar

StartChar: V
Encoding: 86 86 55
Width: 1451
Flags: W
LayerCount: 2
Fore
SplineSet
715 271 m 1,0,-1
 720 271 l 1,1,-1
 1023 1289 l 2,2,3
 1035 1331 1035 1331 1056 1361.5 c 128,-1,4
 1077 1392 1077 1392 1102.5 1412 c 128,-1,5
 1128 1432 1128 1432 1156.5 1442 c 128,-1,6
 1185 1452 1185 1452 1213 1452 c 0,7,8
 1242 1452 1242 1452 1268.5 1441.5 c 128,-1,9
 1295 1431 1295 1431 1315.5 1411 c 128,-1,10
 1336 1391 1336 1391 1348 1361 c 128,-1,11
 1360 1331 1360 1331 1360 1292 c 0,12,13
 1360 1247 1360 1247 1344 1196 c 2,14,-1
 1084 393 l 2,15,16
 1051 292 1051 292 1020.5 218.5 c 128,-1,17
 990 145 990 145 950 96 c 128,-1,18
 910 47 910 47 854 23.5 c 128,-1,19
 798 0 798 0 715 0 c 0,20,21
 639 0 639 0 587 17 c 128,-1,22
 535 34 535 34 495.5 76 c 128,-1,23
 456 118 456 118 424 188 c 128,-1,24
 392 258 392 258 357 364 c 2,25,-1
 78 1209 l 2,26,27
 71 1229 71 1229 68.5 1247 c 128,-1,28
 66 1265 66 1265 66 1282 c 0,29,30
 66 1321 66 1321 79.5 1352 c 128,-1,31
 93 1383 93 1383 116 1405.5 c 128,-1,32
 139 1428 139 1428 168 1440 c 128,-1,33
 197 1452 197 1452 229 1452 c 0,34,35
 256 1452 256 1452 283.5 1442.5 c 128,-1,36
 311 1433 311 1433 335.5 1413 c 128,-1,37
 360 1393 360 1393 380 1361.5 c 128,-1,38
 400 1330 400 1330 413 1286 c 2,39,-1
 715 271 l 1,0,-1
EndSplineSet
EndChar

StartChar: W
Encoding: 87 87 56
Width: 2087
Flags: W
LayerCount: 2
Fore
SplineSet
1043 1118 m 1,0,-1
 831 291 l 2,1,2
 814 224 814 224 791.5 170 c 128,-1,3
 769 116 769 116 736 78.5 c 128,-1,4
 703 41 703 41 655.5 20.5 c 128,-1,5
 608 0 608 0 541 0 c 0,6,7
 437 0 437 0 376.5 63.5 c 128,-1,8
 316 127 316 127 283 261 c 2,9,-1
 44 1226 l 2,10,11
 37 1253 37 1253 37 1280 c 0,12,13
 37 1319 37 1319 50.5 1351 c 128,-1,14
 64 1383 64 1383 86.5 1405.5 c 128,-1,15
 109 1428 109 1428 138 1440.5 c 128,-1,16
 167 1453 167 1453 198 1453 c 0,17,18
 224 1453 224 1453 250 1443 c 128,-1,19
 276 1433 276 1433 298.5 1412 c 128,-1,20
 321 1391 321 1391 338.5 1358 c 128,-1,21
 356 1325 356 1325 366 1279 c 2,22,-1
 567 329 l 1,23,-1
 783 1163 l 2,24,25
 797 1218 797 1218 816 1270.5 c 128,-1,26
 835 1323 835 1323 864 1363.5 c 128,-1,27
 893 1404 893 1404 936 1428.5 c 128,-1,28
 979 1453 979 1453 1042 1453 c 0,29,30
 1096 1453 1096 1453 1137 1433.5 c 128,-1,31
 1178 1414 1178 1414 1209.5 1377 c 128,-1,32
 1241 1340 1241 1340 1264 1286 c 128,-1,33
 1287 1232 1287 1232 1306 1163 c 0,34,35
 1363 954 1363 954 1417.5 746.5 c 128,-1,36
 1472 539 1472 539 1528 330 c 1,37,-1
 1728 1291 l 2,38,39
 1737 1332 1737 1332 1755 1362.5 c 128,-1,40
 1773 1393 1773 1393 1797 1413.5 c 128,-1,41
 1821 1434 1821 1434 1849 1444 c 128,-1,42
 1877 1454 1877 1454 1905 1454 c 256,43,44
 1933 1454 1933 1454 1959.5 1444 c 128,-1,45
 1986 1434 1986 1434 2006 1413.5 c 128,-1,46
 2026 1393 2026 1393 2038.5 1363.5 c 128,-1,47
 2051 1334 2051 1334 2051 1295 c 0,48,49
 2051 1264 2051 1264 2042 1228 c 2,50,-1
 1813 296 l 2,51,52
 1797 232 1797 232 1775.5 177.5 c 128,-1,53
 1754 123 1754 123 1722 83.5 c 128,-1,54
 1690 44 1690 44 1645.5 22 c 128,-1,55
 1601 0 1601 0 1538 0 c 0,56,57
 1476 0 1476 0 1431 20 c 128,-1,58
 1386 40 1386 40 1352 80.5 c 128,-1,59
 1318 121 1318 121 1293 183 c 128,-1,60
 1268 245 1268 245 1246 329 c 2,61,-1
 1043 1118 l 1,0,-1
EndSplineSet
EndChar

StartChar: X
Encoding: 88 88 57
Width: 1374
Flags: W
LayerCount: 2
Fore
SplineSet
369 89 m 2,0,1
 337 42 337 42 297 21 c 128,-1,2
 257 0 257 0 218 0 c 0,3,4
 189 0 189 0 163.5 10.5 c 128,-1,5
 138 21 138 21 119 40 c 128,-1,6
 100 59 100 59 88.5 85.5 c 128,-1,7
 77 112 77 112 77 144 c 256,8,9
 77 176 77 176 89.5 212 c 128,-1,10
 102 248 102 248 131 287 c 2,11,-1
 470 745 l 1,12,-1
 150 1175 l 2,13,14
 128 1204 128 1204 118.5 1233 c 128,-1,15
 109 1262 109 1262 109 1289 c 0,16,17
 109 1324 109 1324 122.5 1354 c 128,-1,18
 136 1384 136 1384 158.5 1405.5 c 128,-1,19
 181 1427 181 1427 211 1439.5 c 128,-1,20
 241 1452 241 1452 273 1452 c 0,21,22
 312 1452 312 1452 351 1430 c 128,-1,23
 390 1408 390 1408 422 1360 c 2,24,-1
 705 940 l 1,25,-1
 987 1350 l 2,26,27
 1025 1405 1025 1405 1067.5 1428.5 c 128,-1,28
 1110 1452 1110 1452 1150 1452 c 0,29,30
 1180 1452 1180 1452 1207 1440.5 c 128,-1,31
 1234 1429 1234 1429 1254 1409.5 c 128,-1,32
 1274 1390 1274 1390 1285.5 1364 c 128,-1,33
 1297 1338 1297 1338 1297 1309 c 0,34,35
 1297 1259 1297 1259 1262 1211 c 2,36,-1
 915 745 l 1,37,-1
 1265 263 l 2,38,39
 1282 240 1282 240 1289.5 215 c 128,-1,40
 1297 190 1297 190 1297 167 c 0,41,42
 1297 134 1297 134 1283.5 103.5 c 128,-1,43
 1270 73 1270 73 1247.5 50 c 128,-1,44
 1225 27 1225 27 1195.5 13 c 128,-1,45
 1166 -1 1166 -1 1133 -1 c 0,46,47
 1094 -1 1094 -1 1054 21.5 c 128,-1,48
 1014 44 1014 44 979 97 c 2,49,-1
 681 539 l 1,50,-1
 369 89 l 2,0,1
EndSplineSet
EndChar

StartChar: Y
Encoding: 89 89 58
Width: 1391
Flags: W
LayerCount: 2
Fore
SplineSet
883 195 m 1,0,1
 882 154 882 154 867 118.5 c 128,-1,2
 852 83 852 83 826.5 56.5 c 128,-1,3
 801 30 801 30 767.5 15 c 128,-1,4
 734 0 734 0 695 0 c 256,5,6
 656 0 656 0 622.5 15 c 128,-1,7
 589 30 589 30 564 56.5 c 128,-1,8
 539 83 539 83 524.5 118.5 c 128,-1,9
 510 154 510 154 510 195 c 2,10,-1
 510 556 l 1,11,-1
 143 1169 l 2,12,13
 124 1200 124 1200 116 1229.5 c 128,-1,14
 108 1259 108 1259 108 1287 c 0,15,16
 108 1324 108 1324 121.5 1354.5 c 128,-1,17
 135 1385 135 1385 157.5 1407 c 128,-1,18
 180 1429 180 1429 209.5 1441 c 128,-1,19
 239 1453 239 1453 271 1453 c 0,20,21
 319 1453 319 1453 367 1423 c 128,-1,22
 415 1393 415 1393 448 1324 c 1,23,-1
 711 801 l 1,24,-1
 715 801 l 1,25,-1
 989 1328 l 2,26,27
 1023 1394 1023 1394 1069 1423 c 128,-1,28
 1115 1452 1115 1452 1162 1452 c 0,29,30
 1190 1452 1190 1452 1215.5 1442 c 128,-1,31
 1241 1432 1241 1432 1260 1414 c 128,-1,32
 1279 1396 1279 1396 1290 1370 c 128,-1,33
 1301 1344 1301 1344 1301 1313 c 0,34,35
 1301 1287 1301 1287 1293 1258.5 c 128,-1,36
 1285 1230 1285 1230 1266 1199 c 2,37,-1
 883 562 l 1,38,-1
 883 195 l 1,0,1
EndSplineSet
EndChar

StartChar: Z
Encoding: 90 90 59
Width: 1278
Flags: W
LayerCount: 2
Fore
SplineSet
1083 259 m 2,0,1
 1110 259 1110 259 1133.5 249 c 128,-1,2
 1157 239 1157 239 1175 221 c 128,-1,3
 1193 203 1193 203 1203 179.5 c 128,-1,4
 1213 156 1213 156 1213 129 c 256,5,6
 1213 102 1213 102 1203 78.5 c 128,-1,7
 1193 55 1193 55 1175 37.5 c 128,-1,8
 1157 20 1157 20 1133.5 10 c 128,-1,9
 1110 0 1110 0 1083 0 c 2,10,-1
 208 0 l 2,11,12
 172 0 172 0 144 9.5 c 128,-1,13
 116 19 116 19 97.5 35.5 c 128,-1,14
 79 52 79 52 69.5 74.5 c 128,-1,15
 60 97 60 97 60 122 c 0,16,17
 60 155 60 155 78.5 197 c 128,-1,18
 97 239 97 239 123 276 c 0,19,20
 286 506 286 506 446.5 735 c 128,-1,21
 607 964 607 964 769 1194 c 1,22,-1
 204 1194 l 2,23,24
 177 1194 177 1194 153.5 1204 c 128,-1,25
 130 1214 130 1214 112.5 1231.5 c 128,-1,26
 95 1249 95 1249 85 1272.5 c 128,-1,27
 75 1296 75 1296 75 1323 c 256,28,29
 75 1350 75 1350 85 1373.5 c 128,-1,30
 95 1397 95 1397 112.5 1415 c 128,-1,31
 130 1433 130 1433 153.5 1443 c 128,-1,32
 177 1453 177 1453 204 1453 c 2,33,-1
 1042 1453 l 2,34,35
 1077 1453 1077 1453 1107.5 1446.5 c 128,-1,36
 1138 1440 1138 1440 1161 1425.5 c 128,-1,37
 1184 1411 1184 1411 1197.5 1387 c 128,-1,38
 1211 1363 1211 1363 1211 1329 c 256,39,40
 1211 1295 1211 1295 1192.5 1255 c 128,-1,41
 1174 1215 1174 1215 1149 1180 c 2,42,-1
 499 259 l 1,43,-1
 1083 259 l 2,0,1
EndSplineSet
EndChar

StartChar: bracketleft
Encoding: 91 91 60
Width: 789
Flags: W
LayerCount: 2
Fore
SplineSet
169 1305 m 2,0,1
 169 1339 169 1339 181.5 1366.5 c 128,-1,2
 194 1394 194 1394 216.5 1412.5 c 128,-1,3
 239 1431 239 1431 269.5 1441 c 128,-1,4
 300 1451 300 1451 337 1451 c 2,5,-1
 585 1451 l 2,6,7
 610 1451 610 1451 631 1442 c 128,-1,8
 652 1433 652 1433 666 1418 c 128,-1,9
 680 1403 680 1403 688 1382.5 c 128,-1,10
 696 1362 696 1362 696 1339 c 0,11,12
 696 1285 696 1285 660.5 1256 c 128,-1,13
 625 1227 625 1227 562 1227 c 2,14,-1
 460 1227 l 1,15,-1
 460 -20 l 1,16,-1
 562 -20 l 2,17,18
 625 -20 625 -20 660.5 -48.5 c 128,-1,19
 696 -77 696 -77 696 -131 c 0,20,21
 696 -182 696 -182 662.5 -212.5 c 128,-1,22
 629 -243 629 -243 563 -245 c 1,23,-1
 337 -245 l 2,24,25
 296 -245 296 -245 265 -235.5 c 128,-1,26
 234 -226 234 -226 212.5 -203.5 c 128,-1,27
 191 -181 191 -181 180 -144 c 128,-1,28
 169 -107 169 -107 169 -53 c 2,29,-1
 169 1305 l 2,0,1
EndSplineSet
EndChar

StartChar: backslash
Encoding: 92 92 61
Width: 669
Flags: W
LayerCount: 2
Fore
SplineSet
7 1370 m 2,0,1
 3 1381 3 1381 2 1391 c 128,-1,2
 1 1401 1 1401 1 1409 c 0,3,4
 1 1457 1 1457 31.5 1480.5 c 128,-1,5
 62 1504 62 1504 104 1504 c 0,6,7
 127 1504 127 1504 145 1493.5 c 128,-1,8
 163 1483 163 1483 176.5 1465.5 c 128,-1,9
 190 1448 190 1448 200.5 1425.5 c 128,-1,10
 211 1403 211 1403 220 1379 c 2,11,-1
 653 90 l 2,12,13
 658 73 658 73 663 56.5 c 128,-1,14
 668 40 668 40 668 25 c 0,15,16
 668 2 668 2 658.5 -15.5 c 128,-1,17
 649 -33 649 -33 634 -45 c 128,-1,18
 619 -57 619 -57 600 -63.5 c 128,-1,19
 581 -70 581 -70 563 -70 c 0,20,21
 540 -70 540 -70 523 -60 c 128,-1,22
 506 -50 506 -50 492.5 -32.5 c 128,-1,23
 479 -15 479 -15 469 7.5 c 128,-1,24
 459 30 459 30 451 54 c 2,25,-1
 7 1370 l 2,0,1
EndSplineSet
EndChar

StartChar: bracketright
Encoding: 93 93 62
Width: 789
Flags: W
LayerCount: 2
Fore
SplineSet
619 -100 m 2,0,1
 619 -134 619 -134 606 -161 c 128,-1,2
 593 -188 593 -188 570.5 -206.5 c 128,-1,3
 548 -225 548 -225 517 -235 c 128,-1,4
 486 -245 486 -245 451 -245 c 2,5,-1
 203 -245 l 1,6,7
 147 -240 147 -240 119 -207 c 128,-1,8
 91 -174 91 -174 91 -131 c 0,9,10
 91 -80 91 -80 124.5 -50 c 128,-1,11
 158 -20 158 -20 226 -20 c 2,12,-1
 327 -20 l 1,13,-1
 327 1227 l 1,14,-1
 226 1227 l 2,15,16
 162 1227 162 1227 127 1255.5 c 128,-1,17
 92 1284 92 1284 92 1339 c 0,18,19
 92 1390 92 1390 125 1420.5 c 128,-1,20
 158 1451 158 1451 225 1451 c 2,21,-1
 451 1451 l 2,22,23
 490 1451 490 1451 521 1441.5 c 128,-1,24
 552 1432 552 1432 574 1409.5 c 128,-1,25
 596 1387 596 1387 607.5 1350 c 128,-1,26
 619 1313 619 1313 619 1258 c 2,27,-1
 619 -100 l 2,0,1
EndSplineSet
EndChar

StartChar: asciicircum
Encoding: 94 94 63
Width: 1287
Flags: W
LayerCount: 2
Fore
SplineSet
642 1211 m 1,0,1
 579 1083 579 1083 517 956.5 c 128,-1,2
 455 830 455 830 392 702 c 0,3,4
 372 661 372 661 347.5 634 c 128,-1,5
 323 607 323 607 288 607 c 0,6,7
 250 607 250 607 222.5 631.5 c 128,-1,8
 195 656 195 656 195 697 c 0,9,10
 195 713 195 713 205 735.5 c 128,-1,11
 215 758 215 758 225 778 c 2,12,-1
 501 1331 l 2,13,14
 513 1355 513 1355 526.5 1376.5 c 128,-1,15
 540 1398 540 1398 557 1414.5 c 128,-1,16
 574 1431 574 1431 595 1441 c 128,-1,17
 616 1451 616 1451 643 1451 c 0,18,19
 691 1451 691 1451 723 1419.5 c 128,-1,20
 755 1388 755 1388 784 1331 c 2,21,-1
 1060 778 l 2,22,23
 1070 758 1070 758 1079.5 735 c 128,-1,24
 1089 712 1089 712 1089 695 c 0,25,26
 1089 656 1089 656 1062 633 c 128,-1,27
 1035 610 1035 610 997 610 c 0,28,29
 962 610 962 610 938 637 c 128,-1,30
 914 664 914 664 892 702 c 1,31,-1
 642 1211 l 1,0,1
EndSplineSet
EndChar

StartChar: underscore
Encoding: 95 95 64
Width: 1024
Flags: W
LayerCount: 2
Fore
SplineSet
66 -255 m 2,0,1
 33 -255 33 -255 16.5 -234 c 128,-1,2
 0 -213 0 -213 0 -187 c 0,3,4
 0 -150 0 -150 23 -134 c 128,-1,5
 46 -118 46 -118 94 -118 c 2,6,-1
 956 -118 l 2,7,8
 989 -118 989 -118 1006 -139 c 128,-1,9
 1023 -160 1023 -160 1023 -187 c 0,10,11
 1023 -224 1023 -224 998 -239.5 c 128,-1,12
 973 -255 973 -255 928 -255 c 2,13,-1
 66 -255 l 2,0,1
EndSplineSet
EndChar

StartChar: quoteleft
Encoding: 8216 8216 65
Width: 649
Flags: W
LayerCount: 2
Fore
SplineSet
271 1451 m 1,0,-1
 544 1451 l 1,1,-1
 427 930 l 1,2,-1
 99 930 l 1,3,-1
 271 1451 l 1,0,-1
EndSplineSet
EndChar

StartChar: a
Encoding: 97 97 66
Width: 1123
Flags: W
LayerCount: 2
Fore
SplineSet
712 658 m 2,0,1
 712 742 712 742 667.5 777 c 128,-1,2
 623 812 623 812 548 812 c 0,3,4
 503 812 503 812 464 807 c 128,-1,5
 425 802 425 802 390.5 794.5 c 128,-1,6
 356 787 356 787 325 779 c 128,-1,7
 294 771 294 771 266 764 c 0,8,9
 243 758 243 758 225 758 c 0,10,11
 192 758 192 758 165.5 779.5 c 128,-1,12
 139 801 139 801 139 839 c 0,13,14
 139 876 139 876 158 904 c 128,-1,15
 177 932 177 932 209.5 952.5 c 128,-1,16
 242 973 242 973 285 986.5 c 128,-1,17
 328 1000 328 1000 375.5 1008 c 128,-1,18
 423 1016 423 1016 473 1019.5 c 128,-1,19
 523 1023 523 1023 569 1023 c 0,20,21
 665 1023 665 1023 745 1001.5 c 128,-1,22
 825 980 825 980 882.5 930 c 128,-1,23
 940 880 940 880 972.5 799 c 128,-1,24
 1005 718 1005 718 1005 600 c 2,25,-1
 1005 200 l 2,26,27
 1005 161 1005 161 1000 125 c 128,-1,28
 995 89 995 89 980 61 c 128,-1,29
 965 33 965 33 937 16.5 c 128,-1,30
 909 0 909 0 863 0 c 0,31,32
 791 0 791 0 756.5 47.5 c 128,-1,33
 722 95 722 95 722 183 c 1,34,35
 696 132 696 132 658.5 95 c 128,-1,36
 621 58 621 58 576 34.5 c 128,-1,37
 531 11 531 11 480.5 -0.5 c 128,-1,38
 430 -12 430 -12 378 -12 c 0,39,40
 308 -12 308 -12 248 8.5 c 128,-1,41
 188 29 188 29 144.5 66.5 c 128,-1,42
 101 104 101 104 76.5 156.5 c 128,-1,43
 52 209 52 209 52 274 c 0,44,45
 52 365 52 365 90 430 c 128,-1,46
 128 495 128 495 200.5 536 c 128,-1,47
 273 577 273 577 377.5 596 c 128,-1,48
 482 615 482 615 616 615 c 2,49,-1
 712 615 l 1,50,-1
 712 658 l 2,0,1
711 466 m 1,51,52
 643 468 643 468 576 464 c 128,-1,53
 509 460 509 460 456 442.5 c 128,-1,54
 403 425 403 425 370.5 391 c 128,-1,55
 338 357 338 357 338 299 c 0,56,57
 338 267 338 267 350 241 c 128,-1,58
 362 215 362 215 383.5 196 c 128,-1,59
 405 177 405 177 434.5 167 c 128,-1,60
 464 157 464 157 500 157 c 0,61,62
 546 157 546 157 584.5 173.5 c 128,-1,63
 623 190 623 190 651 221.5 c 128,-1,64
 679 253 679 253 695 298.5 c 128,-1,65
 711 344 711 344 711 403 c 2,66,-1
 711 466 l 1,51,52
EndSplineSet
EndChar

StartChar: b
Encoding: 98 98 67
Width: 1255
Flags: W
LayerCount: 2
Fore
SplineSet
434 514 m 0,0,1
 434 433 434 433 444.5 370.5 c 128,-1,2
 455 308 455 308 480.5 266 c 128,-1,3
 506 224 506 224 549 202 c 128,-1,4
 592 180 592 180 658 180 c 0,5,6
 718 180 718 180 757.5 208 c 128,-1,7
 797 236 797 236 819.5 282.5 c 128,-1,8
 842 329 842 329 851 388.5 c 128,-1,9
 860 448 860 448 860 511 c 0,10,11
 860 571 860 571 850.5 628 c 128,-1,12
 841 685 841 685 817.5 730 c 128,-1,13
 794 775 794 775 753.5 802 c 128,-1,14
 713 829 713 829 651 829 c 0,15,16
 588 829 588 829 546.5 805.5 c 128,-1,17
 505 782 505 782 479.5 740.5 c 128,-1,18
 454 699 454 699 444 641 c 128,-1,19
 434 583 434 583 434 514 c 0,0,1
433 830 m 1,20,21
 487 920 487 920 577 971.5 c 128,-1,22
 667 1023 667 1023 784 1023 c 0,23,24
 869 1023 869 1023 942.5 987 c 128,-1,25
 1016 951 1016 951 1070 884.5 c 128,-1,26
 1124 818 1124 818 1154.5 723.5 c 128,-1,27
 1185 629 1185 629 1185 512 c 0,28,29
 1185 409 1185 409 1157.5 314.5 c 128,-1,30
 1130 220 1130 220 1079 147.5 c 128,-1,31
 1028 75 1028 75 954.5 31.5 c 128,-1,32
 881 -12 881 -12 789 -12 c 0,33,34
 679 -12 679 -12 586.5 39.5 c 128,-1,35
 494 91 494 91 433 197 c 1,36,37
 433 102 433 102 394.5 51 c 128,-1,38
 356 0 356 0 267 0 c 0,39,40
 183 0 183 0 148.5 51 c 128,-1,41
 114 102 114 102 114 197 c 2,42,-1
 114 1254 l 2,43,44
 114 1349 114 1349 148.5 1400 c 128,-1,45
 183 1451 183 1451 267 1451 c 0,46,47
 356 1451 356 1451 394.5 1400 c 128,-1,48
 433 1349 433 1349 433 1254 c 2,49,-1
 433 830 l 1,20,21
EndSplineSet
EndChar

StartChar: c
Encoding: 99 99 68
Width: 1031
Flags: W
LayerCount: 2
Fore
SplineSet
72 507 m 0,0,1
 72 620 72 620 113 715 c 128,-1,2
 154 810 154 810 225.5 879 c 128,-1,3
 297 948 297 948 394.5 986.5 c 128,-1,4
 492 1025 492 1025 606 1025 c 0,5,6
 666 1025 666 1025 726.5 1015 c 128,-1,7
 787 1005 787 1005 835.5 984 c 128,-1,8
 884 963 884 963 914.5 930.5 c 128,-1,9
 945 898 945 898 945 853 c 0,10,11
 945 809 945 809 916.5 783 c 128,-1,12
 888 757 888 757 844 757 c 0,13,14
 821 757 821 757 796 762 c 128,-1,15
 771 767 771 767 744.5 772.5 c 128,-1,16
 718 778 718 778 692 783 c 128,-1,17
 666 788 666 788 642 788 c 0,18,19
 591 788 591 788 546 770.5 c 128,-1,20
 501 753 501 753 468 718 c 128,-1,21
 435 683 435 683 415.5 631 c 128,-1,22
 396 579 396 579 396 509 c 0,23,24
 396 453 396 453 411 402 c 128,-1,25
 426 351 426 351 456.5 312.5 c 128,-1,26
 487 274 487 274 533.5 251 c 128,-1,27
 580 228 580 228 643 228 c 0,28,29
 668 228 668 228 696.5 233 c 128,-1,30
 725 238 725 238 753 244.5 c 128,-1,31
 781 251 781 251 808.5 256 c 128,-1,32
 836 261 836 261 860 261 c 0,33,34
 902 261 902 261 930.5 235.5 c 128,-1,35
 959 210 959 210 959 168 c 0,36,37
 959 125 959 125 928 91.5 c 128,-1,38
 897 58 897 58 846 35 c 128,-1,39
 795 12 795 12 729.5 0 c 128,-1,40
 664 -12 664 -12 595 -12 c 0,41,42
 496 -12 496 -12 401.5 20.5 c 128,-1,43
 307 53 307 53 234 117.5 c 128,-1,44
 161 182 161 182 116.5 279.5 c 128,-1,45
 72 377 72 377 72 507 c 0,0,1
EndSplineSet
EndChar

StartChar: d
Encoding: 100 100 69
Width: 1258
Flags: W
LayerCount: 2
Fore
SplineSet
613 829 m 0,0,1
 553 829 553 829 512.5 804 c 128,-1,2
 472 779 472 779 448 735.5 c 128,-1,3
 424 692 424 692 413.5 634 c 128,-1,4
 403 576 403 576 403 511 c 0,5,6
 403 454 403 454 411 395 c 128,-1,7
 419 336 419 336 441 288 c 128,-1,8
 463 240 463 240 502.5 209 c 128,-1,9
 542 178 542 178 605 178 c 0,10,11
 667 178 667 178 709.5 198 c 128,-1,12
 752 218 752 218 778.5 259.5 c 128,-1,13
 805 301 805 301 816.5 364.5 c 128,-1,14
 828 428 828 428 828 514 c 0,15,16
 828 585 828 585 817 643 c 128,-1,17
 806 701 806 701 781 742.5 c 128,-1,18
 756 784 756 784 715 806.5 c 128,-1,19
 674 829 674 829 613 829 c 0,0,1
831 1255 m 2,20,21
 831 1350 831 1350 865.5 1401 c 128,-1,22
 900 1452 900 1452 984 1452 c 0,23,24
 1073 1452 1073 1452 1111.5 1401 c 128,-1,25
 1150 1350 1150 1350 1150 1255 c 2,26,-1
 1150 197 l 2,27,28
 1150 102 1150 102 1111.5 51 c 128,-1,29
 1073 0 1073 0 984 0 c 0,30,31
 900 0 900 0 865.5 51 c 128,-1,32
 831 102 831 102 831 197 c 1,33,34
 769 86 769 86 680.5 37 c 128,-1,35
 592 -12 592 -12 474 -12 c 0,36,37
 383 -12 383 -12 310 29.5 c 128,-1,38
 237 71 237 71 185.5 142.5 c 128,-1,39
 134 214 134 214 106.5 309.5 c 128,-1,40
 79 405 79 405 79 512 c 0,41,42
 79 626 79 626 108 720 c 128,-1,43
 137 814 137 814 189.5 881.5 c 128,-1,44
 242 949 242 949 316.5 986 c 128,-1,45
 391 1023 391 1023 481 1023 c 0,46,47
 592 1023 592 1023 682.5 973 c 128,-1,48
 773 923 773 923 831 830 c 1,49,-1
 831 1255 l 2,20,21
EndSplineSet
EndChar

StartChar: e
Encoding: 101 101 70
Width: 1187
Flags: W
LayerCount: 2
Fore
SplineSet
1110 536 m 0,0,1
 1110 495 1110 495 1083 475 c 128,-1,2
 1056 455 1056 455 1008 455 c 2,3,-1
 389 455 l 1,4,5
 394 334 394 334 458.5 267.5 c 128,-1,6
 523 201 523 201 655 201 c 0,7,8
 698 201 698 201 735.5 206.5 c 128,-1,9
 773 212 773 212 809 221.5 c 128,-1,10
 845 231 845 231 881 243 c 128,-1,11
 917 255 917 255 956 268 c 0,12,13
 969 273 969 273 979 273 c 0,14,15
 1012 273 1012 273 1032 247.5 c 128,-1,16
 1052 222 1052 222 1052 188 c 0,17,18
 1052 168 1052 168 1045 150 c 0,19,20
 1025 102 1025 102 979 70.5 c 128,-1,21
 933 39 933 39 873 20.5 c 128,-1,22
 813 2 813 2 746 -5 c 128,-1,23
 679 -12 679 -12 618 -12 c 0,24,25
 503 -12 503 -12 403.5 21 c 128,-1,26
 304 54 304 54 231 119 c 128,-1,27
 158 184 158 184 116.5 282 c 128,-1,28
 75 380 75 380 75 509 c 0,29,30
 75 617 75 617 115 711 c 128,-1,31
 155 805 155 805 226.5 874 c 128,-1,32
 298 943 298 943 396.5 983 c 128,-1,33
 495 1023 495 1023 613 1023 c 0,34,35
 741 1023 741 1023 834 983.5 c 128,-1,36
 927 944 927 944 988 877.5 c 128,-1,37
 1049 811 1049 811 1079 722.5 c 128,-1,38
 1109 634 1109 634 1110 536 c 0,0,1
843 597 m 1,39,40
 840 650 840 650 824.5 695 c 128,-1,41
 809 740 809 740 780.5 773 c 128,-1,42
 752 806 752 806 710.5 824.5 c 128,-1,43
 669 843 669 843 614 843 c 0,44,45
 564 843 564 843 523.5 823.5 c 128,-1,46
 483 804 483 804 453.5 770.5 c 128,-1,47
 424 737 424 737 407.5 692.5 c 128,-1,48
 391 648 391 648 388 597 c 1,49,-1
 843 597 l 1,39,40
EndSplineSet
EndChar

StartChar: f
Encoding: 102 102 71
Width: 754
Flags: W
LayerCount: 2
Fore
SplineSet
517 197 m 2,0,1
 517 102 517 102 478.5 51 c 128,-1,2
 440 0 440 0 351 0 c 0,3,4
 267 0 267 0 232.5 51 c 128,-1,5
 198 102 198 102 198 197 c 2,6,-1
 197 824 l 1,7,-1
 147 824 l 2,8,9
 120 824 120 824 96 828.5 c 128,-1,10
 72 833 72 833 54.5 844 c 128,-1,11
 37 855 37 855 26.5 872.5 c 128,-1,12
 16 890 16 890 16 917 c 0,13,14
 16 955 16 955 45 982.5 c 128,-1,15
 74 1010 74 1010 134 1010 c 2,16,-1
 197 1010 l 1,17,-1
 197 1074 l 2,18,19
 197 1179 197 1179 217.5 1253.5 c 128,-1,20
 238 1328 238 1328 280 1376 c 128,-1,21
 322 1424 322 1424 386.5 1446 c 128,-1,22
 451 1468 451 1468 540 1468 c 0,23,24
 586 1468 586 1468 630.5 1464.5 c 128,-1,25
 675 1461 675 1461 710.5 1449 c 128,-1,26
 746 1437 746 1437 768 1413 c 128,-1,27
 790 1389 790 1389 790 1348 c 0,28,29
 790 1303 790 1303 763 1276 c 128,-1,30
 736 1249 736 1249 686 1249 c 0,31,32
 674 1249 674 1249 662 1249.5 c 128,-1,33
 650 1250 650 1250 639 1250 c 0,34,35
 601 1250 601 1250 577.5 1240.5 c 128,-1,36
 554 1231 554 1231 540.5 1207 c 128,-1,37
 527 1183 527 1183 522 1141.5 c 128,-1,38
 517 1100 517 1100 517 1036 c 2,39,-1
 517 1010 l 1,40,-1
 613 1010 l 2,41,42
 635 1010 635 1010 656 1004.5 c 128,-1,43
 677 999 677 999 693 988 c 128,-1,44
 709 977 709 977 719 959.5 c 128,-1,45
 729 942 729 942 729 917 c 0,46,47
 729 870 729 870 695.5 847 c 128,-1,48
 662 824 662 824 601 824 c 2,49,-1
 517 824 l 1,50,-1
 517 197 l 2,0,1
EndSplineSet
EndChar

StartChar: g
Encoding: 103 103 72
Width: 1258
Flags: W
LayerCount: 2
Fore
SplineSet
843 193 m 1,0,1
 816 143 816 143 777.5 108 c 128,-1,2
 739 73 739 73 692.5 50.5 c 128,-1,3
 646 28 646 28 593.5 17.5 c 128,-1,4
 541 7 541 7 486 7 c 0,5,6
 394 7 394 7 318 40 c 128,-1,7
 242 73 242 73 187.5 135.5 c 128,-1,8
 133 198 133 198 103 289 c 128,-1,9
 73 380 73 380 73 497 c 0,10,11
 73 607 73 607 101 703 c 128,-1,12
 129 799 129 799 182.5 870 c 128,-1,13
 236 941 236 941 314 982 c 128,-1,14
 392 1023 392 1023 492 1023 c 0,15,16
 606 1023 606 1023 694.5 979 c 128,-1,17
 783 935 783 935 847 835 c 1,18,-1
 847 861 l 2,19,20
 847 933 847 933 886.5 969.5 c 128,-1,21
 926 1006 926 1006 996 1006 c 0,22,23
 1038 1006 1038 1006 1067 992.5 c 128,-1,24
 1096 979 1096 979 1113 952.5 c 128,-1,25
 1130 926 1130 926 1137.5 887.5 c 128,-1,26
 1145 849 1145 849 1145 800 c 2,27,-1
 1145 130 l 2,28,29
 1145 8 1145 8 1114.5 -88 c 128,-1,30
 1084 -184 1084 -184 1020 -250 c 128,-1,31
 956 -316 956 -316 856 -350.5 c 128,-1,32
 756 -385 756 -385 618 -385 c 0,33,34
 521 -385 521 -385 446.5 -376.5 c 128,-1,35
 372 -368 372 -368 318 -351 c 1,36,37
 264 -332 264 -332 236.5 -309 c 128,-1,38
 209 -286 209 -286 209 -249 c 0,39,40
 209 -228 209 -228 215 -209 c 128,-1,41
 221 -190 221 -190 233.5 -175.5 c 128,-1,42
 246 -161 246 -161 266.5 -152.5 c 128,-1,43
 287 -144 287 -144 317 -144 c 0,44,45
 349 -144 349 -144 381.5 -148 c 128,-1,46
 414 -152 414 -152 449.5 -156.5 c 128,-1,47
 485 -161 485 -161 524.5 -165 c 128,-1,48
 564 -169 564 -169 610 -169 c 0,49,50
 665 -169 665 -169 708 -158 c 128,-1,51
 751 -147 751 -147 781 -119 c 128,-1,52
 811 -91 811 -91 827 -44.5 c 128,-1,53
 843 2 843 2 843 74 c 2,54,-1
 843 193 l 1,0,1
843 504 m 0,55,56
 843 577 843 577 832.5 637 c 128,-1,57
 822 697 822 697 797 739.5 c 128,-1,58
 772 782 772 782 730 805.5 c 128,-1,59
 688 829 688 829 625 829 c 0,60,61
 563 829 563 829 522.5 804 c 128,-1,62
 482 779 482 779 458 735 c 128,-1,63
 434 691 434 691 424.5 632 c 128,-1,64
 415 573 415 573 415 506 c 0,65,66
 415 353 415 353 469 276 c 128,-1,67
 523 199 523 199 626 199 c 1,68,69
 674 200 674 200 713.5 217.5 c 128,-1,70
 753 235 753 235 782 272 c 128,-1,71
 811 309 811 309 827 366 c 128,-1,72
 843 423 843 423 843 504 c 0,55,56
EndSplineSet
EndChar

StartChar: h
Encoding: 104 104 73
Width: 1238
Flags: W
LayerCount: 2
Fore
SplineSet
435 804 m 1,0,1
 453 852 453 852 486.5 892.5 c 128,-1,2
 520 933 520 933 565.5 962 c 128,-1,3
 611 991 611 991 667 1007 c 128,-1,4
 723 1023 723 1023 786 1023 c 0,5,6
 851 1023 851 1023 911.5 999.5 c 128,-1,7
 972 976 972 976 1019 929.5 c 128,-1,8
 1066 883 1066 883 1094 813 c 128,-1,9
 1122 743 1122 743 1122 649 c 2,10,-1
 1121 197 l 2,11,12
 1121 102 1121 102 1082.5 51 c 128,-1,13
 1044 0 1044 0 955 0 c 0,14,15
 871 0 871 0 836.5 51 c 128,-1,16
 802 102 802 102 802 197 c 2,17,-1
 802 635 l 2,18,19
 802 682 802 682 789.5 717.5 c 128,-1,20
 777 753 777 753 755.5 777 c 128,-1,21
 734 801 734 801 704 813 c 128,-1,22
 674 825 674 825 640 825 c 0,23,24
 599 825 599 825 562 811.5 c 128,-1,25
 525 798 525 798 497 771 c 128,-1,26
 469 744 469 744 452.5 703.5 c 128,-1,27
 436 663 436 663 436 608 c 2,28,-1
 436 197 l 2,29,30
 436 102 436 102 397.5 51 c 128,-1,31
 359 0 359 0 270 0 c 0,32,33
 186 0 186 0 151.5 51 c 128,-1,34
 117 102 117 102 117 197 c 2,35,-1
 116 1255 l 2,36,37
 116 1350 116 1350 150.5 1401 c 128,-1,38
 185 1452 185 1452 269 1452 c 0,39,40
 358 1452 358 1452 396.5 1401 c 128,-1,41
 435 1350 435 1350 435 1255 c 2,42,-1
 435 804 l 1,0,1
EndSplineSet
EndChar

StartChar: i
Encoding: 105 105 74
Width: 554
Flags: W
LayerCount: 2
Fore
SplineSet
451 1362 m 0,0,1
 451 1329 451 1329 436 1303.5 c 128,-1,2
 421 1278 421 1278 397 1261 c 128,-1,3
 373 1244 373 1244 341.5 1235.5 c 128,-1,4
 310 1227 310 1227 277 1227 c 0,5,6
 242 1227 242 1227 210.5 1236 c 128,-1,7
 179 1245 179 1245 155 1262.5 c 128,-1,8
 131 1280 131 1280 117 1305 c 128,-1,9
 103 1330 103 1330 103 1362 c 0,10,11
 103 1391 103 1391 116.5 1415.5 c 128,-1,12
 130 1440 130 1440 153 1458 c 128,-1,13
 176 1476 176 1476 208 1486 c 128,-1,14
 240 1496 240 1496 278 1496 c 0,15,16
 311 1496 311 1496 342.5 1487 c 128,-1,17
 374 1478 374 1478 398 1461 c 128,-1,18
 422 1444 422 1444 436.5 1419 c 128,-1,19
 451 1394 451 1394 451 1362 c 0,0,1
436 197 m 2,20,21
 436 102 436 102 397.5 51 c 128,-1,22
 359 0 359 0 270 0 c 0,23,24
 186 0 186 0 151.5 51 c 128,-1,25
 117 102 117 102 117 197 c 2,26,-1
 117 809 l 2,27,28
 117 904 117 904 151.5 955 c 128,-1,29
 186 1006 186 1006 270 1006 c 0,30,31
 359 1006 359 1006 397.5 955 c 128,-1,32
 436 904 436 904 436 809 c 2,33,-1
 436 197 l 2,20,21
EndSplineSet
EndChar

StartChar: j
Encoding: 106 106 75
Width: 568
Flags: W
LayerCount: 2
Fore
SplineSet
450 -17 m 2,0,1
 450 -114 450 -114 435 -183.5 c 128,-1,2
 420 -253 420 -253 382.5 -298 c 128,-1,3
 345 -343 345 -343 281 -364 c 128,-1,4
 217 -385 217 -385 119 -385 c 0,5,6
 64 -385 64 -385 29 -375.5 c 128,-1,7
 -6 -366 -6 -366 -26.5 -350.5 c 128,-1,8
 -47 -335 -47 -335 -54.5 -314.5 c 128,-1,9
 -62 -294 -62 -294 -62 -272 c 0,10,11
 -62 -223 -62 -223 -38.5 -196 c 128,-1,12
 -15 -169 -15 -169 32 -169 c 1,13,14
 66 -168 66 -168 86 -161 c 128,-1,15
 106 -154 106 -154 116 -133 c 128,-1,16
 126 -112 126 -112 128.5 -74.5 c 128,-1,17
 131 -37 131 -37 131 26 c 2,18,-1
 131 809 l 2,19,20
 131 904 131 904 165.5 955 c 128,-1,21
 200 1006 200 1006 284 1006 c 0,22,23
 373 1006 373 1006 411.5 955 c 128,-1,24
 450 904 450 904 450 809 c 2,25,-1
 450 -17 l 2,0,1
465 1362 m 0,26,27
 465 1328 465 1328 450 1303 c 128,-1,28
 435 1278 435 1278 410 1261 c 128,-1,29
 385 1244 385 1244 354 1235.5 c 128,-1,30
 323 1227 323 1227 291 1227 c 0,31,32
 256 1227 256 1227 224.5 1236 c 128,-1,33
 193 1245 193 1245 169 1262.5 c 128,-1,34
 145 1280 145 1280 131 1305 c 128,-1,35
 117 1330 117 1330 117 1362 c 0,36,37
 117 1391 117 1391 130.5 1415.5 c 128,-1,38
 144 1440 144 1440 167 1458 c 128,-1,39
 190 1476 190 1476 222 1486 c 128,-1,40
 254 1496 254 1496 292 1496 c 0,41,42
 325 1496 325 1496 356 1487 c 128,-1,43
 387 1478 387 1478 411 1461 c 128,-1,44
 435 1444 435 1444 450 1419 c 128,-1,45
 465 1394 465 1394 465 1362 c 0,26,27
EndSplineSet
EndChar

StartChar: k
Encoding: 107 107 76
Width: 1111
Flags: W
LayerCount: 2
Fore
SplineSet
442 611 m 1,0,1
 512 685 512 685 581 758.5 c 128,-1,2
 650 832 650 832 720 907 c 1,3,4
 762 954 762 954 807.5 985.5 c 128,-1,5
 853 1017 853 1017 896 1017 c 0,6,7
 923 1017 923 1017 949 1006.5 c 128,-1,8
 975 996 975 996 995.5 978 c 128,-1,9
 1016 960 1016 960 1028.5 937 c 128,-1,10
 1041 914 1041 914 1041 889 c 0,11,12
 1041 859 1041 859 1021 835 c 128,-1,13
 1001 811 1001 811 978 789 c 0,14,15
 919 733 919 733 859.5 679 c 128,-1,16
 800 625 800 625 740 568 c 1,17,-1
 1003 249 l 2,18,19
 1028 219 1028 219 1048.5 189 c 128,-1,20
 1069 159 1069 159 1069 131 c 0,21,22
 1069 105 1069 105 1057.5 82 c 128,-1,23
 1046 59 1046 59 1027 42 c 128,-1,24
 1008 25 1008 25 983.5 15 c 128,-1,25
 959 5 959 5 933 5 c 0,26,27
 911 5 911 5 884 16 c 128,-1,28
 857 27 857 27 829.5 45.5 c 128,-1,29
 802 64 802 64 775.5 89.5 c 128,-1,30
 749 115 749 115 729 145 c 1,31,32
 657 242 657 242 585.5 338 c 128,-1,33
 514 434 514 434 442 531 c 1,34,-1
 442 197 l 2,35,36
 442 102 442 102 403.5 51 c 128,-1,37
 365 0 365 0 276 0 c 0,38,39
 192 0 192 0 157.5 51 c 128,-1,40
 123 102 123 102 123 197 c 2,41,-1
 123 1255 l 2,42,43
 123 1350 123 1350 157.5 1401 c 128,-1,44
 192 1452 192 1452 276 1452 c 0,45,46
 365 1452 365 1452 403.5 1401 c 128,-1,47
 442 1350 442 1350 442 1255 c 2,48,-1
 442 611 l 1,0,1
EndSplineSet
EndChar

StartChar: l
Encoding: 108 108 77
Width: 554
Flags: W
LayerCount: 2
Fore
SplineSet
436 197 m 2,0,1
 436 102 436 102 397.5 51 c 128,-1,2
 359 0 359 0 270 0 c 0,3,4
 186 0 186 0 151.5 51 c 128,-1,5
 117 102 117 102 117 197 c 2,6,-1
 117 1254 l 2,7,8
 117 1349 117 1349 151.5 1400 c 128,-1,9
 186 1451 186 1451 270 1451 c 0,10,11
 359 1451 359 1451 397.5 1400 c 128,-1,12
 436 1349 436 1349 436 1254 c 2,13,-1
 436 197 l 2,0,1
EndSplineSet
EndChar

StartChar: m
Encoding: 109 109 78
Width: 1919
Flags: W
LayerCount: 2
Fore
SplineSet
121 809 m 2,0,1
 121 904 121 904 155.5 955 c 128,-1,2
 190 1006 190 1006 274 1006 c 0,3,4
 363 1006 363 1006 401.5 955 c 128,-1,5
 440 904 440 904 440 809 c 1,6,7
 460 857 460 857 494.5 896.5 c 128,-1,8
 529 936 529 936 573.5 964 c 128,-1,9
 618 992 618 992 670 1007.5 c 128,-1,10
 722 1023 722 1023 778 1023 c 0,11,12
 830 1023 830 1023 880.5 1009.5 c 128,-1,13
 931 996 931 996 974.5 966.5 c 128,-1,14
 1018 937 1018 937 1051 892 c 128,-1,15
 1084 847 1084 847 1102 784 c 1,16,17
 1133 851 1133 851 1175 897 c 128,-1,18
 1217 943 1217 943 1266 971 c 128,-1,19
 1315 999 1315 999 1368.5 1011 c 128,-1,20
 1422 1023 1422 1023 1476 1023 c 0,21,22
 1540 1023 1540 1023 1598.5 1000 c 128,-1,23
 1657 977 1657 977 1701.5 930.5 c 128,-1,24
 1746 884 1746 884 1772.5 813.5 c 128,-1,25
 1799 743 1799 743 1799 649 c 2,26,-1
 1799 197 l 2,27,28
 1799 102 1799 102 1760.5 51 c 128,-1,29
 1722 0 1722 0 1633 0 c 0,30,31
 1549 0 1549 0 1514.5 51 c 128,-1,32
 1480 102 1480 102 1480 197 c 2,33,-1
 1480 635 l 2,34,35
 1480 680 1480 680 1468 715.5 c 128,-1,36
 1456 751 1456 751 1434.5 775.5 c 128,-1,37
 1413 800 1413 800 1384 812.5 c 128,-1,38
 1355 825 1355 825 1322 825 c 0,39,40
 1281 825 1281 825 1244 812 c 128,-1,41
 1207 799 1207 799 1179.5 772 c 128,-1,42
 1152 745 1152 745 1135.5 703 c 128,-1,43
 1119 661 1119 661 1119 602 c 2,44,-1
 1119 197 l 2,45,46
 1119 102 1119 102 1080.5 51 c 128,-1,47
 1042 0 1042 0 953 0 c 0,48,49
 869 0 869 0 834.5 51 c 128,-1,50
 800 102 800 102 800 197 c 2,51,-1
 800 616 l 2,52,53
 800 719 800 719 757.5 772 c 128,-1,54
 715 825 715 825 642 825 c 0,55,56
 599 825 599 825 562 811 c 128,-1,57
 525 797 525 797 498 770 c 128,-1,58
 471 743 471 743 455.5 703 c 128,-1,59
 440 663 440 663 440 611 c 2,60,-1
 440 197 l 2,61,62
 440 102 440 102 401.5 51 c 128,-1,63
 363 0 363 0 274 0 c 0,64,65
 190 0 190 0 155.5 51 c 128,-1,66
 121 102 121 102 121 197 c 2,67,-1
 121 809 l 2,0,1
EndSplineSet
EndChar

StartChar: n
Encoding: 110 110 79
Width: 1238
Flags: W
LayerCount: 2
Fore
SplineSet
116 809 m 2,0,1
 116 904 116 904 150.5 955 c 128,-1,2
 185 1006 185 1006 269 1006 c 0,3,4
 358 1006 358 1006 396.5 955 c 128,-1,5
 435 904 435 904 435 809 c 1,6,7
 453 857 453 857 487 896.5 c 128,-1,8
 521 936 521 936 567.5 964 c 128,-1,9
 614 992 614 992 670 1007.5 c 128,-1,10
 726 1023 726 1023 788 1023 c 0,11,12
 852 1023 852 1023 912.5 1000 c 128,-1,13
 973 977 973 977 1019 930.5 c 128,-1,14
 1065 884 1065 884 1093 813.5 c 128,-1,15
 1121 743 1121 743 1121 649 c 2,16,-1
 1121 197 l 2,17,18
 1121 102 1121 102 1082.5 51 c 128,-1,19
 1044 0 1044 0 955 0 c 0,20,21
 871 0 871 0 836.5 51 c 128,-1,22
 802 102 802 102 802 197 c 2,23,-1
 802 635 l 2,24,25
 802 683 802 683 789.5 718.5 c 128,-1,26
 777 754 777 754 755 777.5 c 128,-1,27
 733 801 733 801 703.5 813 c 128,-1,28
 674 825 674 825 640 825 c 0,29,30
 598 825 598 825 560.5 811.5 c 128,-1,31
 523 798 523 798 495.5 771 c 128,-1,32
 468 744 468 744 452 704 c 128,-1,33
 436 664 436 664 436 611 c 2,34,-1
 436 197 l 2,35,36
 436 102 436 102 397.5 51 c 128,-1,37
 359 0 359 0 270 0 c 0,38,39
 186 0 186 0 151.5 51 c 128,-1,40
 117 102 117 102 117 197 c 2,41,-1
 116 809 l 2,0,1
EndSplineSet
EndChar

StartChar: o
Encoding: 111 111 80
Width: 1258
Flags: W
LayerCount: 2
Fore
SplineSet
71 504 m 0,0,1
 71 610 71 610 105.5 704.5 c 128,-1,2
 140 799 140 799 209.5 870 c 128,-1,3
 279 941 279 941 383.5 983 c 128,-1,4
 488 1025 488 1025 629 1025 c 0,5,6
 764 1025 764 1025 868 986 c 128,-1,7
 972 947 972 947 1043 877.5 c 128,-1,8
 1114 808 1114 808 1151 712.5 c 128,-1,9
 1188 617 1188 617 1188 504 c 0,10,11
 1188 399 1188 399 1153 305.5 c 128,-1,12
 1118 212 1118 212 1048 141.5 c 128,-1,13
 978 71 978 71 873 29.5 c 128,-1,14
 768 -12 768 -12 629 -12 c 0,15,16
 492 -12 492 -12 387.5 27.5 c 128,-1,17
 283 67 283 67 212.5 136.5 c 128,-1,18
 142 206 142 206 106.5 300.5 c 128,-1,19
 71 395 71 395 71 504 c 0,0,1
404 504 m 0,20,21
 404 438 404 438 416 378.5 c 128,-1,22
 428 319 428 319 454.5 274 c 128,-1,23
 481 229 481 229 524 202.5 c 128,-1,24
 567 176 567 176 629 176 c 0,25,26
 686 176 686 176 728.5 200 c 128,-1,27
 771 224 771 224 798.5 267 c 128,-1,28
 826 310 826 310 840 370.5 c 128,-1,29
 854 431 854 431 854 504 c 0,30,31
 854 570 854 570 841.5 629.5 c 128,-1,32
 829 689 829 689 802 734.5 c 128,-1,33
 775 780 775 780 732.5 806.5 c 128,-1,34
 690 833 690 833 629 833 c 256,35,36
 568 833 568 833 525 807 c 128,-1,37
 482 781 482 781 455 736 c 128,-1,38
 428 691 428 691 416 631 c 128,-1,39
 404 571 404 571 404 504 c 0,20,21
EndSplineSet
EndChar

StartChar: p
Encoding: 112 112 81
Width: 1258
Flags: W
LayerCount: 2
Fore
SplineSet
434 506 m 0,0,1
 434 439 434 439 444.5 381 c 128,-1,2
 455 323 455 323 480.5 279.5 c 128,-1,3
 506 236 506 236 548.5 211 c 128,-1,4
 591 186 591 186 654 186 c 0,5,6
 712 186 712 186 751.5 210.5 c 128,-1,7
 791 235 791 235 815 278.5 c 128,-1,8
 839 322 839 322 849.5 381 c 128,-1,9
 860 440 860 440 860 509 c 0,10,11
 860 564 860 564 852 621.5 c 128,-1,12
 844 679 844 679 822 726 c 128,-1,13
 800 773 800 773 761 803 c 128,-1,14
 722 833 722 833 659 833 c 256,15,16
 596 833 596 833 552.5 813 c 128,-1,17
 509 793 509 793 482.5 752 c 128,-1,18
 456 711 456 711 445 649.5 c 128,-1,19
 434 588 434 588 434 506 c 0,0,1
433 809 m 1,20,21
 458 862 458 862 497 902 c 128,-1,22
 536 942 536 942 583 969 c 128,-1,23
 630 996 630 996 681.5 1009.5 c 128,-1,24
 733 1023 733 1023 784 1023 c 0,25,26
 876 1023 876 1023 950 982 c 128,-1,27
 1024 941 1024 941 1076.5 870.5 c 128,-1,28
 1129 800 1129 800 1157 704.5 c 128,-1,29
 1185 609 1185 609 1185 500 c 0,30,31
 1185 387 1185 387 1155.5 293 c 128,-1,32
 1126 199 1126 199 1072.5 131.5 c 128,-1,33
 1019 64 1019 64 944.5 26 c 128,-1,34
 870 -12 870 -12 779 -12 c 0,35,36
 667 -12 667 -12 579 40 c 128,-1,37
 491 92 491 92 433 186 c 1,38,-1
 433 -174 l 2,39,40
 433 -269 433 -269 394.5 -320 c 128,-1,41
 356 -371 356 -371 267 -371 c 0,42,43
 183 -371 183 -371 148.5 -320 c 128,-1,44
 114 -269 114 -269 114 -174 c 2,45,-1
 114 809 l 2,46,47
 114 904 114 904 148.5 955 c 128,-1,48
 183 1006 183 1006 267 1006 c 0,49,50
 356 1006 356 1006 394.5 955 c 128,-1,51
 433 904 433 904 433 809 c 1,20,21
EndSplineSet
EndChar

StartChar: q
Encoding: 113 113 82
Width: 1258
Flags: W
LayerCount: 2
Fore
SplineSet
823 506 m 0,0,1
 823 588 823 588 812.5 649 c 128,-1,2
 802 710 802 710 777 751 c 128,-1,3
 752 792 752 792 709.5 812.5 c 128,-1,4
 667 833 667 833 604 833 c 0,5,6
 543 833 543 833 503 804.5 c 128,-1,7
 463 776 463 776 439.5 729.5 c 128,-1,8
 416 683 416 683 406.5 625 c 128,-1,9
 397 567 397 567 397 509 c 0,10,11
 397 450 397 450 405.5 392.5 c 128,-1,12
 414 335 414 335 436.5 289 c 128,-1,13
 459 243 459 243 499.5 215 c 128,-1,14
 540 187 540 187 604 187 c 0,15,16
 663 187 663 187 704.5 210 c 128,-1,17
 746 233 746 233 772.5 275 c 128,-1,18
 799 317 799 317 811 376 c 128,-1,19
 823 435 823 435 823 506 c 0,0,1
824 809 m 1,20,21
 824 904 824 904 858.5 955 c 128,-1,22
 893 1006 893 1006 977 1006 c 0,23,24
 1066 1006 1066 1006 1104.5 955 c 128,-1,25
 1143 904 1143 904 1143 809 c 2,26,-1
 1142 -150 l 2,27,28
 1142 -245 1142 -245 1103.5 -296 c 128,-1,29
 1065 -347 1065 -347 976 -347 c 0,30,31
 892 -347 892 -347 857.5 -296 c 128,-1,32
 823 -245 823 -245 823 -150 c 2,33,-1
 823 186 l 1,34,35
 766 95 766 95 679 41.5 c 128,-1,36
 592 -12 592 -12 476 -12 c 0,37,38
 390 -12 390 -12 316.5 23.5 c 128,-1,39
 243 59 243 59 188.5 125 c 128,-1,40
 134 191 134 191 103 286 c 128,-1,41
 72 381 72 381 72 500 c 0,42,43
 72 603 72 603 98.5 698 c 128,-1,44
 125 793 125 793 175.5 865 c 128,-1,45
 226 937 226 937 299.5 980 c 128,-1,46
 373 1023 373 1023 468 1023 c 0,47,48
 580 1023 580 1023 674 968.5 c 128,-1,49
 768 914 768 914 824 809 c 1,20,21
EndSplineSet
EndChar

StartChar: r
Encoding: 114 114 83
Width: 824
Flags: W
LayerCount: 2
Fore
SplineSet
436 197 m 2,0,1
 436 102 436 102 397.5 51 c 128,-1,2
 359 0 359 0 270 0 c 0,3,4
 186 0 186 0 151.5 51 c 128,-1,5
 117 102 117 102 117 197 c 2,6,-1
 117 857 l 2,7,8
 117 894 117 894 130.5 922 c 128,-1,9
 144 950 144 950 166.5 968 c 128,-1,10
 189 986 189 986 218 996 c 128,-1,11
 247 1006 247 1006 279 1006 c 0,12,13
 357 1006 357 1006 396.5 956 c 128,-1,14
 436 906 436 906 436 807 c 1,15,16
 453 908 453 908 518 965.5 c 128,-1,17
 583 1023 583 1023 685 1023 c 0,18,19
 716 1023 716 1023 740 1012.5 c 128,-1,20
 764 1002 764 1002 780 985 c 128,-1,21
 796 968 796 968 804 946 c 128,-1,22
 812 924 812 924 812 902 c 0,23,24
 812 838 812 838 767.5 807.5 c 128,-1,25
 723 777 723 777 648 772 c 0,26,27
 603 768 603 768 564.5 755 c 128,-1,28
 526 742 526 742 497.5 716.5 c 128,-1,29
 469 691 469 691 452.5 651 c 128,-1,30
 436 611 436 611 436 553 c 2,31,-1
 436 197 l 2,0,1
EndSplineSet
EndChar

StartChar: s
Encoding: 115 115 84
Width: 1071
Flags: W
LayerCount: 2
Fore
SplineSet
371 738 m 0,0,1
 371 699 371 699 405 677.5 c 128,-1,2
 439 656 439 656 499 642 c 0,3,4
 556 629 556 629 616 617 c 128,-1,5
 676 605 676 605 733 589.5 c 128,-1,6
 790 574 790 574 840 553 c 128,-1,7
 890 532 890 532 928 500.5 c 128,-1,8
 966 469 966 469 988 424.5 c 128,-1,9
 1010 380 1010 380 1010 318 c 0,10,11
 1010 240 1010 240 978 179.5 c 128,-1,12
 946 119 946 119 887.5 77 c 128,-1,13
 829 35 829 35 748 12 c 128,-1,14
 667 -11 667 -11 569 -12 c 0,15,16
 476 -12 476 -12 390 -0.5 c 128,-1,17
 304 11 304 11 237.5 35 c 128,-1,18
 171 59 171 59 131 94.5 c 128,-1,19
 91 130 91 130 91 178 c 0,20,21
 91 220 91 220 118 243 c 128,-1,22
 145 266 145 266 187 266 c 0,23,24
 203 266 203 266 225 260 c 128,-1,25
 247 254 247 254 273 245 c 128,-1,26
 299 236 299 236 328.5 225.5 c 128,-1,27
 358 215 358 215 390 207 c 0,28,29
 430 196 430 196 472.5 189.5 c 128,-1,30
 515 183 515 183 560 183 c 0,31,32
 588 183 588 183 615 188.5 c 128,-1,33
 642 194 642 194 663.5 205.5 c 128,-1,34
 685 217 685 217 699 235 c 128,-1,35
 713 253 713 253 716 279 c 1,36,37
 719 285 719 285 721 291 c 128,-1,38
 723 297 723 297 723 305 c 0,39,40
 723 333 723 333 697.5 355 c 128,-1,41
 672 377 672 377 626 390 c 1,42,43
 549 408 549 408 479 423 c 128,-1,44
 409 438 409 438 349.5 455 c 128,-1,45
 290 472 290 472 241.5 494 c 128,-1,46
 193 516 193 516 159.5 548 c 128,-1,47
 126 580 126 580 107.5 625 c 128,-1,48
 89 670 89 670 89 734 c 0,49,50
 89 803 89 803 120.5 857.5 c 128,-1,51
 152 912 152 912 211 949 c 128,-1,52
 270 986 270 986 354 1005.5 c 128,-1,53
 438 1025 438 1025 544 1025 c 0,54,55
 734 1025 734 1025 833.5 979.5 c 128,-1,56
 933 934 933 934 933 861 c 0,57,58
 933 820 933 820 906 798.5 c 128,-1,59
 879 777 879 777 841 777 c 0,60,61
 821 777 821 777 799.5 784.5 c 128,-1,62
 778 792 778 792 748 801.5 c 128,-1,63
 718 811 718 811 676.5 818.5 c 128,-1,64
 635 826 635 826 574 826 c 0,65,66
 528 826 528 826 490.5 822 c 128,-1,67
 453 818 453 818 426.5 808 c 128,-1,68
 400 798 400 798 385.5 781 c 128,-1,69
 371 764 371 764 371 738 c 0,0,1
EndSplineSet
EndChar

StartChar: t
Encoding: 116 116 85
Width: 785
Flags: W
LayerCount: 2
Fore
SplineSet
212 1010 m 1,0,-1
 234 1217 l 2,1,2
 237 1247 237 1247 244.5 1277 c 128,-1,3
 252 1307 252 1307 268.5 1332 c 128,-1,4
 285 1357 285 1357 313 1372.5 c 128,-1,5
 341 1388 341 1388 386 1388 c 0,6,7
 452 1388 452 1388 481.5 1342 c 128,-1,8
 511 1296 511 1296 511 1205 c 2,9,-1
 511 1010 l 1,10,-1
 623 1010 l 2,11,12
 674 1010 674 1010 706 984.5 c 128,-1,13
 738 959 738 959 738 904 c 0,14,15
 738 853 738 853 704 827.5 c 128,-1,16
 670 802 670 802 612 802 c 2,17,-1
 511 802 l 1,18,-1
 511 424 l 2,19,20
 511 364 511 364 513 322 c 128,-1,21
 515 280 515 280 526 253.5 c 128,-1,22
 537 227 537 227 559 215.5 c 128,-1,23
 581 204 581 204 622 204 c 0,24,25
 651 204 651 204 678.5 201.5 c 128,-1,26
 706 199 706 199 727 189 c 128,-1,27
 748 179 748 179 760.5 159.5 c 128,-1,28
 773 140 773 140 773 106 c 0,29,30
 773 68 773 68 754 45 c 128,-1,31
 735 22 735 22 699.5 9.5 c 128,-1,32
 664 -3 664 -3 614.5 -7.5 c 128,-1,33
 565 -12 565 -12 504 -12 c 0,34,35
 434 -11 434 -11 376.5 9 c 128,-1,36
 319 29 319 29 277.5 72.5 c 128,-1,37
 236 116 236 116 213.5 185.5 c 128,-1,38
 191 255 191 255 191 356 c 2,39,-1
 191 802 l 1,40,-1
 145 802 l 2,41,42
 91 802 91 802 55 827.5 c 128,-1,43
 19 853 19 853 19 910 c 0,44,45
 19 955 19 955 47.5 982.5 c 128,-1,46
 76 1010 76 1010 134 1010 c 2,47,-1
 212 1010 l 1,0,-1
EndSplineSet
EndChar

StartChar: u
Encoding: 117 117 86
Width: 1238
Flags: W
LayerCount: 2
Fore
SplineSet
436 371 m 2,0,1
 436 324 436 324 448.5 289 c 128,-1,2
 461 254 461 254 483 230.5 c 128,-1,3
 505 207 505 207 534.5 195.5 c 128,-1,4
 564 184 564 184 598 184 c 0,5,6
 638 184 638 184 675 196 c 128,-1,7
 712 208 712 208 740.5 233 c 128,-1,8
 769 258 769 258 786 296 c 128,-1,9
 803 334 803 334 803 385 c 2,10,-1
 803 809 l 2,11,12
 803 904 803 904 837.5 955 c 128,-1,13
 872 1006 872 1006 956 1006 c 0,14,15
 1045 1006 1045 1006 1083.5 955 c 128,-1,16
 1122 904 1122 904 1122 809 c 2,17,-1
 1122 197 l 2,18,19
 1122 102 1122 102 1083.5 51 c 128,-1,20
 1045 0 1045 0 956 0 c 0,21,22
 872 0 872 0 837.5 51 c 128,-1,23
 803 102 803 102 803 197 c 1,24,25
 782 151 782 151 748.5 113 c 128,-1,26
 715 75 715 75 670.5 47.5 c 128,-1,27
 626 20 626 20 572.5 5 c 128,-1,28
 519 -10 519 -10 457 -10 c 0,29,30
 390 -10 390 -10 328.5 13.5 c 128,-1,31
 267 37 267 37 220 83.5 c 128,-1,32
 173 130 173 130 145 199 c 128,-1,33
 117 268 117 268 117 360 c 2,34,-1
 117 809 l 2,35,36
 117 904 117 904 151.5 955 c 128,-1,37
 186 1006 186 1006 270 1006 c 0,38,39
 359 1006 359 1006 397.5 955 c 128,-1,40
 436 904 436 904 436 809 c 2,41,-1
 436 371 l 2,0,1
EndSplineSet
EndChar

StartChar: v
Encoding: 118 118 87
Width: 1117
Flags: W
LayerCount: 2
Fore
SplineSet
827 222 m 1,0,1
 806 162 806 162 780 119.5 c 128,-1,2
 754 77 754 77 722 50.5 c 128,-1,3
 690 24 690 24 650 12 c 128,-1,4
 610 0 610 0 560 0 c 0,5,6
 500 0 500 0 457 19 c 128,-1,7
 414 38 414 38 379.5 77 c 128,-1,8
 345 116 345 116 316 175.5 c 128,-1,9
 287 235 287 235 257 316 c 2,10,-1
 96 748 l 2,11,12
 85 776 85 776 72 808.5 c 128,-1,13
 59 841 59 841 59 868 c 0,14,15
 59 899 59 899 70 924.5 c 128,-1,16
 81 950 81 950 100.5 968 c 128,-1,17
 120 986 120 986 146 996 c 128,-1,18
 172 1006 172 1006 202 1006 c 0,19,20
 237 1006 237 1006 268.5 984.5 c 128,-1,21
 300 963 300 963 325 930 c 128,-1,22
 350 897 350 897 368.5 858 c 128,-1,23
 387 819 387 819 396 785 c 1,24,-1
 560 276 l 1,25,-1
 735 822 l 1,26,27
 746 860 746 860 761.5 893.5 c 128,-1,28
 777 927 777 927 798 952 c 128,-1,29
 819 977 819 977 845.5 991.5 c 128,-1,30
 872 1006 872 1006 906 1006 c 0,31,32
 935 1006 935 1006 962 997 c 128,-1,33
 989 988 989 988 1009.5 970.5 c 128,-1,34
 1030 953 1030 953 1042.5 927.5 c 128,-1,35
 1055 902 1055 902 1055 868 c 0,36,37
 1055 842 1055 842 1043 809 c 128,-1,38
 1031 776 1031 776 1021 748 c 0,39,40
 973 615 973 615 924.5 484.5 c 128,-1,41
 876 354 876 354 827 222 c 1,0,1
EndSplineSet
EndChar

StartChar: w
Encoding: 119 119 88
Width: 1769
Flags: W
LayerCount: 2
Fore
SplineSet
891 767 m 1,0,-1
 746 312 l 2,1,2
 722 235 722 235 696 176.5 c 128,-1,3
 670 118 670 118 638.5 79 c 128,-1,4
 607 40 607 40 567 20 c 128,-1,5
 527 0 527 0 475 0 c 0,6,7
 433 0 433 0 399.5 14.5 c 128,-1,8
 366 29 366 29 338.5 60 c 128,-1,9
 311 91 311 91 288.5 140 c 128,-1,10
 266 189 266 189 246 258 c 2,11,-1
 108 720 l 2,12,13
 97 754 97 754 83.5 791.5 c 128,-1,14
 70 829 70 829 70 862 c 256,15,16
 70 895 70 895 79.5 921.5 c 128,-1,17
 89 948 89 948 105.5 966.5 c 128,-1,18
 122 985 122 985 145 995.5 c 128,-1,19
 168 1006 168 1006 195 1006 c 0,20,21
 227 1006 227 1006 253.5 993.5 c 128,-1,22
 280 981 280 981 300.5 959.5 c 128,-1,23
 321 938 321 938 335.5 908 c 128,-1,24
 350 878 350 878 358 843 c 1,25,-1
 507 270 l 1,26,-1
 670 768 l 2,27,28
 685 817 685 817 701.5 861 c 128,-1,29
 718 905 718 905 743 938 c 128,-1,30
 768 971 768 971 803.5 990.5 c 128,-1,31
 839 1010 839 1010 892 1010 c 0,32,33
 941 1010 941 1010 975 996.5 c 128,-1,34
 1009 983 1009 983 1033.5 956 c 128,-1,35
 1058 929 1058 929 1075.5 888 c 128,-1,36
 1093 847 1093 847 1108 793 c 1,37,-1
 1263 278 l 1,38,39
 1298 408 1298 408 1333.5 536.5 c 128,-1,40
 1369 665 1369 665 1404 795 c 0,41,42
 1414 835 1414 835 1428 873.5 c 128,-1,43
 1442 912 1442 912 1462 942.5 c 128,-1,44
 1482 973 1482 973 1509 991.5 c 128,-1,45
 1536 1010 1536 1010 1573 1010 c 0,46,47
 1633 1010 1633 1010 1666 972.5 c 128,-1,48
 1699 935 1699 935 1699 875 c 0,49,50
 1699 846 1699 846 1689 811 c 128,-1,51
 1679 776 1679 776 1668 744 c 2,52,-1
 1519 284 l 2,53,54
 1501 227 1501 227 1480 175.5 c 128,-1,55
 1459 124 1459 124 1431.5 85 c 128,-1,56
 1404 46 1404 46 1367.5 23 c 128,-1,57
 1331 0 1331 0 1280 0 c 0,58,59
 1235 0 1235 0 1199.5 15 c 128,-1,60
 1164 30 1164 30 1135 66 c 128,-1,61
 1106 102 1106 102 1080 162 c 128,-1,62
 1054 222 1054 222 1028 313 c 1,63,-1
 891 767 l 1,0,-1
EndSplineSet
EndChar

StartChar: x
Encoding: 120 120 89
Width: 1126
Flags: W
LayerCount: 2
Fore
SplineSet
354 519 m 1,0,1
 309 573 309 573 266.5 626 c 128,-1,2
 224 679 224 679 181 733 c 0,3,4
 153 767 153 767 132 804 c 128,-1,5
 111 841 111 841 111 873 c 0,6,7
 111 901 111 901 123.5 925.5 c 128,-1,8
 136 950 136 950 157 968 c 128,-1,9
 178 986 178 986 205.5 996 c 128,-1,10
 233 1006 233 1006 263 1006 c 0,11,12
 305 1006 305 1006 342.5 976.5 c 128,-1,13
 380 947 380 947 411 904 c 2,14,-1
 566 690 l 1,15,16
 596 729 596 729 626 773 c 128,-1,17
 656 817 656 817 688 858 c 128,-1,18
 720 899 720 899 753 932.5 c 128,-1,19
 786 966 786 966 822 983 c 1,20,21
 836 994 836 994 851.5 999 c 128,-1,22
 867 1004 867 1004 883 1004 c 0,23,24
 909 1004 909 1004 933.5 994 c 128,-1,25
 958 984 958 984 976.5 967 c 128,-1,26
 995 950 995 950 1006 927.5 c 128,-1,27
 1017 905 1017 905 1017 880 c 0,28,29
 1017 847 1017 847 995.5 811 c 128,-1,30
 974 775 974 775 948 740 c 1,31,-1
 773 521 l 1,32,33
 822 459 822 459 870.5 397.5 c 128,-1,34
 919 336 919 336 969 274 c 0,35,36
 996 239 996 239 1017.5 202 c 128,-1,37
 1039 165 1039 165 1039 133 c 0,38,39
 1039 108 1039 108 1027.5 85 c 128,-1,40
 1016 62 1016 62 997.5 44 c 128,-1,41
 979 26 979 26 954 15.5 c 128,-1,42
 929 5 929 5 902 5 c 0,43,44
 884 5 884 5 861.5 13 c 128,-1,45
 839 21 839 21 815.5 35 c 128,-1,46
 792 49 792 49 769.5 69.5 c 128,-1,47
 747 90 747 90 729 116 c 1,48,-1
 557 348 l 1,49,-1
 384 115 l 2,50,51
 366 90 366 90 344.5 69.5 c 128,-1,52
 323 49 323 49 300.5 35 c 128,-1,53
 278 21 278 21 257 13 c 128,-1,54
 236 5 236 5 218 5 c 0,55,56
 192 5 192 5 168 15.5 c 128,-1,57
 144 26 144 26 126 44 c 128,-1,58
 108 62 108 62 97 84.5 c 128,-1,59
 86 107 86 107 86 131 c 0,60,61
 86 146 86 146 92.5 164.5 c 128,-1,62
 99 183 99 183 109.5 202.5 c 128,-1,63
 120 222 120 222 134 242 c 128,-1,64
 148 262 148 262 162 280 c 2,65,-1
 354 519 l 1,0,1
EndSplineSet
EndChar

StartChar: y
Encoding: 121 121 90
Width: 1091
Flags: W
LayerCount: 2
Fore
SplineSet
403 13 m 1,0,-1
 77 774 l 2,1,2
 66 799 66 799 56.5 825.5 c 128,-1,3
 47 852 47 852 47 876 c 0,4,5
 47 905 47 905 58 929 c 128,-1,6
 69 953 69 953 88 970 c 128,-1,7
 107 987 107 987 132 996.5 c 128,-1,8
 157 1006 157 1006 186 1006 c 0,9,10
 217 1006 217 1006 243 990.5 c 128,-1,11
 269 975 269 975 290.5 949 c 128,-1,12
 312 923 312 923 328.5 890 c 128,-1,13
 345 857 345 857 358 823 c 2,14,-1
 550 301 l 1,15,-1
 748 826 l 1,16,17
 765 875 765 875 792 910 c 128,-1,18
 819 945 819 945 850 968 c 1,19,20
 863 988 863 988 882.5 996.5 c 128,-1,21
 902 1005 902 1005 924 1005 c 0,22,23
 950 1005 950 1005 973 994 c 128,-1,24
 996 983 996 983 1013.5 964 c 128,-1,25
 1031 945 1031 945 1041 921 c 128,-1,26
 1051 897 1051 897 1051 871 c 256,27,28
 1051 845 1051 845 1039 813.5 c 128,-1,29
 1027 782 1027 782 1016 754 c 2,30,-1
 615 -264 l 2,31,32
 602 -297 602 -297 586.5 -327 c 128,-1,33
 571 -357 571 -357 551.5 -380 c 128,-1,34
 532 -403 532 -403 508 -417 c 128,-1,35
 484 -431 484 -431 454 -431 c 0,36,37
 423 -431 423 -431 395.5 -421 c 128,-1,38
 368 -411 368 -411 347.5 -392 c 128,-1,39
 327 -373 327 -373 315 -347 c 128,-1,40
 303 -321 303 -321 303 -288 c 1,41,42
 304 -259 304 -259 317 -224.5 c 128,-1,43
 330 -190 330 -190 341 -159 c 2,44,-1
 403 13 l 1,0,-1
EndSplineSet
EndChar

StartChar: z
Encoding: 122 122 91
Width: 1007
Flags: W
LayerCount: 2
Fore
SplineSet
832 228 m 2,0,1
 859 228 859 228 880 218 c 128,-1,2
 901 208 901 208 916 191.5 c 128,-1,3
 931 175 931 175 938.5 155 c 128,-1,4
 946 135 946 135 946 114 c 0,5,6
 946 52 946 52 903 26 c 128,-1,7
 860 0 860 0 788 0 c 2,8,-1
 214 0 l 2,9,10
 185 0 185 0 158.5 5.5 c 128,-1,11
 132 11 132 11 111.5 23.5 c 128,-1,12
 91 36 91 36 79 57.5 c 128,-1,13
 67 79 67 79 67 112 c 256,14,15
 67 145 67 145 84 176.5 c 128,-1,16
 101 208 101 208 124 237 c 2,17,-1
 550 780 l 1,18,-1
 246 780 l 2,19,20
 213 780 213 780 184.5 785.5 c 128,-1,21
 156 791 156 791 135 804.5 c 128,-1,22
 114 818 114 818 101.5 840 c 128,-1,23
 89 862 89 862 89 895 c 0,24,25
 89 1010 89 1010 246 1010 c 2,26,-1
 764 1010 l 2,27,28
 801 1010 801 1010 833.5 1006 c 128,-1,29
 866 1002 866 1002 890.5 990 c 128,-1,30
 915 978 915 978 929 957.5 c 128,-1,31
 943 937 943 937 943 904 c 1,32,33
 942 872 942 872 923.5 839 c 128,-1,34
 905 806 905 806 883 777 c 2,35,-1
 465 228 l 1,36,-1
 832 228 l 2,0,1
EndSplineSet
EndChar

StartChar: braceleft
Encoding: 123 123 92
Width: 789
Flags: W
LayerCount: 2
Fore
SplineSet
629 -23 m 0,0,1
 657 -23 657 -23 681 -29 c 128,-1,2
 705 -35 705 -35 723 -49.5 c 128,-1,3
 741 -64 741 -64 751.5 -88 c 128,-1,4
 762 -112 762 -112 762 -147 c 1,5,6
 757 -191 757 -191 731.5 -219.5 c 128,-1,7
 706 -248 706 -248 650 -248 c 2,8,-1
 500 -248 l 2,9,10
 449 -248 449 -248 402 -232.5 c 128,-1,11
 355 -217 355 -217 319 -186.5 c 128,-1,12
 283 -156 283 -156 261.5 -111 c 128,-1,13
 240 -66 240 -66 240 -7 c 2,14,-1
 240 314 l 2,15,16
 240 357 240 357 235 389.5 c 128,-1,17
 230 422 230 422 216 445 c 128,-1,18
 202 468 202 468 178 481 c 128,-1,19
 154 494 154 494 117 497 c 0,20,21
 94 499 94 499 73.5 506 c 128,-1,22
 53 513 53 513 36.5 526.5 c 128,-1,23
 20 540 20 540 10.5 561.5 c 128,-1,24
 1 583 1 583 1 614 c 0,25,26
 1 663 1 663 29.5 694.5 c 128,-1,27
 58 726 58 726 117 731 c 0,28,29
 186 736 186 736 213 778 c 128,-1,30
 240 820 240 820 240 915 c 2,31,-1
 240 1226 l 2,32,33
 240 1270 240 1270 254.5 1315 c 128,-1,34
 269 1360 269 1360 300.5 1396.5 c 128,-1,35
 332 1433 332 1433 381.5 1456 c 128,-1,36
 431 1479 431 1479 500 1479 c 2,37,-1
 639 1479 l 2,38,39
 661 1479 661 1479 682.5 1475 c 128,-1,40
 704 1471 704 1471 721 1458.5 c 128,-1,41
 738 1446 738 1446 749 1423.5 c 128,-1,42
 760 1401 760 1401 760 1365 c 0,43,44
 760 1311 760 1311 727.5 1282 c 128,-1,45
 695 1253 695 1253 639 1253 c 2,46,-1
 623 1253 l 2,47,48
 589 1253 589 1253 570.5 1239 c 128,-1,49
 552 1225 552 1225 543.5 1198 c 128,-1,50
 535 1171 535 1171 533.5 1130.5 c 128,-1,51
 532 1090 532 1090 532 1038 c 2,52,-1
 532 877 l 2,53,54
 532 774 532 774 490 710.5 c 128,-1,55
 448 647 448 647 354 619 c 1,56,57
 350 615 350 615 349 613 c 1,58,59
 367 608 367 608 398 594 c 128,-1,60
 429 580 429 580 458.5 553 c 128,-1,61
 488 526 488 526 510 483 c 128,-1,62
 532 440 532 440 532 376 c 2,63,-1
 532 181 l 2,64,65
 532 133 532 133 533 95.5 c 128,-1,66
 534 58 534 58 543 31.5 c 128,-1,67
 552 5 552 5 572 -9 c 128,-1,68
 592 -23 592 -23 629 -23 c 0,0,1
EndSplineSet
EndChar

StartChar: bar
Encoding: 124 124 93
Width: 455
Flags: W
LayerCount: 2
Fore
SplineSet
125 1394 m 2,0,1
 125 1418 125 1418 133.5 1437 c 128,-1,2
 142 1456 142 1456 156 1468.5 c 128,-1,3
 170 1481 170 1481 188.5 1488 c 128,-1,4
 207 1495 207 1495 228 1495 c 0,5,6
 259 1495 259 1495 279 1481.5 c 128,-1,7
 299 1468 299 1468 310.5 1445 c 128,-1,8
 322 1422 322 1422 326 1391.5 c 128,-1,9
 330 1361 330 1361 330 1327 c 2,10,-1
 330 -116 l 2,11,12
 330 -142 330 -142 325 -166.5 c 128,-1,13
 320 -191 320 -191 308.5 -210 c 128,-1,14
 297 -229 297 -229 277 -240.5 c 128,-1,15
 257 -252 257 -252 227 -252 c 0,16,17
 195 -252 195 -252 175 -238.5 c 128,-1,18
 155 -225 155 -225 144 -201.5 c 128,-1,19
 133 -178 133 -178 129 -147.5 c 128,-1,20
 125 -117 125 -117 125 -83 c 2,21,-1
 125 1394 l 2,0,1
EndSplineSet
EndChar

StartChar: braceright
Encoding: 125 125 94
Width: 789
Flags: W
LayerCount: 2
Fore
SplineSet
169 -23 m 2,0,1
 199 -23 199 -23 216 -11.5 c 128,-1,2
 233 0 233 0 242 22.5 c 128,-1,3
 251 45 251 45 253 79 c 128,-1,4
 255 113 255 113 255 158 c 2,5,-1
 255 376 l 2,6,7
 255 435 255 435 274 476.5 c 128,-1,8
 293 518 293 518 321.5 546 c 128,-1,9
 350 574 350 574 381.5 589.5 c 128,-1,10
 413 605 413 605 439 613 c 1,11,12
 433 620 433 620 411.5 628.5 c 128,-1,13
 390 637 390 637 370 649 c 0,14,15
 348 662 348 662 327.5 681 c 128,-1,16
 307 700 307 700 291 724.5 c 128,-1,17
 275 749 275 749 265 781 c 128,-1,18
 255 813 255 813 255 853 c 2,19,-1
 255 1050 l 2,20,21
 255 1093 255 1093 254 1130 c 128,-1,22
 253 1167 253 1167 244.5 1194.5 c 128,-1,23
 236 1222 236 1222 217.5 1237.5 c 128,-1,24
 199 1253 199 1253 164 1253 c 2,25,-1
 147 1253 l 2,26,27
 123 1253 123 1253 100.5 1259 c 128,-1,28
 78 1265 78 1265 61.5 1279 c 128,-1,29
 45 1293 45 1293 35 1314.5 c 128,-1,30
 25 1336 25 1336 25 1368 c 0,31,32
 25 1416 25 1416 52.5 1447.5 c 128,-1,33
 80 1479 80 1479 137 1479 c 2,34,-1
 292 1479 l 2,35,36
 341 1479 341 1479 387 1463 c 128,-1,37
 433 1447 433 1447 468.5 1416.5 c 128,-1,38
 504 1386 504 1386 525.5 1340.5 c 128,-1,39
 547 1295 547 1295 547 1237 c 2,40,-1
 547 915 l 2,41,42
 547 870 547 870 552.5 837 c 128,-1,43
 558 804 558 804 571.5 781.5 c 128,-1,44
 585 759 585 759 609 746.5 c 128,-1,45
 633 734 633 734 670 731 c 0,46,47
 692 729 692 729 712.5 722 c 128,-1,48
 733 715 733 715 749.5 701.5 c 128,-1,49
 766 688 766 688 776 666.5 c 128,-1,50
 786 645 786 645 786 614 c 0,51,52
 786 591 786 591 779 570.5 c 128,-1,53
 772 550 772 550 759 534 c 128,-1,54
 746 518 746 518 727 508.5 c 128,-1,55
 708 499 708 499 683 499 c 1,56,57
 644 497 644 497 617.5 486 c 128,-1,58
 591 475 591 475 575.5 453 c 128,-1,59
 560 431 560 431 553.5 397 c 128,-1,60
 547 363 547 363 547 314 c 2,61,-1
 547 4 l 2,62,63
 547 -47 547 -47 530.5 -92.5 c 128,-1,64
 514 -138 514 -138 481.5 -172.5 c 128,-1,65
 449 -207 449 -207 401.5 -227.5 c 128,-1,66
 354 -248 354 -248 292 -248 c 2,67,-1
 137 -248 l 2,68,69
 90 -248 90 -248 57 -220.5 c 128,-1,70
 24 -193 24 -193 24 -136 c 0,71,72
 24 -113 24 -113 30.5 -92.5 c 128,-1,73
 37 -72 37 -72 51 -56.5 c 128,-1,74
 65 -41 65 -41 86 -32 c 128,-1,75
 107 -23 107 -23 137 -23 c 2,76,-1
 169 -23 l 2,0,1
EndSplineSet
EndChar

StartChar: asciitilde
Encoding: 126 126 95
Width: 1287
Flags: W
LayerCount: 2
Fore
SplineSet
786 1313 m 0,0,1
 800 1313 800 1313 808.5 1321 c 128,-1,2
 817 1329 817 1329 823 1340.5 c 128,-1,3
 829 1352 829 1352 834.5 1366 c 128,-1,4
 840 1380 840 1380 849.5 1391.5 c 128,-1,5
 859 1403 859 1403 874 1411 c 128,-1,6
 889 1419 889 1419 914 1419 c 0,7,8
 928 1419 928 1419 942 1413.5 c 128,-1,9
 956 1408 956 1408 967 1398.5 c 128,-1,10
 978 1389 978 1389 985 1375.5 c 128,-1,11
 992 1362 992 1362 992 1346 c 0,12,13
 992 1294 992 1294 976 1254 c 128,-1,14
 960 1214 960 1214 933 1187 c 128,-1,15
 906 1160 906 1160 870 1146.5 c 128,-1,16
 834 1133 834 1133 794 1133 c 0,17,18
 750 1133 750 1133 710.5 1149 c 128,-1,19
 671 1165 671 1165 635.5 1184.5 c 128,-1,20
 600 1204 600 1204 568.5 1221 c 128,-1,21
 537 1238 537 1238 509 1240 c 1,22,23
 488 1240 488 1240 478 1232 c 128,-1,24
 468 1224 468 1224 459.5 1211 c 128,-1,25
 451 1198 451 1198 440 1181.5 c 128,-1,26
 429 1165 429 1165 406 1148 c 0,27,28
 396 1140 396 1140 383 1138 c 128,-1,29
 370 1136 370 1136 358 1136 c 0,30,31
 327 1136 327 1136 305.5 1156 c 128,-1,32
 284 1176 284 1176 284 1206 c 0,33,34
 284 1264 284 1264 304.5 1304.5 c 128,-1,35
 325 1345 325 1345 355.5 1370.5 c 128,-1,36
 386 1396 386 1396 421.5 1407.5 c 128,-1,37
 457 1419 457 1419 487 1419 c 0,38,39
 535 1419 535 1419 578 1402.5 c 128,-1,40
 621 1386 621 1386 658.5 1366 c 128,-1,41
 696 1346 696 1346 728 1329.5 c 128,-1,42
 760 1313 760 1313 786 1313 c 0,0,1
EndSplineSet
EndChar

StartChar: cent
Encoding: 162 162 97
Width: 1063
Flags: W
LayerCount: 2
Fore
SplineSet
104 507 m 0,0,1
 104 617 104 617 140 708 c 128,-1,2
 176 799 176 799 238.5 866.5 c 128,-1,3
 301 934 301 934 384.5 975.5 c 128,-1,4
 468 1017 468 1017 564 1029 c 1,5,-1
 564 1199 l 2,6,7
 564 1242 564 1242 583 1263.5 c 128,-1,8
 602 1285 602 1285 636 1285 c 0,9,10
 663 1285 663 1285 685 1267 c 128,-1,11
 707 1249 707 1249 707 1214 c 2,12,-1
 707 1030 l 1,13,14
 758 1025 758 1025 808.5 1011.5 c 128,-1,15
 859 998 859 998 899 976.5 c 128,-1,16
 939 955 939 955 964 927 c 128,-1,17
 989 899 989 899 989 866 c 0,18,19
 989 849 989 849 982.5 830.5 c 128,-1,20
 976 812 976 812 964 796.5 c 128,-1,21
 952 781 952 781 934 771 c 128,-1,22
 916 761 916 761 893 761 c 2,23,-1
 887 761 l 1,24,25
 834 772 834 772 785 784 c 128,-1,26
 736 796 736 796 688 796 c 0,27,28
 634 796 634 796 587 780.5 c 128,-1,29
 540 765 540 765 504.5 730.5 c 128,-1,30
 469 696 469 696 448.5 641.5 c 128,-1,31
 428 587 428 587 428 509 c 0,32,33
 428 436 428 436 446.5 381.5 c 128,-1,34
 465 327 465 327 498.5 291 c 128,-1,35
 532 255 532 255 580 237.5 c 128,-1,36
 628 220 628 220 688 220 c 0,37,38
 740 220 740 220 796.5 233 c 128,-1,39
 853 246 853 246 904 258 c 1,40,-1
 909 258 l 2,41,42
 931 258 931 258 948.5 248 c 128,-1,43
 966 238 966 238 978 223 c 128,-1,44
 990 208 990 208 996 190 c 128,-1,45
 1002 172 1002 172 1002 155 c 0,46,47
 1002 113 1002 113 971.5 82.5 c 128,-1,48
 941 52 941 52 896 32 c 128,-1,49
 851 12 851 12 800 0 c 128,-1,50
 749 -12 749 -12 707 -16 c 1,51,-1
 707 -200 l 2,52,53
 707 -233 707 -233 685.5 -252 c 128,-1,54
 664 -271 664 -271 635 -271 c 256,55,56
 606 -271 606 -271 585 -252.5 c 128,-1,57
 564 -234 564 -234 564 -200 c 2,58,-1
 564 -16 l 1,59,60
 468 -7 468 -7 384 32 c 128,-1,61
 300 71 300 71 237.5 137.5 c 128,-1,62
 175 204 175 204 139.5 297 c 128,-1,63
 104 390 104 390 104 507 c 0,0,1
EndSplineSet
EndChar

StartChar: sterling
Encoding: 163 163 98
Width: 1399
Flags: W
LayerCount: 2
Fore
SplineSet
195 671 m 2,0,1
 167 671 167 671 146 680 c 128,-1,2
 125 689 125 689 110.5 704.5 c 128,-1,3
 96 720 96 720 89 740.5 c 128,-1,4
 82 761 82 761 82 784 c 0,5,6
 82 838 82 838 117.5 869 c 128,-1,7
 153 900 153 900 228 900 c 2,8,-1
 278 900 l 1,9,-1
 278 1036 l 2,10,11
 278 1139 278 1139 307 1221 c 128,-1,12
 336 1303 336 1303 394.5 1360.5 c 128,-1,13
 453 1418 453 1418 542 1448.5 c 128,-1,14
 631 1479 631 1479 752 1479 c 0,15,16
 792 1479 792 1479 839.5 1475 c 128,-1,17
 887 1471 887 1471 935 1462 c 128,-1,18
 983 1453 983 1453 1028.5 1438.5 c 128,-1,19
 1074 1424 1074 1424 1108.5 1402.5 c 128,-1,20
 1143 1381 1143 1381 1164 1352 c 128,-1,21
 1185 1323 1185 1323 1185 1286 c 0,22,23
 1185 1244 1185 1244 1156 1215.5 c 128,-1,24
 1127 1187 1127 1187 1069 1187 c 0,25,26
 1037 1187 1037 1187 999 1194.5 c 128,-1,27
 961 1202 961 1202 921.5 1211 c 128,-1,28
 882 1220 882 1220 844.5 1227.5 c 128,-1,29
 807 1235 807 1235 776 1235 c 0,30,31
 717 1235 717 1235 683.5 1220 c 128,-1,32
 650 1205 650 1205 633 1173 c 128,-1,33
 616 1141 616 1141 611.5 1090.5 c 128,-1,34
 607 1040 607 1040 607 970 c 2,35,-1
 607 900 l 1,36,-1
 824 900 l 2,37,38
 855 900 855 900 882 894.5 c 128,-1,39
 909 889 909 889 928.5 876.5 c 128,-1,40
 948 864 948 864 959 843 c 128,-1,41
 970 822 970 822 970 792 c 0,42,43
 970 728 970 728 925.5 699.5 c 128,-1,44
 881 671 881 671 789 671 c 2,45,-1
 607 671 l 1,46,-1
 607 265 l 1,47,-1
 1087 265 l 2,48,49
 1126 265 1126 265 1161.5 258.5 c 128,-1,50
 1197 252 1197 252 1224 236 c 128,-1,51
 1251 220 1251 220 1267.5 193.5 c 128,-1,52
 1284 167 1284 167 1284 128 c 0,53,54
 1284 58 1284 58 1241.5 28.5 c 128,-1,55
 1199 -1 1199 -1 1122 -1 c 2,56,-1
 267 -1 l 2,57,58
 232 -1 232 -1 202 4.5 c 128,-1,59
 172 10 172 10 149.5 24.5 c 128,-1,60
 127 39 127 39 114 64 c 128,-1,61
 101 89 101 89 101 128 c 0,62,63
 101 155 101 155 108.5 179 c 128,-1,64
 116 203 116 203 132.5 221 c 128,-1,65
 149 239 149 239 173.5 249.5 c 128,-1,66
 198 260 198 260 233 260 c 2,67,-1
 278 260 l 1,68,-1
 278 671 l 1,69,-1
 195 671 l 2,0,1
EndSplineSet
EndChar

StartChar: fraction
Encoding: 8260 8260 99
Width: 669
Flags: W
LayerCount: 2
Fore
SplineSet
199 13 m 2,0,1
 186 -25 186 -25 159.5 -40 c 128,-1,2
 133 -55 133 -55 105 -55 c 0,3,4
 87 -55 87 -55 68.5 -49 c 128,-1,5
 50 -43 50 -43 34.5 -31 c 128,-1,6
 19 -19 19 -19 9.5 -2 c 128,-1,7
 0 15 0 15 0 38 c 0,8,9
 0 58 0 58 9 84 c 128,-1,10
 18 110 18 110 26 135 c 2,11,-1
 449 1395 l 2,12,13
 457 1420 457 1420 467.5 1442.5 c 128,-1,14
 478 1465 478 1465 491.5 1482.5 c 128,-1,15
 505 1500 505 1500 523 1510.5 c 128,-1,16
 541 1521 541 1521 564 1521 c 0,17,18
 585 1521 585 1521 603.5 1515 c 128,-1,19
 622 1509 622 1509 636.5 1497 c 128,-1,20
 651 1485 651 1485 659.5 1466.5 c 128,-1,21
 668 1448 668 1448 668 1424 c 0,22,23
 668 1404 668 1404 659.5 1378.5 c 128,-1,24
 651 1353 651 1353 643 1330 c 2,25,-1
 199 13 l 2,0,1
EndSplineSet
EndChar

StartChar: yen
Encoding: 165 165 100
Width: 1338
Flags: W
LayerCount: 2
Fore
SplineSet
878 654 m 1,0,-1
 1142 654 l 2,1,2
 1174 654 1174 654 1190.5 633 c 128,-1,3
 1207 612 1207 612 1207 588 c 0,4,5
 1207 562 1207 562 1191 542 c 128,-1,6
 1175 522 1175 522 1142 522 c 2,7,-1
 857 522 l 1,8,-1
 857 407 l 1,9,-1
 1142 407 l 2,10,11
 1174 407 1174 407 1190.5 386.5 c 128,-1,12
 1207 366 1207 366 1207 341 c 0,13,14
 1207 315 1207 315 1191 294.5 c 128,-1,15
 1175 274 1175 274 1142 274 c 2,16,-1
 856 274 l 1,17,-1
 856 223 l 2,18,19
 856 179 856 179 847 139 c 128,-1,20
 838 99 838 99 816 68.5 c 128,-1,21
 794 38 794 38 758.5 20 c 128,-1,22
 723 2 723 2 670 2 c 0,23,24
 580 2 580 2 532 55 c 128,-1,25
 484 108 484 108 484 223 c 2,26,-1
 484 274 l 1,27,-1
 211 274 l 2,28,29
 177 274 177 274 161.5 295 c 128,-1,30
 146 316 146 316 146 342 c 0,31,32
 146 365 146 365 161 386 c 128,-1,33
 176 407 176 407 211 407 c 2,34,-1
 484 407 l 1,35,-1
 484 522 l 1,36,-1
 211 522 l 2,37,38
 177 522 177 522 161.5 542.5 c 128,-1,39
 146 563 146 563 146 589 c 0,40,41
 146 613 146 613 161.5 633.5 c 128,-1,42
 177 654 177 654 211 654 c 2,43,-1
 458 654 l 1,44,-1
 144 1165 l 2,45,46
 122 1200 122 1200 102.5 1238.5 c 128,-1,47
 83 1277 83 1277 83 1308 c 0,48,49
 83 1337 83 1337 95.5 1361.5 c 128,-1,50
 108 1386 108 1386 130 1404 c 128,-1,51
 152 1422 152 1422 180 1432 c 128,-1,52
 208 1442 208 1442 240 1442 c 0,53,54
 276 1442 276 1442 310.5 1423 c 128,-1,55
 345 1404 345 1404 374.5 1375.5 c 128,-1,56
 404 1347 404 1347 427 1313.5 c 128,-1,57
 450 1280 450 1280 463 1252 c 1,58,-1
 686 849 l 1,59,-1
 915 1259 l 1,60,61
 935 1297 935 1297 958.5 1331 c 128,-1,62
 982 1365 982 1365 1008 1390 c 128,-1,63
 1034 1415 1034 1415 1062.5 1429.5 c 128,-1,64
 1091 1444 1091 1444 1122 1444 c 0,65,66
 1148 1444 1148 1444 1173.5 1436 c 128,-1,67
 1199 1428 1199 1428 1219 1413 c 128,-1,68
 1239 1398 1239 1398 1251.5 1375.5 c 128,-1,69
 1264 1353 1264 1353 1264 1324 c 0,70,71
 1264 1309 1264 1309 1258.5 1292 c 128,-1,72
 1253 1275 1253 1275 1245 1257 c 128,-1,73
 1237 1239 1237 1239 1226.5 1221 c 128,-1,74
 1216 1203 1216 1203 1206 1187 c 0,75,76
 1124 1053 1124 1053 1042.5 920.5 c 128,-1,77
 961 788 961 788 878 654 c 1,0,-1
EndSplineSet
EndChar

StartChar: florin
Encoding: 402 402 101
Width: 1299
Flags: W
LayerCount: 2
Fore
SplineSet
734 679 m 1,0,1
 706 537 706 537 677 385.5 c 128,-1,2
 648 234 648 234 613 74 c 0,3,4
 576 -93 576 -93 526.5 -210.5 c 128,-1,5
 477 -328 477 -328 414.5 -401.5 c 128,-1,6
 352 -475 352 -475 276.5 -508.5 c 128,-1,7
 201 -542 201 -542 114 -542 c 0,8,9
 41 -542 41 -542 5.5 -518 c 128,-1,10
 -30 -494 -30 -494 -30 -454 c 0,11,12
 -30 -427 -30 -427 -18 -405.5 c 128,-1,13
 -6 -384 -6 -384 14 -369.5 c 128,-1,14
 34 -355 34 -355 60.5 -346.5 c 128,-1,15
 87 -338 87 -338 116 -336 c 0,16,17
 160 -333 160 -333 195 -310 c 128,-1,18
 230 -287 230 -287 259.5 -238.5 c 128,-1,19
 289 -190 289 -190 315 -112 c 128,-1,20
 341 -34 341 -34 368 77.5 c 128,-1,21
 395 189 395 189 424.5 338 c 128,-1,22
 454 487 454 487 490 679 c 1,23,-1
 418 679 l 2,24,25
 383 679 383 679 352 685 c 128,-1,26
 321 691 321 691 297 705.5 c 128,-1,27
 273 720 273 720 259 744.5 c 128,-1,28
 245 769 245 769 245 805 c 0,29,30
 245 826 245 826 253 846.5 c 128,-1,31
 261 867 261 867 276 883 c 128,-1,32
 291 899 291 899 312.5 909 c 128,-1,33
 334 919 334 919 362 919 c 2,34,-1
 529 919 l 1,35,36
 553 1093 553 1093 602.5 1225 c 128,-1,37
 652 1357 652 1357 722 1445 c 128,-1,38
 792 1533 792 1533 880 1577.5 c 128,-1,39
 968 1622 968 1622 1068 1622 c 0,40,41
 1137 1622 1137 1622 1170 1599 c 128,-1,42
 1203 1576 1203 1576 1203 1538 c 0,43,44
 1203 1511 1203 1511 1191 1492 c 128,-1,45
 1179 1473 1179 1473 1157 1460 c 128,-1,46
 1135 1447 1135 1447 1105 1439 c 128,-1,47
 1075 1431 1075 1431 1039 1428 c 0,48,49
 988 1423 988 1423 949 1390.5 c 128,-1,50
 910 1358 910 1358 879.5 1295.5 c 128,-1,51
 849 1233 849 1233 823.5 1139.5 c 128,-1,52
 798 1046 798 1046 774 919 c 1,53,-1
 947 919 l 2,54,55
 974 919 974 919 996 909 c 128,-1,56
 1018 899 1018 899 1033.5 882.5 c 128,-1,57
 1049 866 1049 866 1057 844.5 c 128,-1,58
 1065 823 1065 823 1065 799 c 0,59,60
 1065 739 1065 739 1025 709 c 128,-1,61
 985 679 985 679 916 679 c 2,62,-1
 734 679 l 1,0,1
EndSplineSet
EndChar

StartChar: section
Encoding: 167 167 102
Width: 1299
Flags: W
LayerCount: 2
Fore
SplineSet
610 911 m 1,0,1
 580 893 580 893 555.5 876 c 128,-1,2
 531 859 531 859 513.5 841.5 c 128,-1,3
 496 824 496 824 487 805 c 128,-1,4
 478 786 478 786 478 762 c 0,5,6
 478 732 478 732 496 709.5 c 128,-1,7
 514 687 514 687 542.5 668.5 c 128,-1,8
 571 650 571 650 606 634 c 128,-1,9
 641 618 641 618 675 603 c 1,10,11
 706 620 706 620 733 637.5 c 128,-1,12
 760 655 760 655 780.5 673.5 c 128,-1,13
 801 692 801 692 812.5 713 c 128,-1,14
 824 734 824 734 824 758 c 0,15,16
 824 786 824 786 807 807.5 c 128,-1,17
 790 829 790 829 761 846.5 c 128,-1,18
 732 864 732 864 693 879 c 128,-1,19
 654 894 654 894 610 911 c 1,0,1
983 1477 m 0,20,21
 1025 1468 1025 1468 1044 1441 c 128,-1,22
 1063 1414 1063 1414 1063 1385 c 0,23,24
 1063 1366 1063 1366 1056 1349 c 128,-1,25
 1049 1332 1049 1332 1037 1319 c 128,-1,26
 1025 1306 1025 1306 1007.5 1298 c 128,-1,27
 990 1290 990 1290 969 1290 c 0,28,29
 953 1290 953 1290 938 1295 c 1,30,-1
 891 1304 l 2,31,32
 858 1310 858 1310 827.5 1315 c 128,-1,33
 797 1320 797 1320 762 1320 c 0,34,35
 735 1320 735 1320 707 1315.5 c 128,-1,36
 679 1311 679 1311 656.5 1299.5 c 128,-1,37
 634 1288 634 1288 619.5 1269.5 c 128,-1,38
 605 1251 605 1251 605 1223 c 0,39,40
 605 1191 605 1191 626 1168.5 c 128,-1,41
 647 1146 647 1146 681.5 1128 c 128,-1,42
 716 1110 716 1110 760 1094 c 128,-1,43
 804 1078 804 1078 850.5 1060 c 128,-1,44
 897 1042 897 1042 941 1019.5 c 128,-1,45
 985 997 985 997 1019.5 965.5 c 128,-1,46
 1054 934 1054 934 1075 891 c 128,-1,47
 1096 848 1096 848 1096 790 c 0,48,49
 1096 694 1096 694 1036.5 622.5 c 128,-1,50
 977 551 977 551 871 511 c 1,51,52
 913 494 913 494 947 471 c 128,-1,53
 981 448 981 448 1005.5 418.5 c 128,-1,54
 1030 389 1030 389 1043.5 352 c 128,-1,55
 1057 315 1057 315 1057 271 c 0,56,57
 1057 199 1057 199 1027.5 143 c 128,-1,58
 998 87 998 87 943.5 48 c 128,-1,59
 889 9 889 9 811.5 -12.5 c 128,-1,60
 734 -34 734 -34 638 -35 c 1,61,-1
 604 -35 l 2,62,63
 514 -35 514 -35 425.5 -23 c 128,-1,64
 337 -11 337 -11 252 10 c 0,65,66
 210 21 210 21 192 44.5 c 128,-1,67
 174 68 174 68 174 97 c 0,68,69
 174 116 174 116 181.5 133.5 c 128,-1,70
 189 151 189 151 201.5 164.5 c 128,-1,71
 214 178 214 178 231.5 186.5 c 128,-1,72
 249 195 249 195 270 195 c 0,73,74
 296 195 296 195 329.5 184 c 128,-1,75
 363 173 363 173 394 168 c 0,76,77
 423 163 423 163 455 161 c 128,-1,78
 487 159 487 159 525 159 c 0,79,80
 558 159 558 159 589 166.5 c 128,-1,81
 620 174 620 174 644.5 190 c 128,-1,82
 669 206 669 206 683.5 230.5 c 128,-1,83
 698 255 698 255 698 289 c 0,84,85
 698 321 698 321 676.5 343.5 c 128,-1,86
 655 366 655 366 619.5 384 c 128,-1,87
 584 402 584 402 539 417.5 c 128,-1,88
 494 433 494 433 447 450.5 c 128,-1,89
 400 468 400 468 355 490.5 c 128,-1,90
 310 513 310 513 274.5 544.5 c 128,-1,91
 239 576 239 576 217.5 619 c 128,-1,92
 196 662 196 662 196 721 c 0,93,94
 196 762 196 762 212.5 802.5 c 128,-1,95
 229 843 229 843 258.5 878 c 128,-1,96
 288 913 288 913 330 940.5 c 128,-1,97
 372 968 372 968 423 982 c 1,98,99
 418 984 418 984 416 988 c 1,100,101
 330 1023 330 1023 285 1082.5 c 128,-1,102
 240 1142 240 1142 240 1219 c 0,103,104
 240 1514 240 1514 685 1514 c 0,105,106
 763 1514 763 1514 835.5 1503.5 c 128,-1,107
 908 1493 908 1493 983 1477 c 0,20,21
EndSplineSet
EndChar

StartChar: currency
Encoding: 164 164 103
Width: 1258
Flags: W
LayerCount: 2
Fore
SplineSet
636 198 m 0,0,1
 561 198 561 198 499 215 c 128,-1,2
 437 232 437 232 386 264 c 1,3,-1
 323 200 l 2,4,5
 303 179 303 179 286.5 168.5 c 128,-1,6
 270 158 270 158 247 158 c 1,7,8
 231 159 231 159 219.5 166 c 128,-1,9
 208 173 208 173 200.5 184 c 128,-1,10
 193 195 193 195 189 208.5 c 128,-1,11
 185 222 185 222 185 236 c 1,12,13
 188 258 188 258 205 275 c 2,14,-1
 285 355 l 1,15,16
 240 410 240 410 219.5 476.5 c 128,-1,17
 199 543 199 543 199 614 c 0,18,19
 199 682 199 682 219 747 c 128,-1,20
 239 812 239 812 281 868 c 1,21,-1
 219 931 l 2,22,23
 204 947 204 947 194 961 c 128,-1,24
 184 975 184 975 185 998 c 0,25,26
 186 1023 186 1023 207 1042 c 128,-1,27
 228 1061 228 1061 254 1061 c 0,28,29
 271 1061 271 1061 285.5 1050.5 c 128,-1,30
 300 1040 300 1040 315 1027 c 1,31,-1
 380 961 l 1,32,33
 431 994 431 994 494 1013.5 c 128,-1,34
 557 1033 557 1033 636 1033 c 0,35,36
 714 1033 714 1033 777.5 1014.5 c 128,-1,37
 841 996 841 996 892 961 c 1,38,-1
 957 1027 l 2,39,40
 971 1041 971 1041 989.5 1050 c 128,-1,41
 1008 1059 1008 1059 1022 1059 c 0,42,43
 1046 1059 1046 1059 1066 1041 c 128,-1,44
 1086 1023 1086 1023 1088 998 c 1,45,46
 1088 975 1088 975 1078.5 960.5 c 128,-1,47
 1069 946 1069 946 1054 931 c 2,48,-1
 991 868 l 1,49,50
 1033 814 1033 814 1053.5 747.5 c 128,-1,51
 1074 681 1074 681 1074 614 c 0,52,53
 1074 542 1074 542 1052.5 476.5 c 128,-1,54
 1031 411 1031 411 987 354 c 1,55,-1
 1046 296 l 2,56,57
 1066 276 1066 276 1076.5 259.5 c 128,-1,58
 1087 243 1087 243 1088 220 c 1,59,60
 1086 204 1086 204 1079 192 c 128,-1,61
 1072 180 1072 180 1061 172.5 c 128,-1,62
 1050 165 1050 165 1036.5 161.5 c 128,-1,63
 1023 158 1023 158 1010 158 c 1,64,65
 996 160 996 160 982 170 c 128,-1,66
 968 180 968 180 957 193 c 1,67,-1
 885 264 l 1,68,69
 784 198 784 198 636 198 c 0,0,1
636 907 m 0,70,71
 564 907 564 907 510.5 881.5 c 128,-1,72
 457 856 457 856 421.5 814.5 c 128,-1,73
 386 773 386 773 368.5 720.5 c 128,-1,74
 351 668 351 668 351 614 c 0,75,76
 351 559 351 559 369 506.5 c 128,-1,77
 387 454 387 454 422.5 413 c 128,-1,78
 458 372 458 372 511.5 347 c 128,-1,79
 565 322 565 322 636 322 c 0,80,81
 704 322 704 322 757 345.5 c 128,-1,82
 810 369 810 369 846.5 409.5 c 128,-1,83
 883 450 883 450 902 502.5 c 128,-1,84
 921 555 921 555 921 614 c 0,85,86
 921 668 921 668 903 721 c 128,-1,87
 885 774 885 774 849 815 c 128,-1,88
 813 856 813 856 759.5 881.5 c 128,-1,89
 706 907 706 907 636 907 c 0,70,71
EndSplineSet
EndChar

StartChar: quotesingle
Encoding: 39 39 104
Width: 649
Flags: W
LayerCount: 2
Fore
SplineSet
202 1363 m 2,0,1
 201 1367 201 1367 201 1376 c 0,2,3
 201 1399 201 1399 211 1417.5 c 128,-1,4
 221 1436 221 1436 237.5 1449 c 128,-1,5
 254 1462 254 1462 276.5 1469 c 128,-1,6
 299 1476 299 1476 324 1476 c 0,7,8
 347 1476 347 1476 369 1469.5 c 128,-1,9
 391 1463 391 1463 408 1450.5 c 128,-1,10
 425 1438 425 1438 435 1418 c 128,-1,11
 445 1398 445 1398 445 1371 c 1,12,-1
 444 1348 l 2,13,14
 443 1343 443 1343 443 1336.5 c 128,-1,15
 443 1330 443 1330 442 1325 c 2,16,-1
 414 1041 l 1,17,18
 399 925 399 925 323 925 c 0,19,20
 293 925 293 925 266.5 949 c 128,-1,21
 240 973 240 973 236 1022 c 2,22,-1
 202 1363 l 2,0,1
EndSplineSet
EndChar

StartChar: quotedblleft
Encoding: 8220 8220 105
Width: 1178
Flags: W
LayerCount: 2
Fore
SplineSet
292 1451 m 1,0,-1
 565 1451 l 1,1,-1
 449 930 l 1,2,-1
 120 930 l 1,3,-1
 292 1451 l 1,0,-1
772 1451 m 1,4,-1
 1045 1451 l 1,5,-1
 929 930 l 1,6,-1
 600 930 l 1,7,-1
 772 1451 l 1,4,-1
EndSplineSet
EndChar

StartChar: guillemotleft
Encoding: 171 171 106
Width: 1238
Flags: W
LayerCount: 2
Fore
SplineSet
363 972 m 1,0,1
 390 1015 390 1015 422 1033.5 c 128,-1,2
 454 1052 454 1052 489 1052 c 0,3,4
 512 1052 512 1052 532.5 1044 c 128,-1,5
 553 1036 553 1036 568 1021.5 c 128,-1,6
 583 1007 583 1007 592 987.5 c 128,-1,7
 601 968 601 968 601 946 c 0,8,9
 601 931 601 931 593.5 912 c 128,-1,10
 586 893 586 893 578 875 c 2,11,-1
 423 529 l 1,12,13
 465 437 465 437 505 346.5 c 128,-1,14
 545 256 545 256 586 165 c 0,15,16
 591 153 591 153 595.5 141 c 128,-1,17
 600 129 600 129 602 117 c 1,18,19
 602 67 602 67 569.5 36 c 128,-1,20
 537 5 537 5 483 5 c 1,21,22
 442 6 442 6 409.5 34 c 128,-1,23
 377 62 377 62 346 115 c 2,24,-1
 105 529 l 1,25,-1
 363 972 l 1,0,1
865 972 m 1,26,27
 891 1014 891 1014 923.5 1033 c 128,-1,28
 956 1052 956 1052 990 1052 c 0,29,30
 1013 1052 1013 1052 1033.5 1044 c 128,-1,31
 1054 1036 1054 1036 1069.5 1021.5 c 128,-1,32
 1085 1007 1085 1007 1094 987.5 c 128,-1,33
 1103 968 1103 968 1103 946 c 0,34,35
 1103 931 1103 931 1095.5 912 c 128,-1,36
 1088 893 1088 893 1080 875 c 2,37,-1
 925 529 l 1,38,-1
 1088 165 l 2,39,40
 1093 153 1093 153 1097.5 141 c 128,-1,41
 1102 129 1102 129 1104 117 c 1,42,43
 1104 66 1104 66 1071 35.5 c 128,-1,44
 1038 5 1038 5 984 5 c 0,45,46
 945 5 945 5 911 33.5 c 128,-1,47
 877 62 877 62 847 115 c 2,48,-1
 606 529 l 1,49,-1
 865 972 l 1,26,27
EndSplineSet
EndChar

StartChar: guilsinglleft
Encoding: 8249 8249 107
Width: 649
Flags: W
LayerCount: 2
Fore
SplineSet
322 972 m 1,0,1
 349 1016 349 1016 380.5 1034 c 128,-1,2
 412 1052 412 1052 447 1052 c 0,3,4
 469 1052 469 1052 489 1044.5 c 128,-1,5
 509 1037 509 1037 524.5 1023 c 128,-1,6
 540 1009 540 1009 549.5 990 c 128,-1,7
 559 971 559 971 559 949 c 0,8,9
 559 932 559 932 552 912 c 128,-1,10
 545 892 545 892 537 875 c 2,11,-1
 382 529 l 1,12,-1
 545 165 l 2,13,14
 551 151 551 151 556 136.5 c 128,-1,15
 561 122 561 122 561 107 c 0,16,17
 561 83 561 83 551 64.5 c 128,-1,18
 541 46 541 46 524.5 32.5 c 128,-1,19
 508 19 508 19 486 12 c 128,-1,20
 464 5 464 5 441 5 c 0,21,22
 400 5 400 5 368.5 33.5 c 128,-1,23
 337 62 337 62 305 115 c 2,24,-1
 63 529 l 1,25,-1
 322 972 l 1,0,1
EndSplineSet
EndChar

StartChar: guilsinglright
Encoding: 8250 8250 108
Width: 649
Flags: W
LayerCount: 2
Fore
SplineSet
590 529 m 1,0,-1
 350 118 l 2,1,2
 318 63 318 63 285 34 c 128,-1,3
 252 5 252 5 211 5 c 0,4,5
 187 5 187 5 165.5 12 c 128,-1,6
 144 19 144 19 128 32 c 128,-1,7
 112 45 112 45 102.5 64.5 c 128,-1,8
 93 84 93 84 93 109 c 0,9,10
 93 126 93 126 100.5 145 c 128,-1,11
 108 164 108 164 116 182 c 2,12,-1
 271 529 l 1,13,-1
 116 875 l 2,14,15
 108 893 108 893 100.5 911.5 c 128,-1,16
 93 930 93 930 93 947 c 0,17,18
 93 992 93 992 124 1021.5 c 128,-1,19
 155 1051 155 1051 207 1051 c 0,20,21
 249 1051 249 1051 283 1023.5 c 128,-1,22
 317 996 317 996 350 939 c 2,23,-1
 590 529 l 1,0,-1
EndSplineSet
EndChar

StartChar: fi
Encoding: 64257 64257 109
Width: 1296
Flags: W
LayerCount: 2
Fore
SplineSet
859 819 m 1,0,-1
 497 819 l 1,1,-1
 497 214 l 2,2,3
 497 170 497 170 488.5 131 c 128,-1,4
 480 92 480 92 461 63 c 128,-1,5
 442 34 442 34 411.5 17.5 c 128,-1,6
 381 1 381 1 337 1 c 0,7,8
 255 1 255 1 216.5 54.5 c 128,-1,9
 178 108 178 108 178 214 c 2,10,-1
 178 819 l 1,11,-1
 132 819 l 2,12,13
 68 819 68 819 31 841 c 128,-1,14
 -6 863 -6 863 -6 914 c 0,15,16
 -6 955 -6 955 23 982 c 128,-1,17
 52 1009 52 1009 115 1009 c 2,18,-1
 178 1009 l 1,19,-1
 178 1056 l 2,20,21
 178 1161 178 1161 196 1238.5 c 128,-1,22
 214 1316 214 1316 254.5 1367 c 128,-1,23
 295 1418 295 1418 360.5 1443 c 128,-1,24
 426 1468 426 1468 520 1468 c 0,25,26
 562 1468 562 1468 605.5 1465 c 128,-1,27
 649 1462 649 1462 684 1450 c 128,-1,28
 719 1438 719 1438 741 1414 c 128,-1,29
 763 1390 763 1390 763 1347 c 0,30,31
 763 1317 763 1317 752 1298 c 128,-1,32
 741 1279 741 1279 721.5 1267.5 c 128,-1,33
 702 1256 702 1256 676.5 1252 c 128,-1,34
 651 1248 651 1248 622 1248 c 0,35,36
 581 1248 581 1248 556 1240.5 c 128,-1,37
 531 1233 531 1233 518 1210.5 c 128,-1,38
 505 1188 505 1188 501 1146 c 128,-1,39
 497 1104 497 1104 497 1036 c 2,40,-1
 497 1009 l 1,41,-1
 977 1009 l 2,42,43
 1020 1009 1020 1009 1057 1002.5 c 128,-1,44
 1094 996 1094 996 1121 973.5 c 128,-1,45
 1148 951 1148 951 1163.5 908.5 c 128,-1,46
 1179 866 1179 866 1179 794 c 2,47,-1
 1179 234 l 2,48,49
 1179 187 1179 187 1173.5 145.5 c 128,-1,50
 1168 104 1168 104 1151.5 72 c 128,-1,51
 1135 40 1135 40 1104 21.5 c 128,-1,52
 1073 3 1073 3 1022 3 c 0,53,54
 936 3 936 3 897.5 59 c 128,-1,55
 859 115 859 115 859 233 c 2,56,-1
 859 819 l 1,0,-1
1192 1330 m 0,57,58
 1192 1297 1192 1297 1177 1271.5 c 128,-1,59
 1162 1246 1162 1246 1138 1229 c 128,-1,60
 1114 1212 1114 1212 1082.5 1203.5 c 128,-1,61
 1051 1195 1051 1195 1018 1195 c 0,62,63
 983 1195 983 1195 951.5 1204 c 128,-1,64
 920 1213 920 1213 896 1230.5 c 128,-1,65
 872 1248 872 1248 858 1273 c 128,-1,66
 844 1298 844 1298 844 1330 c 0,67,68
 844 1359 844 1359 857.5 1383.5 c 128,-1,69
 871 1408 871 1408 894 1426 c 128,-1,70
 917 1444 917 1444 949 1454 c 128,-1,71
 981 1464 981 1464 1019 1464 c 0,72,73
 1052 1464 1052 1464 1083.5 1455 c 128,-1,74
 1115 1446 1115 1446 1139 1429 c 128,-1,75
 1163 1412 1163 1412 1177.5 1387 c 128,-1,76
 1192 1362 1192 1362 1192 1330 c 0,57,58
EndSplineSet
EndChar

StartChar: fl
Encoding: 64258 64258 110
Width: 1296
Flags: W
LayerCount: 2
Fore
SplineSet
497 819 m 1,0,-1
 497 214 l 2,1,2
 497 170 497 170 488.5 131 c 128,-1,3
 480 92 480 92 461 63 c 128,-1,4
 442 34 442 34 411.5 17.5 c 128,-1,5
 381 1 381 1 337 1 c 0,6,7
 261 1 261 1 219.5 49.5 c 128,-1,8
 178 98 178 98 178 195 c 2,9,-1
 178 819 l 1,10,-1
 132 819 l 2,11,12
 68 819 68 819 31 841 c 128,-1,13
 -6 863 -6 863 -6 914 c 0,14,15
 -6 955 -6 955 23 982 c 128,-1,16
 52 1009 52 1009 115 1009 c 2,17,-1
 178 1009 l 1,18,-1
 178 1074 l 2,19,20
 178 1177 178 1177 204.5 1250.5 c 128,-1,21
 231 1324 231 1324 276.5 1370.5 c 128,-1,22
 322 1417 322 1417 382 1439 c 128,-1,23
 442 1461 442 1461 509 1461 c 0,24,25
 573 1461 573 1461 626.5 1449.5 c 128,-1,26
 680 1438 680 1438 720.5 1420 c 128,-1,27
 761 1402 761 1402 788.5 1380 c 128,-1,28
 816 1358 816 1358 828 1338 c 1,29,30
 842 1391 842 1391 884 1420.5 c 128,-1,31
 926 1450 926 1450 982 1450 c 0,32,33
 1056 1450 1056 1450 1098.5 1402 c 128,-1,34
 1141 1354 1141 1354 1141 1256 c 2,35,-1
 1141 233 l 2,36,37
 1141 188 1141 188 1136.5 146.5 c 128,-1,38
 1132 105 1132 105 1115.5 73 c 128,-1,39
 1099 41 1099 41 1068 22 c 128,-1,40
 1037 3 1037 3 985 3 c 0,41,42
 900 3 900 3 860.5 59 c 128,-1,43
 821 115 821 115 821 232 c 2,44,-1
 821 1282 l 1,45,-1
 624 1282 l 2,46,47
 586 1282 586 1282 561.5 1270.5 c 128,-1,48
 537 1259 537 1259 522.5 1232 c 128,-1,49
 508 1205 508 1205 502.5 1161 c 128,-1,50
 497 1117 497 1117 497 1052 c 2,51,-1
 497 1009 l 1,52,-1
 567 1009 l 2,53,54
 627 1009 627 1009 665.5 987 c 128,-1,55
 704 965 704 965 704 914 c 0,56,57
 704 862 704 862 663 840.5 c 128,-1,58
 622 819 622 819 551 819 c 2,59,-1
 497 819 l 1,0,-1
EndSplineSet
EndChar

StartChar: endash
Encoding: 8211 8211 111
Width: 1024
Flags: W
LayerCount: 2
Fore
SplineSet
112 417 m 2,0,1
 86 417 86 417 65.5 426.5 c 128,-1,2
 45 436 45 436 31 452.5 c 128,-1,3
 17 469 17 469 9 490.5 c 128,-1,4
 1 512 1 512 1 537 c 0,5,6
 1 598 1 598 40 627 c 128,-1,7
 79 656 79 656 151 656 c 2,8,-1
 872 656 l 2,9,10
 900 656 900 656 927 651 c 128,-1,11
 954 646 954 646 975 633 c 128,-1,12
 996 620 996 620 1008.5 596.5 c 128,-1,13
 1021 573 1021 573 1021 536 c 0,14,15
 1021 477 1021 477 985 447 c 128,-1,16
 949 417 949 417 872 417 c 2,17,-1
 112 417 l 2,0,1
EndSplineSet
EndChar

StartChar: dagger
Encoding: 8224 8224 112
Width: 1299
Flags: W
LayerCount: 2
Fore
SplineSet
790 916 m 1,0,-1
 790 210 l 2,1,2
 790 168 790 168 783.5 130.5 c 128,-1,3
 777 93 777 93 761 64.5 c 128,-1,4
 745 36 745 36 717.5 19.5 c 128,-1,5
 690 3 690 3 649 3 c 0,6,7
 582 3 582 3 545.5 46.5 c 128,-1,8
 509 90 509 90 509 175 c 2,9,-1
 509 916 l 1,10,-1
 315 916 l 2,11,12
 286 916 286 916 259.5 921.5 c 128,-1,13
 233 927 233 927 213 940.5 c 128,-1,14
 193 954 193 954 181 976 c 128,-1,15
 169 998 169 998 169 1030 c 0,16,17
 169 1086 169 1086 205 1116.5 c 128,-1,18
 241 1147 241 1147 315 1147 c 2,19,-1
 509 1147 l 1,20,-1
 509 1273 l 2,21,22
 509 1313 509 1313 515 1349.5 c 128,-1,23
 521 1386 521 1386 537 1414 c 128,-1,24
 553 1442 553 1442 580 1459 c 128,-1,25
 607 1476 607 1476 649 1476 c 0,26,27
 715 1476 715 1476 752.5 1432 c 128,-1,28
 790 1388 790 1388 790 1306 c 2,29,-1
 790 1147 l 1,30,-1
 981 1147 l 2,31,32
 1009 1147 1009 1147 1036 1141.5 c 128,-1,33
 1063 1136 1063 1136 1083.5 1122.5 c 128,-1,34
 1104 1109 1104 1109 1116.5 1087.5 c 128,-1,35
 1129 1066 1129 1066 1129 1033 c 0,36,37
 1129 972 1129 972 1089.5 944 c 128,-1,38
 1050 916 1050 916 981 916 c 2,39,-1
 790 916 l 1,0,-1
EndSplineSet
EndChar

StartChar: daggerdbl
Encoding: 8225 8225 113
Width: 1299
Flags: W
LayerCount: 2
Fore
SplineSet
784 297 m 1,0,-1
 784 198 l 2,1,2
 784 159 784 159 777.5 123.5 c 128,-1,3
 771 88 771 88 755.5 61 c 128,-1,4
 740 34 740 34 714 18 c 128,-1,5
 688 2 688 2 649 2 c 0,6,7
 579 2 579 2 546.5 49 c 128,-1,8
 514 96 514 96 514 184 c 2,9,-1
 514 297 l 1,10,-1
 325 297 l 2,11,12
 295 297 295 297 266.5 301.5 c 128,-1,13
 238 306 238 306 216.5 318 c 128,-1,14
 195 330 195 330 182 351 c 128,-1,15
 169 372 169 372 169 405 c 0,16,17
 169 459 169 459 205.5 487.5 c 128,-1,18
 242 516 242 516 311 516 c 2,19,-1
 514 516 l 1,20,-1
 514 960 l 1,21,-1
 311 960 l 2,22,23
 283 960 283 960 257 965 c 128,-1,24
 231 970 231 970 211.5 982.5 c 128,-1,25
 192 995 192 995 180.5 1016 c 128,-1,26
 169 1037 169 1037 169 1068 c 0,27,28
 169 1122 169 1122 205.5 1150.5 c 128,-1,29
 242 1179 242 1179 311 1179 c 2,30,-1
 514 1179 l 1,31,-1
 514 1278 l 2,32,33
 514 1315 514 1315 519.5 1350.5 c 128,-1,34
 525 1386 525 1386 539.5 1414 c 128,-1,35
 554 1442 554 1442 580.5 1459 c 128,-1,36
 607 1476 607 1476 649 1476 c 0,37,38
 718 1476 718 1476 751 1428.5 c 128,-1,39
 784 1381 784 1381 784 1293 c 2,40,-1
 784 1179 l 1,41,-1
 986 1179 l 2,42,43
 1014 1179 1014 1179 1039.5 1173.5 c 128,-1,44
 1065 1168 1065 1168 1085 1155.5 c 128,-1,45
 1105 1143 1105 1143 1117 1122.5 c 128,-1,46
 1129 1102 1129 1102 1129 1071 c 0,47,48
 1129 1016 1129 1016 1091 988 c 128,-1,49
 1053 960 1053 960 986 960 c 2,50,-1
 784 960 l 1,51,-1
 784 516 l 1,52,-1
 986 516 l 2,53,54
 1014 516 1014 516 1039.5 510.5 c 128,-1,55
 1065 505 1065 505 1085 492.5 c 128,-1,56
 1105 480 1105 480 1117 459.5 c 128,-1,57
 1129 439 1129 439 1129 408 c 0,58,59
 1129 353 1129 353 1091 325 c 128,-1,60
 1053 297 1053 297 986 297 c 2,61,-1
 784 297 l 1,0,-1
EndSplineSet
EndChar

StartChar: periodcentered
Encoding: 183 183 114
Width: 649
Flags: W
LayerCount: 2
Fore
SplineSet
150 517 m 0,0,1
 150 551 150 551 163.5 582 c 128,-1,2
 177 613 177 613 200 636 c 128,-1,3
 223 659 223 659 255 672.5 c 128,-1,4
 287 686 287 686 324 686 c 0,5,6
 360 686 360 686 392 673 c 128,-1,7
 424 660 424 660 447.5 637.5 c 128,-1,8
 471 615 471 615 485 584 c 128,-1,9
 499 553 499 553 499 517 c 0,10,11
 499 483 499 483 486 452 c 128,-1,12
 473 421 473 421 449.5 398 c 128,-1,13
 426 375 426 375 394 361 c 128,-1,14
 362 347 362 347 324 347 c 256,15,16
 286 347 286 347 254 360.5 c 128,-1,17
 222 374 222 374 199 397 c 128,-1,18
 176 420 176 420 163 451 c 128,-1,19
 150 482 150 482 150 517 c 0,0,1
EndSplineSet
EndChar

StartChar: paragraph
Encoding: 182 182 115
Width: 1299
Flags: W
LayerCount: 2
Fore
SplineSet
944 1451 m 2,0,1
 1002 1451 1002 1451 1036.5 1436 c 128,-1,2
 1071 1421 1071 1421 1088.5 1396 c 128,-1,3
 1106 1371 1106 1371 1111 1338 c 128,-1,4
 1116 1305 1116 1305 1116 1268 c 0,5,6
 1116 948 1116 948 1115 632 c 128,-1,7
 1114 316 1114 316 1114 -3 c 0,8,9
 1114 -66 1114 -66 1090 -103 c 128,-1,10
 1066 -140 1066 -140 1009 -140 c 0,11,12
 976 -140 976 -140 955.5 -126.5 c 128,-1,13
 935 -113 935 -113 923.5 -89.5 c 128,-1,14
 912 -66 912 -66 908 -35 c 128,-1,15
 904 -4 904 -4 904 32 c 2,16,-1
 904 1288 l 1,17,-1
 720 1288 l 1,18,-1
 720 32 l 2,19,20
 720 1 720 1 716.5 -30 c 128,-1,21
 713 -61 713 -61 701.5 -85.5 c 128,-1,22
 690 -110 690 -110 669.5 -125 c 128,-1,23
 649 -140 649 -140 615 -140 c 0,24,25
 582 -140 582 -140 561.5 -126.5 c 128,-1,26
 541 -113 541 -113 529.5 -89.5 c 128,-1,27
 518 -66 518 -66 514 -35 c 128,-1,28
 510 -4 510 -4 510 32 c 2,29,-1
 510 732 l 1,30,31
 418 732 418 732 342 760.5 c 128,-1,32
 266 789 266 789 211.5 838 c 128,-1,33
 157 887 157 887 127 952 c 128,-1,34
 97 1017 97 1017 97 1090 c 0,35,36
 97 1161 97 1161 122 1224 c 128,-1,37
 147 1287 147 1287 196.5 1335.5 c 128,-1,38
 246 1384 246 1384 319 1414 c 128,-1,39
 392 1444 392 1444 488 1449 c 0,40,41
 508 1450 508 1450 528 1450.5 c 128,-1,42
 548 1451 548 1451 569 1451 c 2,43,-1
 944 1451 l 2,0,1
EndSplineSet
EndChar

StartChar: bullet
Encoding: 8226 8226 116
Width: 1024
Flags: W
LayerCount: 2
Fore
SplineSet
882 723 m 0,0,1
 882 648 882 648 852.5 582.5 c 128,-1,2
 823 517 823 517 772.5 468 c 128,-1,3
 722 419 722 419 654.5 390.5 c 128,-1,4
 587 362 587 362 511 362 c 0,5,6
 436 362 436 362 369 390 c 128,-1,7
 302 418 302 418 251.5 466.5 c 128,-1,8
 201 515 201 515 171.5 581 c 128,-1,9
 142 647 142 647 142 723 c 0,10,11
 142 794 142 794 169.5 860 c 128,-1,12
 197 926 197 926 246 976.5 c 128,-1,13
 295 1027 295 1027 362.5 1057 c 128,-1,14
 430 1087 430 1087 511 1087 c 0,15,16
 585 1087 585 1087 652.5 1059 c 128,-1,17
 720 1031 720 1031 771 982.5 c 128,-1,18
 822 934 822 934 852 867.5 c 128,-1,19
 882 801 882 801 882 723 c 0,0,1
EndSplineSet
EndChar

StartChar: quotesinglbase
Encoding: 8218 8218 117
Width: 649
Flags: W
LayerCount: 2
Fore
SplineSet
379 -220 m 1,0,-1
 106 -220 l 1,1,-1
 223 301 l 1,2,-1
 552 301 l 1,3,-1
 379 -220 l 1,0,-1
EndSplineSet
EndChar

StartChar: quotedblbase
Encoding: 8222 8222 118
Width: 1178
Flags: W
LayerCount: 2
Fore
SplineSet
409 -220 m 1,0,-1
 136 -220 l 1,1,-1
 252 301 l 1,2,-1
 581 301 l 1,3,-1
 409 -220 l 1,0,-1
883 -220 m 1,4,-1
 581 -220 l 1,5,-1
 726 301 l 1,6,-1
 1055 301 l 1,7,-1
 883 -220 l 1,4,-1
EndSplineSet
EndChar

StartChar: quotedblright
Encoding: 8221 8221 119
Width: 1178
Flags: W
LayerCount: 2
Fore
SplineSet
882 930 m 1,0,-1
 609 930 l 1,1,-1
 725 1451 l 1,2,-1
 1055 1451 l 1,3,-1
 882 930 l 1,0,-1
404 930 m 1,4,-1
 131 930 l 1,5,-1
 248 1451 l 1,6,-1
 577 1451 l 1,7,-1
 404 930 l 1,4,-1
EndSplineSet
EndChar

StartChar: guillemotright
Encoding: 187 187 120
Width: 1238
Flags: W
LayerCount: 2
Fore
SplineSet
1129 529 m 1,0,-1
 887 115 l 1,1,2
 854 61 854 61 822.5 33 c 128,-1,3
 791 5 791 5 750 5 c 0,4,5
 727 5 727 5 706 12 c 128,-1,6
 685 19 685 19 669 32 c 128,-1,7
 653 45 653 45 643 64 c 128,-1,8
 633 83 633 83 633 107 c 1,9,10
 632 124 632 124 639.5 143.5 c 128,-1,11
 647 163 647 163 655 182 c 2,12,-1
 811 529 l 1,13,-1
 655 875 l 2,14,15
 647 894 647 894 639 912.5 c 128,-1,16
 631 931 631 931 631 949 c 0,17,18
 631 971 631 971 640.5 990 c 128,-1,19
 650 1009 650 1009 666 1022.5 c 128,-1,20
 682 1036 682 1036 703 1043.5 c 128,-1,21
 724 1051 724 1051 747 1051 c 0,22,23
 788 1051 788 1051 821 1023.5 c 128,-1,24
 854 996 854 996 887 942 c 1,25,-1
 1129 529 l 1,0,-1
628 529 m 1,26,-1
 386 115 l 1,27,28
 353 61 353 61 321 33 c 128,-1,29
 289 5 289 5 249 5 c 0,30,31
 226 5 226 5 205 12 c 128,-1,32
 184 19 184 19 167.5 32 c 128,-1,33
 151 45 151 45 141 64.5 c 128,-1,34
 131 84 131 84 131 109 c 0,35,36
 131 126 131 126 138 144 c 128,-1,37
 145 162 145 162 153 180 c 2,38,-1
 309 529 l 1,39,-1
 153 877 l 2,40,41
 145 894 145 894 138 912 c 128,-1,42
 131 930 131 930 131 947 c 0,43,44
 131 970 131 970 140 989.5 c 128,-1,45
 149 1009 149 1009 165 1022.5 c 128,-1,46
 181 1036 181 1036 201.5 1043.5 c 128,-1,47
 222 1051 222 1051 246 1051 c 0,48,49
 287 1050 287 1050 320.5 1023.5 c 128,-1,50
 354 997 354 997 386 942 c 2,51,-1
 628 529 l 1,26,-1
EndSplineSet
EndChar

StartChar: ellipsis
Encoding: 8230 8230 121
Width: 1948
Flags: W
LayerCount: 2
Fore
SplineSet
155 158 m 0,0,1
 155 191 155 191 167.5 220.5 c 128,-1,2
 180 250 180 250 202.5 272.5 c 128,-1,3
 225 295 225 295 256 308.5 c 128,-1,4
 287 322 287 322 324 322 c 0,5,6
 357 322 357 322 387.5 310 c 128,-1,7
 418 298 418 298 441.5 276.5 c 128,-1,8
 465 255 465 255 479 225 c 128,-1,9
 493 195 493 195 493 158 c 0,10,11
 493 125 493 125 480 95 c 128,-1,12
 467 65 467 65 444.5 42.5 c 128,-1,13
 422 20 422 20 391 7 c 128,-1,14
 360 -6 360 -6 324 -6 c 0,15,16
 289 -6 289 -6 258.5 6.5 c 128,-1,17
 228 19 228 19 205 41 c 128,-1,18
 182 63 182 63 168.5 93 c 128,-1,19
 155 123 155 123 155 158 c 0,0,1
804 158 m 0,20,21
 804 191 804 191 816.5 220.5 c 128,-1,22
 829 250 829 250 851.5 272.5 c 128,-1,23
 874 295 874 295 905 308.5 c 128,-1,24
 936 322 936 322 973 322 c 0,25,26
 1005 322 1005 322 1035.5 310.5 c 128,-1,27
 1066 299 1066 299 1090 278 c 128,-1,28
 1114 257 1114 257 1128.5 226.5 c 128,-1,29
 1143 196 1143 196 1143 158 c 0,30,31
 1143 125 1143 125 1130 95 c 128,-1,32
 1117 65 1117 65 1094.5 42.5 c 128,-1,33
 1072 20 1072 20 1041 7 c 128,-1,34
 1010 -6 1010 -6 973 -6 c 0,35,36
 938 -6 938 -6 907.5 6.5 c 128,-1,37
 877 19 877 19 854 41 c 128,-1,38
 831 63 831 63 817.5 93 c 128,-1,39
 804 123 804 123 804 158 c 0,20,21
1454 158 m 0,40,41
 1454 191 1454 191 1466.5 220.5 c 128,-1,42
 1479 250 1479 250 1501.5 272.5 c 128,-1,43
 1524 295 1524 295 1555 308.5 c 128,-1,44
 1586 322 1586 322 1623 322 c 0,45,46
 1656 322 1656 322 1686.5 310 c 128,-1,47
 1717 298 1717 298 1740.5 276.5 c 128,-1,48
 1764 255 1764 255 1778 225 c 128,-1,49
 1792 195 1792 195 1792 158 c 0,50,51
 1792 125 1792 125 1779 95 c 128,-1,52
 1766 65 1766 65 1743.5 42.5 c 128,-1,53
 1721 20 1721 20 1690 7 c 128,-1,54
 1659 -6 1659 -6 1623 -6 c 256,55,56
 1587 -6 1587 -6 1556 6.5 c 128,-1,57
 1525 19 1525 19 1502.5 41 c 128,-1,58
 1480 63 1480 63 1467 93 c 128,-1,59
 1454 123 1454 123 1454 158 c 0,40,41
EndSplineSet
EndChar

StartChar: perthousand
Encoding: 8240 8240 122
Width: 2344
Flags: W
LayerCount: 2
Fore
SplineSet
364 1301 m 0,0,1
 324 1301 324 1301 297.5 1282.5 c 128,-1,2
 271 1264 271 1264 255 1230 c 128,-1,3
 239 1196 239 1196 232.5 1148 c 128,-1,4
 226 1100 226 1100 226 1040 c 0,5,6
 226 977 226 977 233 928.5 c 128,-1,7
 240 880 240 880 256 846.5 c 128,-1,8
 272 813 272 813 298.5 795.5 c 128,-1,9
 325 778 325 778 364 778 c 0,10,11
 397 778 397 778 423 792.5 c 128,-1,12
 449 807 449 807 466 838.5 c 128,-1,13
 483 870 483 870 492 919.5 c 128,-1,14
 501 969 501 969 501 1040 c 0,15,16
 501 1101 501 1101 494 1149.5 c 128,-1,17
 487 1198 487 1198 471.5 1231.5 c 128,-1,18
 456 1265 456 1265 429.5 1283 c 128,-1,19
 403 1301 403 1301 364 1301 c 0,0,1
1091 1436 m 2,20,21
 1105 1461 1105 1461 1122 1471.5 c 128,-1,22
 1139 1482 1139 1482 1159 1482 c 0,23,24
 1188 1482 1188 1482 1210.5 1461 c 128,-1,25
 1233 1440 1233 1440 1233 1409 c 0,26,27
 1233 1389 1233 1389 1220.5 1362.5 c 128,-1,28
 1208 1336 1208 1336 1195 1313 c 0,29,30
 1018 991 1018 991 845 672 c 128,-1,31
 672 353 672 353 495 30 c 0,32,33
 486 14 486 14 476 -2.5 c 128,-1,34
 466 -19 466 -19 454.5 -32 c 128,-1,35
 443 -45 443 -45 430.5 -53.5 c 128,-1,36
 418 -62 418 -62 403 -62 c 256,37,38
 388 -62 388 -62 373.5 -55.5 c 128,-1,39
 359 -49 359 -49 348.5 -38.5 c 128,-1,40
 338 -28 338 -28 331.5 -14.5 c 128,-1,41
 325 -1 325 -1 325 13 c 0,42,43
 325 30 325 30 338 55 c 128,-1,44
 351 80 351 80 362 100 c 2,45,-1
 1091 1436 l 2,20,21
372 1457 m 0,46,47
 447 1457 447 1457 507.5 1427.5 c 128,-1,48
 568 1398 568 1398 611 1344.5 c 128,-1,49
 654 1291 654 1291 677.5 1216 c 128,-1,50
 701 1141 701 1141 701 1049 c 0,51,52
 701 958 701 958 681 880 c 128,-1,53
 661 802 661 802 618.5 744.5 c 128,-1,54
 576 687 576 687 511 654.5 c 128,-1,55
 446 622 446 622 356 622 c 0,56,57
 282 622 282 622 221.5 650.5 c 128,-1,58
 161 679 161 679 117.5 732 c 128,-1,59
 74 785 74 785 50 860.5 c 128,-1,60
 26 936 26 936 26 1031 c 0,61,62
 26 1121 26 1121 46.5 1199 c 128,-1,63
 67 1277 67 1277 109.5 1334.5 c 128,-1,64
 152 1392 152 1392 217 1424.5 c 128,-1,65
 282 1457 282 1457 372 1457 c 0,46,47
1971 801 m 0,66,67
 2047 801 2047 801 2108 771 c 128,-1,68
 2169 741 2169 741 2211.5 687 c 128,-1,69
 2254 633 2254 633 2277 558 c 128,-1,70
 2300 483 2300 483 2300 392 c 256,71,72
 2300 301 2300 301 2279.5 223 c 128,-1,73
 2259 145 2259 145 2216 87.5 c 128,-1,74
 2173 30 2173 30 2108 -2.5 c 128,-1,75
 2043 -35 2043 -35 1955 -35 c 0,76,77
 1883 -35 1883 -35 1822 -7 c 128,-1,78
 1761 21 1761 21 1717.5 73.5 c 128,-1,79
 1674 126 1674 126 1649.5 202 c 128,-1,80
 1625 278 1625 278 1625 374 c 0,81,82
 1625 465 1625 465 1645.5 543 c 128,-1,83
 1666 621 1666 621 1708.5 678.5 c 128,-1,84
 1751 736 1751 736 1816 768.5 c 128,-1,85
 1881 801 1881 801 1971 801 c 0,66,67
1962 644 m 0,86,87
 1892 644 1892 644 1858.5 581.5 c 128,-1,88
 1825 519 1825 519 1825 383 c 0,89,90
 1825 322 1825 322 1831.5 273.5 c 128,-1,91
 1838 225 1838 225 1854 191.5 c 128,-1,92
 1870 158 1870 158 1896.5 140 c 128,-1,93
 1923 122 1923 122 1962 122 c 0,94,95
 2031 122 2031 122 2065.5 182.5 c 128,-1,96
 2100 243 2100 243 2100 383 c 0,97,98
 2100 444 2100 444 2093 492.5 c 128,-1,99
 2086 541 2086 541 2070 574.5 c 128,-1,100
 2054 608 2054 608 2027.5 626 c 128,-1,101
 2001 644 2001 644 1962 644 c 0,86,87
1217 801 m 0,102,103
 1291 801 1291 801 1351.5 772.5 c 128,-1,104
 1412 744 1412 744 1455.5 690.5 c 128,-1,105
 1499 637 1499 637 1523 561.5 c 128,-1,106
 1547 486 1547 486 1547 392 c 0,107,108
 1547 301 1547 301 1526.5 223 c 128,-1,109
 1506 145 1506 145 1463.5 87.5 c 128,-1,110
 1421 30 1421 30 1355.5 -2.5 c 128,-1,111
 1290 -35 1290 -35 1201 -35 c 0,112,113
 1127 -35 1127 -35 1066 -6.5 c 128,-1,114
 1005 22 1005 22 962 75.5 c 128,-1,115
 919 129 919 129 895.5 204.5 c 128,-1,116
 872 280 872 280 872 374 c 0,117,118
 872 465 872 465 892.5 543 c 128,-1,119
 913 621 913 621 955.5 678.5 c 128,-1,120
 998 736 998 736 1063 768.5 c 128,-1,121
 1128 801 1128 801 1217 801 c 0,102,103
1209 644 m 0,122,123
 1170 644 1170 644 1143.5 626 c 128,-1,124
 1117 608 1117 608 1101.5 574 c 128,-1,125
 1086 540 1086 540 1079 492 c 128,-1,126
 1072 444 1072 444 1072 383 c 0,127,128
 1072 321 1072 321 1078.5 273 c 128,-1,129
 1085 225 1085 225 1100.5 191 c 128,-1,130
 1116 157 1116 157 1142.5 139.5 c 128,-1,131
 1169 122 1169 122 1209 122 c 0,132,133
 1279 122 1279 122 1312.5 183.5 c 128,-1,134
 1346 245 1346 245 1346 383 c 0,135,136
 1346 508 1346 508 1315.5 576 c 128,-1,137
 1285 644 1285 644 1209 644 c 0,122,123
EndSplineSet
EndChar

StartChar: grave
Encoding: 96 96 124
Width: 569
Flags: W
LayerCount: 2
Fore
SplineSet
73 1404 m 2,0,1
 55 1419 55 1419 47 1436.5 c 128,-1,2
 39 1454 39 1454 39 1474 c 0,3,4
 39 1499 39 1499 51.5 1522 c 128,-1,5
 64 1545 64 1545 83.5 1562.5 c 128,-1,6
 103 1580 103 1580 128 1590.5 c 128,-1,7
 153 1601 153 1601 178 1601 c 0,8,9
 210 1601 210 1601 238.5 1578.5 c 128,-1,10
 267 1556 267 1556 292 1520 c 2,11,-1
 484 1240 l 2,12,13
 492 1227 492 1227 499.5 1214.5 c 128,-1,14
 507 1202 507 1202 507 1189 c 0,15,16
 507 1161 507 1161 488 1139.5 c 128,-1,17
 469 1118 469 1118 442 1118 c 0,18,19
 426 1118 426 1118 404 1127.5 c 128,-1,20
 382 1137 382 1137 367 1152 c 1,21,-1
 73 1404 l 2,0,1
EndSplineSet
EndChar

StartChar: acute
Encoding: 180 180 125
Width: 569
Flags: W
LayerCount: 2
Fore
SplineSet
182 1139 m 2,0,1
 159 1119 159 1119 128 1119 c 0,2,3
 102 1119 102 1119 79.5 1136.5 c 128,-1,4
 57 1154 57 1154 57 1186 c 0,5,6
 57 1201 57 1201 64.5 1213.5 c 128,-1,7
 72 1226 72 1226 81 1240 c 2,8,-1
 280 1528 l 2,9,10
 302 1560 302 1560 327.5 1581.5 c 128,-1,11
 353 1603 353 1603 385 1603 c 0,12,13
 409 1603 409 1603 433 1593 c 128,-1,14
 457 1583 457 1583 477 1566 c 128,-1,15
 497 1549 497 1549 509.5 1525.5 c 128,-1,16
 522 1502 522 1502 522 1475 c 0,17,18
 521 1429 521 1429 476 1391 c 2,19,-1
 182 1139 l 2,0,1
EndSplineSet
EndChar

StartChar: circumflex
Encoding: 710 710 126
Width: 569
Flags: W
LayerCount: 2
Fore
SplineSet
161 1526 m 1,0,1
 187 1557 187 1557 218 1574 c 128,-1,2
 249 1591 249 1591 283 1591 c 1,3,4
 313 1590 313 1590 345 1575 c 128,-1,5
 377 1560 377 1560 403 1526 c 2,6,-1
 572 1310 l 2,7,8
 590 1287 590 1287 604.5 1261.5 c 128,-1,9
 619 1236 619 1236 619 1214 c 0,10,11
 619 1182 619 1182 594.5 1161.5 c 128,-1,12
 570 1141 570 1141 537 1141 c 0,13,14
 506 1141 506 1141 476 1158.5 c 128,-1,15
 446 1176 446 1176 416 1217 c 0,16,17
 383 1262 383 1262 349.5 1306.5 c 128,-1,18
 316 1351 316 1351 283 1396 c 1,19,20
 251 1354 251 1354 218.5 1308.5 c 128,-1,21
 186 1263 186 1263 153.5 1225 c 128,-1,22
 121 1187 121 1187 88.5 1162.5 c 128,-1,23
 56 1138 56 1138 24 1138 c 0,24,25
 8 1138 8 1138 -7 1143 c 128,-1,26
 -22 1148 -22 1148 -34 1157.5 c 128,-1,27
 -46 1167 -46 1167 -53 1180 c 128,-1,28
 -60 1193 -60 1193 -60 1210 c 0,29,30
 -61 1227 -61 1227 -49 1251.5 c 128,-1,31
 -37 1276 -37 1276 -18 1299 c 2,32,-1
 161 1526 l 1,0,1
EndSplineSet
EndChar

StartChar: tilde
Encoding: 732 732 127
Width: 569
Flags: W
LayerCount: 2
Fore
SplineSet
427 1313 m 0,0,1
 446 1313 446 1313 455 1327 c 128,-1,2
 464 1341 464 1341 473.5 1359 c 128,-1,3
 483 1377 483 1377 497.5 1394.5 c 128,-1,4
 512 1412 512 1412 544 1420 c 0,5,6
 549 1421 549 1421 559 1421 c 0,7,8
 588 1421 588 1421 610.5 1402.5 c 128,-1,9
 633 1384 633 1384 633 1353 c 0,10,11
 633 1300 633 1300 617 1259 c 128,-1,12
 601 1218 601 1218 574 1190 c 128,-1,13
 547 1162 547 1162 510.5 1147.5 c 128,-1,14
 474 1133 474 1133 433 1133 c 0,15,16
 388 1133 388 1133 347 1149.5 c 128,-1,17
 306 1166 306 1166 269.5 1186.5 c 128,-1,18
 233 1207 233 1207 201 1223.5 c 128,-1,19
 169 1240 169 1240 143 1240 c 256,20,21
 117 1240 117 1240 101 1220.5 c 128,-1,22
 85 1201 85 1201 72 1177 c 0,23,24
 58 1151 58 1151 37.5 1141.5 c 128,-1,25
 17 1132 17 1132 -6 1132 c 0,26,27
 -35 1132 -35 1132 -56 1149 c 128,-1,28
 -77 1166 -77 1166 -77 1198 c 0,29,30
 -77 1204 -77 1204 -76 1208 c 0,31,32
 -65 1307 -65 1307 -15 1363 c 128,-1,33
 35 1419 35 1419 127 1419 c 0,34,35
 175 1419 175 1419 218 1402.5 c 128,-1,36
 261 1386 261 1386 298.5 1366 c 128,-1,37
 336 1346 336 1346 368.5 1329.5 c 128,-1,38
 401 1313 401 1313 427 1313 c 0,0,1
EndSplineSet
EndChar

StartChar: macron
Encoding: 175 175 128
Width: 569
Flags: W
LayerCount: 2
Fore
SplineSet
25 1254 m 2,0,1
 -15 1254 -15 1254 -39.5 1279.5 c 128,-1,2
 -64 1305 -64 1305 -64 1347 c 0,3,4
 -64 1387 -64 1387 -38 1413 c 128,-1,5
 -12 1439 -12 1439 38 1439 c 2,6,-1
 535 1439 l 2,7,8
 554 1439 554 1439 572 1434 c 128,-1,9
 590 1429 590 1429 604 1418 c 128,-1,10
 618 1407 618 1407 626.5 1389.5 c 128,-1,11
 635 1372 635 1372 635 1347 c 0,12,13
 635 1305 635 1305 610.5 1279.5 c 128,-1,14
 586 1254 586 1254 535 1254 c 2,15,-1
 25 1254 l 2,0,1
EndSplineSet
EndChar

StartChar: breve
Encoding: 728 728 129
Width: 569
Flags: W
LayerCount: 2
Fore
SplineSet
285 1181 m 1,0,1
 179 1181 179 1181 99 1222.5 c 128,-1,2
 19 1264 19 1264 -25 1346 c 0,3,4
 -36 1366 -36 1366 -43 1385.5 c 128,-1,5
 -50 1405 -50 1405 -50 1427 c 0,6,7
 -50 1446 -50 1446 -42.5 1461 c 128,-1,8
 -35 1476 -35 1476 -22 1486.5 c 128,-1,9
 -9 1497 -9 1497 7.5 1502 c 128,-1,10
 24 1507 24 1507 41 1507 c 0,11,12
 73 1507 73 1507 97.5 1487 c 128,-1,13
 122 1467 122 1467 144 1436 c 0,14,15
 168 1401 168 1401 200.5 1387.5 c 128,-1,16
 233 1374 233 1374 285 1374 c 0,17,18
 333 1374 333 1374 365.5 1386 c 128,-1,19
 398 1398 398 1398 421 1430 c 0,20,21
 442 1459 442 1459 467.5 1483 c 128,-1,22
 493 1507 493 1507 528 1507 c 0,23,24
 565 1507 565 1507 592 1485 c 128,-1,25
 619 1463 619 1463 619 1421 c 0,26,27
 619 1393 619 1393 607 1364.5 c 128,-1,28
 595 1336 595 1336 575.5 1310.5 c 128,-1,29
 556 1285 556 1285 531.5 1263.5 c 128,-1,30
 507 1242 507 1242 483 1229 c 0,31,32
 441 1205 441 1205 391.5 1192.5 c 128,-1,33
 342 1180 342 1180 285 1181 c 1,0,1
EndSplineSet
EndChar

StartChar: dotaccent
Encoding: 729 729 130
Width: 649
Flags: W
LayerCount: 2
Fore
SplineSet
116 1331 m 0,0,1
 116 1364 116 1364 128.5 1393.5 c 128,-1,2
 141 1423 141 1423 163.5 1445.5 c 128,-1,3
 186 1468 186 1468 216.5 1481 c 128,-1,4
 247 1494 247 1494 284 1494 c 0,5,6
 316 1494 316 1494 346.5 1482.5 c 128,-1,7
 377 1471 377 1471 401 1450 c 128,-1,8
 425 1429 425 1429 439.5 1398.5 c 128,-1,9
 454 1368 454 1368 454 1331 c 0,10,11
 454 1297 454 1297 441 1267 c 128,-1,12
 428 1237 428 1237 405.5 1214.5 c 128,-1,13
 383 1192 383 1192 351.5 1179 c 128,-1,14
 320 1166 320 1166 284 1166 c 0,15,16
 249 1166 249 1166 218.5 1178.5 c 128,-1,17
 188 1191 188 1191 165 1213 c 128,-1,18
 142 1235 142 1235 129 1265 c 128,-1,19
 116 1295 116 1295 116 1331 c 0,0,1
EndSplineSet
EndChar

StartChar: dieresis
Encoding: 168 168 131
Width: 569
Flags: W
LayerCount: 2
Fore
SplineSet
55 1171 m 0,0,1
 26 1171 26 1171 -0.5 1181.5 c 128,-1,2
 -27 1192 -27 1192 -48 1210.5 c 128,-1,3
 -69 1229 -69 1229 -81.5 1255.5 c 128,-1,4
 -94 1282 -94 1282 -94 1314 c 0,5,6
 -94 1343 -94 1343 -82.5 1369.5 c 128,-1,7
 -71 1396 -71 1396 -50.5 1415.5 c 128,-1,8
 -30 1435 -30 1435 -3 1446.5 c 128,-1,9
 24 1458 24 1458 55 1458 c 0,10,11
 85 1458 85 1458 111.5 1447 c 128,-1,12
 138 1436 138 1436 158.5 1416.5 c 128,-1,13
 179 1397 179 1397 191 1370.5 c 128,-1,14
 203 1344 203 1344 203 1314 c 256,15,16
 203 1284 203 1284 191 1257.5 c 128,-1,17
 179 1231 179 1231 158.5 1212 c 128,-1,18
 138 1193 138 1193 111.5 1182 c 128,-1,19
 85 1171 85 1171 55 1171 c 0,0,1
515 1171 m 0,20,21
 486 1171 486 1171 459 1181.5 c 128,-1,22
 432 1192 432 1192 411.5 1210.5 c 128,-1,23
 391 1229 391 1229 378.5 1255.5 c 128,-1,24
 366 1282 366 1282 366 1314 c 0,25,26
 366 1342 366 1342 377 1368.5 c 128,-1,27
 388 1395 388 1395 408 1414.5 c 128,-1,28
 428 1434 428 1434 455.5 1446 c 128,-1,29
 483 1458 483 1458 515 1458 c 0,30,31
 544 1458 544 1458 570.5 1447 c 128,-1,32
 597 1436 597 1436 617.5 1417 c 128,-1,33
 638 1398 638 1398 650.5 1371.5 c 128,-1,34
 663 1345 663 1345 663 1314 c 0,35,36
 663 1284 663 1284 651 1257.5 c 128,-1,37
 639 1231 639 1231 618.5 1212 c 128,-1,38
 598 1193 598 1193 571.5 1182 c 128,-1,39
 545 1171 545 1171 515 1171 c 0,20,21
EndSplineSet
EndChar

StartChar: ring
Encoding: 730 730 132
Width: 569
Flags: W
LayerCount: 2
Fore
SplineSet
58 1339 m 0,0,1
 58 1384 58 1384 75.5 1424.5 c 128,-1,2
 93 1465 93 1465 124 1495.5 c 128,-1,3
 155 1526 155 1526 196.5 1544 c 128,-1,4
 238 1562 238 1562 285 1562 c 0,5,6
 329 1562 329 1562 370 1544.5 c 128,-1,7
 411 1527 411 1527 442.5 1497 c 128,-1,8
 474 1467 474 1467 492.5 1426.5 c 128,-1,9
 511 1386 511 1386 511 1339 c 0,10,11
 511 1293 511 1293 493 1252 c 128,-1,12
 475 1211 475 1211 444 1180.5 c 128,-1,13
 413 1150 413 1150 372 1132.5 c 128,-1,14
 331 1115 331 1115 285 1115 c 0,15,16
 240 1115 240 1115 199 1132.5 c 128,-1,17
 158 1150 158 1150 126.5 1180 c 128,-1,18
 95 1210 95 1210 76.5 1251 c 128,-1,19
 58 1292 58 1292 58 1339 c 0,0,1
384 1339 m 0,20,21
 384 1358 384 1358 376 1375.5 c 128,-1,22
 368 1393 368 1393 354.5 1406.5 c 128,-1,23
 341 1420 341 1420 323 1428 c 128,-1,24
 305 1436 305 1436 285 1436 c 256,25,26
 265 1436 265 1436 247 1428 c 128,-1,27
 229 1420 229 1420 215.5 1407 c 128,-1,28
 202 1394 202 1394 194 1376 c 128,-1,29
 186 1358 186 1358 186 1339 c 0,30,31
 186 1319 186 1319 194 1301.5 c 128,-1,32
 202 1284 202 1284 215.5 1271 c 128,-1,33
 229 1258 229 1258 247 1250 c 128,-1,34
 265 1242 265 1242 285 1242 c 0,35,36
 304 1242 304 1242 322 1250 c 128,-1,37
 340 1258 340 1258 353.5 1271 c 128,-1,38
 367 1284 367 1284 375.5 1301.5 c 128,-1,39
 384 1319 384 1319 384 1339 c 0,20,21
EndSplineSet
EndChar

StartChar: cedilla
Encoding: 184 184 133
Width: 569
Flags: W
LayerCount: 2
Fore
SplineSet
235 5 m 1,0,-1
 346 5 l 1,1,-1
 297 -109 l 1,2,3
 336 -106 336 -106 362 -106 c 0,4,5
 398 -107 398 -107 428.5 -117 c 128,-1,6
 459 -127 459 -127 482 -147.5 c 128,-1,7
 505 -168 505 -168 518 -198.5 c 128,-1,8
 531 -229 531 -229 531 -272 c 1,9,10
 529 -316 529 -316 507 -348.5 c 128,-1,11
 485 -381 485 -381 450.5 -402 c 128,-1,12
 416 -423 416 -423 371.5 -433 c 128,-1,13
 327 -443 327 -443 279 -443 c 0,14,15
 245 -443 245 -443 207 -438.5 c 128,-1,16
 169 -434 169 -434 135.5 -426.5 c 128,-1,17
 102 -419 102 -419 77 -408 c 128,-1,18
 52 -397 52 -397 45 -385 c 0,19,20
 39 -375 39 -375 39 -359 c 0,21,22
 39 -338 39 -338 51 -322 c 128,-1,23
 63 -306 63 -306 86 -306 c 0,24,25
 88 -306 88 -306 90 -306.5 c 128,-1,26
 92 -307 92 -307 94 -307 c 0,27,28
 128 -316 128 -316 170 -328.5 c 128,-1,29
 212 -341 212 -341 250 -341 c 0,30,31
 307 -341 307 -341 331.5 -319.5 c 128,-1,32
 356 -298 356 -298 356 -263 c 0,33,34
 356 -244 356 -244 347.5 -231 c 128,-1,35
 339 -218 339 -218 325.5 -210 c 128,-1,36
 312 -202 312 -202 295 -198.5 c 128,-1,37
 278 -195 278 -195 261 -195 c 1,38,39
 253 -196 253 -196 245 -197.5 c 128,-1,40
 237 -199 237 -199 229 -200 c 1,41,42
 201 -200 201 -200 185.5 -189.5 c 128,-1,43
 170 -179 170 -179 170 -158 c 0,44,45
 170 -143 170 -143 179 -123 c 2,46,-1
 235 5 l 1,0,-1
EndSplineSet
EndChar

StartChar: hungarumlaut
Encoding: 733 733 134
Width: 569
Flags: W
LayerCount: 2
Fore
SplineSet
456 1139 m 2,0,1
 441 1126 441 1126 430 1122 c 128,-1,2
 419 1118 419 1118 402 1118 c 0,3,4
 370 1118 370 1118 351 1138.5 c 128,-1,5
 332 1159 332 1159 332 1189 c 0,6,7
 332 1203 332 1203 338.5 1214.5 c 128,-1,8
 345 1226 345 1226 354 1240 c 0,9,10
 403 1312 403 1312 453.5 1384.5 c 128,-1,11
 504 1457 504 1457 555 1530 c 1,12,13
 575 1562 575 1562 603 1581.5 c 128,-1,14
 631 1601 631 1601 661 1601 c 0,15,16
 686 1601 686 1601 710.5 1590.5 c 128,-1,17
 735 1580 735 1580 755 1562.5 c 128,-1,18
 775 1545 775 1545 787.5 1522.5 c 128,-1,19
 800 1500 800 1500 800 1475 c 0,20,21
 800 1452 800 1452 787.5 1432 c 128,-1,22
 775 1412 775 1412 750 1391 c 2,23,-1
 456 1139 l 2,0,1
9 1139 m 2,24,25
 -5 1127 -5 1127 -18 1123 c 128,-1,26
 -31 1119 -31 1119 -44 1119 c 256,27,28
 -57 1119 -57 1119 -70 1123.5 c 128,-1,29
 -83 1128 -83 1128 -93 1136.5 c 128,-1,30
 -103 1145 -103 1145 -109.5 1157 c 128,-1,31
 -116 1169 -116 1169 -116 1184 c 256,32,33
 -116 1199 -116 1199 -108.5 1212.5 c 128,-1,34
 -101 1226 -101 1226 -91 1240 c 2,35,-1
 107 1528 l 2,36,37
 130 1562 130 1562 157.5 1581.5 c 128,-1,38
 185 1601 185 1601 215 1601 c 0,39,40
 240 1601 240 1601 265 1590.5 c 128,-1,41
 290 1580 290 1580 309.5 1563 c 128,-1,42
 329 1546 329 1546 341 1523.5 c 128,-1,43
 353 1501 353 1501 353 1476 c 0,44,45
 353 1449 353 1449 339.5 1430 c 128,-1,46
 326 1411 326 1411 303 1391 c 2,47,-1
 9 1139 l 2,24,25
EndSplineSet
EndChar

StartChar: caron
Encoding: 711 711 136
Width: 569
Flags: W
LayerCount: 2
Fore
SplineSet
-33 1433 m 1,0,1
 -48 1450 -48 1450 -54.5 1466 c 128,-1,2
 -61 1482 -61 1482 -61 1499 c 0,3,4
 -61 1533 -61 1533 -35 1554 c 128,-1,5
 -9 1575 -9 1575 27 1575 c 0,6,7
 89 1575 89 1575 149 1496 c 2,8,-1
 283 1317 l 1,9,10
 315 1359 315 1359 346.5 1400.5 c 128,-1,11
 378 1442 378 1442 409 1486 c 1,12,13
 437 1524 437 1524 468 1548 c 128,-1,14
 499 1572 499 1572 533 1572 c 0,15,16
 571 1572 571 1572 594.5 1550 c 128,-1,17
 618 1528 618 1528 618 1492 c 0,18,19
 618 1470 618 1470 603 1446 c 128,-1,20
 588 1422 588 1422 571 1401 c 2,21,-1
 418 1208 l 2,22,23
 386 1167 386 1167 354 1144.5 c 128,-1,24
 322 1122 322 1122 284 1122 c 0,25,26
 249 1122 249 1122 217.5 1139 c 128,-1,27
 186 1156 186 1156 161 1188 c 2,28,-1
 -33 1433 l 1,0,1
EndSplineSet
EndChar

StartChar: emdash
Encoding: 8212 8212 137
Width: 2048
Flags: W
LayerCount: 2
Fore
SplineSet
108 417 m 2,0,1
 81 417 81 417 60.5 427 c 128,-1,2
 40 437 40 437 26.5 454 c 128,-1,3
 13 471 13 471 6.5 492.5 c 128,-1,4
 0 514 0 514 0 537 c 0,5,6
 0 573 0 573 14.5 596 c 128,-1,7
 29 619 29 619 54 632.5 c 128,-1,8
 79 646 79 646 112 651 c 128,-1,9
 145 656 145 656 183 656 c 2,10,-1
 1901 656 l 2,11,12
 1966 656 1966 656 2006 629.5 c 128,-1,13
 2046 603 2046 603 2046 537 c 0,14,15
 2046 500 2046 500 2031.5 476.5 c 128,-1,16
 2017 453 2017 453 1992 440 c 128,-1,17
 1967 427 1967 427 1933.5 422 c 128,-1,18
 1900 417 1900 417 1863 417 c 2,19,-1
 108 417 l 2,0,1
EndSplineSet
EndChar

